<svg width="24" height="24" viewBox="0 0 24 24" fill="none" xmlns="http://www.w3.org/2000/svg">
<circle cx="12" cy="12" r="1" fill="white"/>
<path d="M15 12C15 14.6668 14.5658 17.035 13.9 18.6997C13.5659 19.5348 13.1932 20.1435 12.8304 20.527C12.4697 20.9085 12.1887 21 12 21C11.8113 21 11.5303 20.9085 11.1696 20.527C10.8068 20.1435 10.4341 19.5348 10.1 18.6997C9.43419 17.035 9 14.6668 9 12C9 9.33323 9.43419 6.96497 10.1 5.30032C10.4341 4.46523 10.8068 3.85653 11.1696 3.47296C11.5303 3.0915 11.8113 3 12 3C12.1887 3 12.4697 3.0915 12.8304 3.47296C13.1932 3.85653 13.5659 4.46523 13.9 5.30032C14.5658 6.96497 15 9.33323 15 12Z" stroke="white" stroke-width="2"/>
<path d="M13.4999 14.5983C11.1904 15.9317 8.92234 16.7398 7.14779 16.9955C6.25755 17.1237 5.54403 17.1053 5.03048 16.9829C4.51975 16.8612 4.30003 16.6637 4.20567 16.5002C4.11131 16.3368 4.05008 16.0477 4.20005 15.5446C4.35086 15.0387 4.69164 14.4115 5.24784 13.7047C6.35653 12.2957 8.19041 10.7355 10.4999 9.40216C12.8094 8.06877 15.0775 7.26066 16.852 7.00499C17.7423 6.87673 18.4558 6.89518 18.9693 7.01754C19.4801 7.13923 19.6998 7.3368 19.7941 7.50023C19.8885 7.66367 19.9497 7.95274 19.7998 8.45588C19.6489 8.96181 19.3082 9.58897 18.752 10.2958C17.6433 11.7048 15.8094 13.2649 13.4999 14.5983Z" stroke="white" stroke-width="2"/>
<path d="M13.4999 9.40169C11.1904 8.0683 8.92234 7.26019 7.14779 7.00452C6.25755 6.87626 5.54403 6.89472 5.03048 7.01708C4.51975 7.13876 4.30003 7.33633 4.20567 7.49977C4.11131 7.6632 4.05008 7.95227 4.20005 8.45541C4.35086 8.96134 4.69164 9.5885 5.24784 10.2953C6.35653 11.7043 8.19041 13.2645 10.4999 14.5978C12.8094 15.9312 15.0775 16.7393 16.852 16.995C17.7423 17.1233 18.4558 17.1048 18.9693 16.9825C19.4801 16.8608 19.6998 16.6632 19.7941 16.4998C19.8885 16.3363 19.9497 16.0473 19.7998 15.5441C19.6489 15.0382 19.3082 14.411 18.752 13.7042C17.6433 12.2952 15.8094 10.7351 13.4999 9.40169Z" stroke="white" stroke-width="2"/>
</svg>
