<svg width="36" height="36" viewBox="0 0 36 36" fill="none" xmlns="http://www.w3.org/2000/svg">
<path d="M18 31.875C16.1779 31.875 14.3737 31.5161 12.6903 30.8188C11.0069 30.1215 9.47731 29.0995 8.18889 27.8111C6.90048 26.5227 5.87845 24.9931 5.18117 23.3097C4.48389 21.6263 4.125 19.8221 4.125 18C4.125 16.1779 4.48389 14.3737 5.18117 12.6903C5.87846 11.0069 6.90048 9.4773 8.18889 8.18889C9.47731 6.90048 11.0069 5.87845 12.6903 5.18117C14.3737 4.48389 16.1779 4.125 18 4.125C19.8221 4.125 21.6263 4.48389 23.3097 5.18117C24.9931 5.87846 26.5227 6.90048 27.8111 8.1889C29.0995 9.47731 30.1215 11.0069 30.8188 12.6903C31.5161 14.3737 31.875 16.1779 31.875 18C31.875 19.8221 31.5161 21.6263 30.8188 23.3097C30.1215 24.9931 29.0995 26.5227 27.8111 27.8111C26.5227 29.0995 24.9931 30.1215 23.3097 30.8188C21.6263 31.5161 19.8221 31.875 18 31.875L18 31.875Z" stroke="#FEFEFE" stroke-width="2" stroke-linecap="round"/>
<path d="M13.375 13.375L22.625 22.625" stroke="#FEFEFE" stroke-width="2" stroke-linecap="round"/>
<path d="M22.625 13.375L13.375 22.625" stroke="#FEFEFE" stroke-width="2" stroke-linecap="round"/>
</svg>
