<svg width="20" height="20" viewBox="0 0 20 20" fill="none" xmlns="http://www.w3.org/2000/svg">
<ellipse cx="9.99935" cy="5" rx="5.83333" ry="2.5" stroke="#6C7275" stroke-opacity="0.5"/>
<path d="M15.8327 15C15.8327 15.3283 15.6818 15.6534 15.3886 15.9567C15.0955 16.26 14.6658 16.5356 14.1241 16.7678C13.5825 16.9999 12.9394 17.1841 12.2317 17.3097C11.5239 17.4353 10.7654 17.5 9.99935 17.5C9.2333 17.5 8.47476 17.4353 7.76703 17.3097C7.0593 17.1841 6.41623 16.9999 5.87456 16.7678C5.33288 16.5356 4.9032 16.26 4.61005 15.9567C4.3169 15.6534 4.16602 15.3283 4.16602 15" stroke="#6C7275" stroke-opacity="0.5"/>
<path d="M15.834 5V15" stroke="#6C7275" stroke-opacity="0.5"/>
<path d="M4.16602 5V15" stroke="#6C7275" stroke-opacity="0.5"/>
</svg>
