<svg width="16" height="16" viewBox="0 0 16 16" fill="none" xmlns="http://www.w3.org/2000/svg">
<path d="M4 9.33334H12C13.1046 9.33334 14 10.2288 14 11.3333C14 12.4379 13.1046 13.3333 12 13.3333H4C2.89543 13.3333 2 12.4379 2 11.3333C2 10.2288 2.89543 9.33334 4 9.33334Z" stroke="#6C7275" stroke-width="2"/>
<path d="M2 11.3333C2 10.4965 2.78782 7.29621 3.37455 5.02882C3.59035 4.19487 3.69825 3.77789 3.94015 3.45869C4.15146 3.17985 4.44113 2.95559 4.76402 2.82087C5.13364 2.66666 5.57048 2.66666 6.44415 2.66666H9.55585C10.4295 2.66666 10.8664 2.66666 11.236 2.82087C11.5589 2.95559 11.8485 3.17985 12.0598 3.45869C12.3017 3.77789 12.4096 4.19487 12.6254 5.02882C13.2122 7.29621 14 10.4965 14 11.3333" stroke="#6C7275" stroke-width="2"/>
<rect x="11.334" y="10.6667" width="1.33333" height="1.33333" rx="0.666667" fill="#6C7275"/>
<rect x="3.33398" y="10.6667" width="2.66667" height="1.33333" rx="0.666667" fill="#6C7275"/>
</svg>
