<svg width="30" height="30" viewBox="0 0 30 30" fill="none" xmlns="http://www.w3.org/2000/svg">
<g id="Dimond_fill">
<path id="Vector 76" d="M7.18508 17.1851L13.2322 23.2322C14.0656 24.0656 14.4822 24.4822 15 24.4822C15.5178 24.4822 15.9344 24.0656 16.7678 23.2322L22.8149 17.1851C23.8781 16.1219 24.4096 15.5904 24.5728 14.8992C24.736 14.208 24.4983 13.4948 24.0228 12.0684L23.6396 10.9189C23.0896 9.26881 22.8146 8.44379 22.1599 7.97189C21.5052 7.5 20.6355 7.5 18.8962 7.5H11.1038C9.36449 7.5 8.49484 7.5 7.84012 7.97189C7.1854 8.44379 6.9104 9.26881 6.36038 10.9189L5.9772 12.0684C5.50174 13.4948 5.26401 14.208 5.42718 14.8992C5.59035 15.5904 6.12193 16.1219 7.18508 17.1851Z" fill="#222222"/>
</g>
</svg>
