<svg xmlns="http://www.w3.org/2000/svg" viewBox="0 0 587.99794 447.99892"><title>discord</title><path d="M498.53087,37.8367a1.50017,1.50017,0,0,0-.764-.7A485.06531,485.06531,0,0,0,378.08085.0307a1.816,1.816,0,0,0-1.923.91,337.46729,337.46729,0,0,0-14.9,30.6,447.84825,447.84825,0,0,0-134.426,0,309.54257,309.54257,0,0,0-15.135-30.6,1.89,1.89,0,0,0-1.924-.91,483.68922,483.68922,0,0,0-119.688,37.107,1.712,1.712,0,0,0-.788.676c-76.229,113.838-97.111,224.877-86.867,334.541a2.016,2.016,0,0,0,.765,1.375,487.66546,487.66546,0,0,0,146.825,74.189,1.9,1.9,0,0,0,2.063-.676,348.2,348.2,0,0,0,30.037-48.842,1.86011,1.86011,0,0,0-1.019-2.588,321.17593,321.17593,0,0,1-45.868-21.853,1.885,1.885,0,0,1-.185-3.126c3.082-2.309,6.166-4.711,9.109-7.137a1.819,1.819,0,0,1,1.9-.256c96.229,43.917,200.41,43.917,295.5,0a1.812,1.812,0,0,1,1.924.233c2.944,2.426,6.027,4.851,9.132,7.16a1.884,1.884,0,0,1-.162,3.126,301.40663,301.40663,0,0,1-45.89,21.83,1.87492,1.87492,0,0,0-1,2.611,391.05021,391.05021,0,0,0,30.014,48.815,1.864,1.864,0,0,0,2.063.7,486.048,486.048,0,0,0,147.062-74.186,1.882,1.882,0,0,0,.765-1.352C597.72886,245.59469,564.93284,135.4657,498.53087,37.8367Zm-302.04,267.744c-28.972,0-52.844-26.587-52.844-59.239s23.409-59.241,52.844-59.241c29.665,0,53.306,26.82,52.843,59.239C249.33388,278.99371,225.92386,305.58069,196.49086,305.58069Zm195.38,0c-28.971,0-52.843-26.587-52.843-59.239s23.409-59.241,52.843-59.241c29.667,0,53.307,26.82,52.844,59.239C444.71486,278.99371,421.53786,305.58069,391.87086,305.58069Z" style="fill:#fff"/></svg>