<svg width="92" height="20" viewBox="0 0 92 20" fill="none" xmlns="http://www.w3.org/2000/svg">
<path d="M13.376 14.08C13.376 15.664 12.944 16.88 12.08 17.728C11.232 18.576 10.04 19 8.504 19H6.2C4.312 19 2.968 18.672 2.168 18.016C1.384 17.36 0.992 16.224 0.992 14.608V1.912H8.216C9.848 1.912 11.072 2.32 11.888 3.136C12.72 3.952 13.136 5.104 13.136 6.592C13.136 7.456 12.912 8.192 12.464 8.8C12.032 9.408 11.552 9.84 11.024 10.096C12.592 10.832 13.376 12.16 13.376 14.08ZM7.952 8.584C9.184 8.584 9.8 7.968 9.8 6.736C9.8 5.504 9.184 4.888 7.952 4.888H4.328V8.584H7.952ZM10.04 13.912C10.04 13.144 9.904 12.568 9.632 12.184C9.36 11.784 8.872 11.584 8.168 11.584H4.328V14.272C4.328 14.928 4.488 15.384 4.808 15.64C5.144 15.896 5.688 16.024 6.44 16.024H8.168C9.416 16.024 10.04 15.32 10.04 13.912ZM18.1329 0.0639992C18.8849 0.0639992 19.3729 0.183999 19.5969 0.423999C19.8209 0.647999 19.9329 1.136 19.9329 1.888C19.9329 2.624 19.8129 3.112 19.5729 3.352C19.3489 3.576 18.8609 3.688 18.1089 3.688C17.3729 3.688 16.8849 3.568 16.6449 3.328C16.4209 3.088 16.3089 2.6 16.3089 1.864C16.3089 1.128 16.4209 0.647999 16.6449 0.423999C16.8849 0.183999 17.3809 0.0639992 18.1329 0.0639992ZM19.6689 19H16.5489V5.8H19.6689V19ZM31.8223 19H24.3583C23.5423 19 22.9103 18.832 22.4623 18.496C22.0303 18.144 21.8143 17.656 21.8143 17.032C21.8143 16.408 22.0783 15.752 22.6063 15.064L28.3183 7.984H22.6063V5.296H32.0623V7.672L25.2463 16.312H31.8223V19ZM44.5792 19H42.4912L41.5312 17.344L38.1952 19.144C36.3392 19.144 35.0912 18.472 34.4512 17.128C34.1312 16.472 33.9072 15.768 33.7792 15.016C33.6672 14.248 33.6112 13.456 33.6112 12.64C33.6112 11.808 33.6192 11.2 33.6352 10.816C33.6512 10.416 33.6912 9.96 33.7552 9.448C33.8192 8.92 33.9072 8.48 34.0192 8.128C34.1472 7.776 34.3232 7.416 34.5472 7.048C34.7712 6.664 35.0432 6.36 35.3632 6.136C36.0832 5.64 37.0192 5.392 38.1712 5.392H41.4592V0.951999H44.5792V19ZM41.4592 14.632V8.2H39.0832C38.2032 8.2 37.5872 8.536 37.2352 9.208C36.8992 9.88 36.7312 10.888 36.7312 12.232C36.7312 13.56 36.8912 14.496 37.2112 15.04C37.5472 15.584 38.1712 15.856 39.0832 15.856L41.4592 14.632ZM49.6563 0.0639992C50.4083 0.0639992 50.8963 0.183999 51.1203 0.423999C51.3443 0.647999 51.4563 1.136 51.4563 1.888C51.4563 2.624 51.3363 3.112 51.0963 3.352C50.8723 3.576 50.3843 3.688 49.6323 3.688C48.8963 3.688 48.4083 3.568 48.1683 3.328C47.9443 3.088 47.8323 2.6 47.8323 1.864C47.8323 1.128 47.9443 0.647999 48.1683 0.423999C48.4083 0.183999 48.9043 0.0639992 49.6563 0.0639992ZM51.1923 19H48.0723V5.8H51.1923V19ZM65.3137 19H62.1937V10.24C62.1937 9.456 62.0337 8.92 61.7137 8.632C61.3937 8.344 60.9457 8.2 60.3697 8.2L57.5617 9.376V19H54.4417V5.296H56.7697L57.4897 6.928L61.3297 5.152C62.4017 5.152 63.3297 5.552 64.1137 6.352C64.9137 7.136 65.3137 8.288 65.3137 9.808V19ZM71.7275 15.784C71.9835 16.024 72.1115 16.544 72.1115 17.344C72.1115 18.144 71.9835 18.672 71.7275 18.928C71.4875 19.184 70.9675 19.312 70.1675 19.312C69.3675 19.312 68.8395 19.184 68.5835 18.928C68.3275 18.672 68.1995 18.144 68.1995 17.344C68.1995 16.544 68.3275 16.024 68.5835 15.784C68.8395 15.528 69.3675 15.4 70.1675 15.4C70.9675 15.4 71.4875 15.528 71.7275 15.784ZM84.9496 19H82.8616L81.9016 17.344L78.5656 19.144C76.7096 19.144 75.4616 18.472 74.8216 17.128C74.5016 16.472 74.2776 15.768 74.1496 15.016C74.0376 14.248 73.9816 13.456 73.9816 12.64C73.9816 11.808 73.9896 11.2 74.0056 10.816C74.0216 10.416 74.0616 9.96 74.1256 9.448C74.1896 8.92 74.2776 8.48 74.3896 8.128C74.5176 7.776 74.6936 7.416 74.9176 7.048C75.1416 6.664 75.4136 6.36 75.7336 6.136C76.4536 5.64 77.3896 5.392 78.5416 5.392H81.8296L84.9496 5.2V19ZM81.8296 14.632V8.2H79.4536C78.5736 8.2 77.9576 8.536 77.6056 9.208C77.2696 9.88 77.1016 10.888 77.1016 12.232C77.1016 13.56 77.2616 14.496 77.5816 15.04C77.9176 15.584 78.5416 15.856 79.4536 15.856L81.8296 14.632ZM89.9219 0.0639992C90.6739 0.0639992 91.1619 0.183999 91.3859 0.423999C91.6099 0.647999 91.7219 1.136 91.7219 1.888C91.7219 2.624 91.6019 3.112 91.3619 3.352C91.1379 3.576 90.6499 3.688 89.8979 3.688C89.1619 3.688 88.6739 3.568 88.4339 3.328C88.2099 3.088 88.0979 2.6 88.0979 1.864C88.0979 1.128 88.2099 0.647999 88.4339 0.423999C88.6739 0.183999 89.1699 0.0639992 89.9219 0.0639992ZM91.4579 19H88.3379V5.8H91.4579V19Z" fill="white"/>
</svg>
