<svg width="24" height="25" viewBox="0 0 24 25" fill="none" xmlns="http://www.w3.org/2000/svg">
<path fill-rule="evenodd" clip-rule="evenodd" d="M18.8845 4.79308C17.4152 4.15152 15.7926 3.79565 14.0869 3.79565C7.4595 3.79565 2.08691 9.16823 2.08691 15.7956C2.08691 16.1267 2.10032 16.4546 2.12662 16.7789C1.43297 15.3824 1.04297 13.8084 1.04297 12.1433C1.04297 6.38031 5.71478 1.7085 11.4778 1.7085C14.3736 1.7085 16.9939 2.88813 18.8845 4.79308Z" fill="#E2C991"/>
<path fill-rule="evenodd" clip-rule="evenodd" d="M12 24.665C18.6274 24.665 24 19.2925 24 12.665C24 6.03762 18.6274 0.665039 12 0.665039C11.6215 0.665039 11.247 0.682565 10.8775 0.71685C15.3224 1.19741 18.7828 4.9619 18.7828 9.5346C18.7828 14.4331 14.8117 18.4042 9.91321 18.4042C5.01468 18.4042 1.04364 14.4331 1.04364 9.5346C1.04364 8.66553 1.16864 7.82564 1.40163 7.03195C0.507 8.71165 0 10.6291 0 12.665C0 19.2925 5.37258 24.665 12 24.665Z" fill="white"/>
</svg>
