<svg width="125" height="32" viewBox="0 0 125 32" fill="none" xmlns="http://www.w3.org/2000/svg">
<path fill-rule="evenodd" clip-rule="evenodd" d="M18.8845 7.79308C17.4152 7.15152 15.7926 6.79565 14.0869 6.79565C7.4595 6.79565 2.08691 12.1682 2.08691 18.7956C2.08691 19.1267 2.10032 19.4546 2.12662 19.7789C1.43297 18.3824 1.04297 16.8084 1.04297 15.1433C1.04297 9.38031 5.71478 4.7085 11.4778 4.7085C14.3736 4.7085 16.9939 5.88813 18.8845 7.79308Z" fill="#E2C991"/>
<path fill-rule="evenodd" clip-rule="evenodd" d="M12 27.665C18.6274 27.665 24 22.2925 24 15.665C24 9.03762 18.6274 3.66504 12 3.66504C11.6215 3.66504 11.247 3.68256 10.8775 3.71685C15.3224 4.19741 18.7828 7.9619 18.7828 12.5346C18.7828 17.4331 14.8117 21.4042 9.91321 21.4042C5.01468 21.4042 1.04364 17.4331 1.04364 12.5346C1.04364 11.6655 1.16864 10.8256 1.40163 10.032C0.507 11.7117 0 13.6291 0 15.665C0 22.2925 5.37258 27.665 12 27.665Z" fill="white"/>
<path d="M44.376 19.08C44.376 20.664 43.944 21.88 43.08 22.728C42.232 23.576 41.04 24 39.504 24H37.2C35.312 24 33.968 23.672 33.168 23.016C32.384 22.36 31.992 21.224 31.992 19.608V6.912H39.216C40.848 6.912 42.072 7.32 42.888 8.136C43.72 8.952 44.136 10.104 44.136 11.592C44.136 12.456 43.912 13.192 43.464 13.8C43.032 14.408 42.552 14.84 42.024 15.096C43.592 15.832 44.376 17.16 44.376 19.08ZM38.952 13.584C40.184 13.584 40.8 12.968 40.8 11.736C40.8 10.504 40.184 9.888 38.952 9.888H35.328V13.584H38.952ZM41.04 18.912C41.04 18.144 40.904 17.568 40.632 17.184C40.36 16.784 39.872 16.584 39.168 16.584H35.328V19.272C35.328 19.928 35.488 20.384 35.808 20.64C36.144 20.896 36.688 21.024 37.44 21.024H39.168C40.416 21.024 41.04 20.32 41.04 18.912ZM49.1329 5.064C49.8849 5.064 50.3729 5.184 50.5969 5.424C50.8209 5.648 50.9329 6.136 50.9329 6.888C50.9329 7.624 50.8129 8.112 50.5729 8.352C50.3489 8.576 49.8609 8.688 49.1089 8.688C48.3729 8.688 47.8849 8.568 47.6449 8.328C47.4209 8.088 47.3089 7.6 47.3089 6.864C47.3089 6.128 47.4209 5.648 47.6449 5.424C47.8849 5.184 48.3809 5.064 49.1329 5.064ZM50.6689 24H47.5489V10.8H50.6689V24ZM62.8223 24H55.3583C54.5423 24 53.9103 23.832 53.4623 23.496C53.0303 23.144 52.8143 22.656 52.8143 22.032C52.8143 21.408 53.0783 20.752 53.6063 20.064L59.3183 12.984H53.6063V10.296H63.0623V12.672L56.2463 21.312H62.8223V24ZM75.5792 24H73.4912L72.5312 22.344L69.1952 24.144C67.3392 24.144 66.0912 23.472 65.4512 22.128C65.1312 21.472 64.9072 20.768 64.7792 20.016C64.6672 19.248 64.6112 18.456 64.6112 17.64C64.6112 16.808 64.6192 16.2 64.6352 15.816C64.6512 15.416 64.6912 14.96 64.7552 14.448C64.8192 13.92 64.9072 13.48 65.0192 13.128C65.1472 12.776 65.3232 12.416 65.5472 12.048C65.7712 11.664 66.0432 11.36 66.3632 11.136C67.0832 10.64 68.0192 10.392 69.1712 10.392H72.4592V5.952H75.5792V24ZM72.4592 19.632V13.2H70.0832C69.2032 13.2 68.5872 13.536 68.2352 14.208C67.8992 14.88 67.7312 15.888 67.7312 17.232C67.7312 18.56 67.8912 19.496 68.2112 20.04C68.5472 20.584 69.1712 20.856 70.0832 20.856L72.4592 19.632ZM80.6563 5.064C81.4083 5.064 81.8963 5.184 82.1203 5.424C82.3443 5.648 82.4563 6.136 82.4563 6.888C82.4563 7.624 82.3363 8.112 82.0963 8.352C81.8723 8.576 81.3843 8.688 80.6323 8.688C79.8963 8.688 79.4083 8.568 79.1683 8.328C78.9443 8.088 78.8323 7.6 78.8323 6.864C78.8323 6.128 78.9443 5.648 79.1683 5.424C79.4083 5.184 79.9043 5.064 80.6563 5.064ZM82.1923 24H79.0723V10.8H82.1923V24ZM96.3137 24H93.1937V15.24C93.1937 14.456 93.0337 13.92 92.7137 13.632C92.3937 13.344 91.9457 13.2 91.3697 13.2L88.5617 14.376V24H85.4417V10.296H87.7697L88.4897 11.928L92.3297 10.152C93.4017 10.152 94.3297 10.552 95.1137 11.352C95.9137 12.136 96.3137 13.288 96.3137 14.808V24ZM102.728 20.784C102.984 21.024 103.112 21.544 103.112 22.344C103.112 23.144 102.984 23.672 102.728 23.928C102.488 24.184 101.968 24.312 101.168 24.312C100.368 24.312 99.8395 24.184 99.5835 23.928C99.3275 23.672 99.1995 23.144 99.1995 22.344C99.1995 21.544 99.3275 21.024 99.5835 20.784C99.8395 20.528 100.368 20.4 101.168 20.4C101.968 20.4 102.488 20.528 102.728 20.784ZM115.95 24H113.862L112.902 22.344L109.566 24.144C107.71 24.144 106.462 23.472 105.822 22.128C105.502 21.472 105.278 20.768 105.15 20.016C105.038 19.248 104.982 18.456 104.982 17.64C104.982 16.808 104.99 16.2 105.006 15.816C105.022 15.416 105.062 14.96 105.126 14.448C105.19 13.92 105.278 13.48 105.39 13.128C105.518 12.776 105.694 12.416 105.918 12.048C106.142 11.664 106.414 11.36 106.734 11.136C107.454 10.64 108.39 10.392 109.542 10.392H112.83L115.95 10.2V24ZM112.83 19.632V13.2H110.454C109.574 13.2 108.958 13.536 108.606 14.208C108.27 14.88 108.102 15.888 108.102 17.232C108.102 18.56 108.262 19.496 108.582 20.04C108.918 20.584 109.542 20.856 110.454 20.856L112.83 19.632ZM120.922 5.064C121.674 5.064 122.162 5.184 122.386 5.424C122.61 5.648 122.722 6.136 122.722 6.888C122.722 7.624 122.602 8.112 122.362 8.352C122.138 8.576 121.65 8.688 120.898 8.688C120.162 8.688 119.674 8.568 119.434 8.328C119.21 8.088 119.098 7.6 119.098 6.864C119.098 6.128 119.21 5.648 119.434 5.424C119.674 5.184 120.17 5.064 120.922 5.064ZM122.458 24H119.338V10.8H122.458V24Z" fill="white"/>
</svg>
