<svg id="0eb0fba4-4e3d-4ac5-a03d-51558203f1ae" data-name="Layer 1" xmlns="http://www.w3.org/2000/svg" xmlns:xlink="http://www.w3.org/1999/xlink" viewBox="0 0 81.79277 13.35984"><defs><radialGradient id="d068d9d6-eb37-4eca-959e-d040a6440dbb" cx="4.2523" cy="4.43369" r="3.01878" gradientUnits="userSpaceOnUse"><stop offset="0" stop-color="#fff" stop-opacity="0.4"/><stop offset="0.15769" stop-color="#fff" stop-opacity="0.4"/><stop offset="0.4244" stop-color="#fff" stop-opacity="0.21446"/><stop offset="0.68171" stop-color="#fff" stop-opacity="0.05922"/><stop offset="0.81523" stop-color="#fff" stop-opacity="0"/></radialGradient></defs><title>logo2</title><path d="M26.03729,53.98865V45.245h3.11025a4.02218,4.02218,0,0,1,4.38378,4.35824c0,2.73258-1.64121,4.38545-4.47931,4.38545Zm2.93752-1.153c2.12386,0,3.17412-1.15968,3.17412-3.23244,0-2.06165-1.05026-3.20522-3.08748-3.20522h-1.619v6.43766Z" transform="translate(-9.47255 -42.9519)" style="fill:#141414"/><path d="M34.1717,50.74066a3.2586,3.2586,0,1,1,6.51153,0,3.25809,3.25809,0,1,1-6.51153,0Zm5.13858-.00444c0-1.25521-.60039-2.3238-1.87837-2.3238-1.28687,0-1.88725,1.06859-1.88725,2.3238,0,1.25965.60039,2.31269,1.88725,2.31269C38.70989,53.04891,39.31027,51.99586,39.31027,50.73621Z" transform="translate(-9.47255 -42.9519)" style="fill:#141414"/><path d="M42.8804,53.98865H41.52077V47.43046H42.826v1.06859h.08609a2.09371,2.09371,0,0,1,2.06-1.153,2.22287,2.22287,0,0,1,2.37823,2.47265v4.17H45.99064V49.972a1.38118,1.38118,0,0,0-1.48237-1.51958,1.52981,1.52981,0,0,0-1.62788,1.64177Z" transform="translate(-9.47255 -42.9519)" style="fill:#141414"/><path d="M48.13283,52.13583c0-1.4907,1.35518-1.81505,2.67926-1.95946,1.2541-.13552,1.764-.12885,1.764-.59317v-.0311c0-.742-.44988-1.173-1.32741-1.173a1.64239,1.64239,0,0,0-1.624.91308l-1.278-.27326A2.841,2.841,0,0,1,51.22975,47.346c1.10969,0,2.71036.37989,2.71036,2.28825v4.35435H52.6127v-.89531h-.05443a2.21276,2.21276,0,0,1-2.065,1.04193C49.16532,54.13527,48.13283,53.42658,48.13283,52.13583Zm4.44766-.511v-.84643a5.5736,5.5736,0,0,1-1.68287.351c-.78645.09775-1.43238.33991-1.43238,1.02416,0,.63094.55485.95529,1.32352.95529A1.6011,1.6011,0,0,0,52.58048,51.62486Z" transform="translate(-9.47255 -42.9519)" style="fill:#141414"/><path d="M58.20448,48.45462H56.77154v3.60789c0,.73979.39545.87531.83755.87531a2.28147,2.28147,0,0,0,.47653-.05554l.24549,1.05526a2.747,2.747,0,0,1-.882.13774,1.78467,1.78467,0,0,1-2.03721-1.74618V48.45462h-1.023V47.43046h1.023V45.86034h1.35962v1.57012h1.43294Z" transform="translate(-9.47255 -42.9519)" style="fill:#141414"/><path d="M58.42886,50.74066a3.25914,3.25914,0,1,1,6.51264,0,3.25863,3.25863,0,1,1-6.51264,0Zm5.13858-.00444c0-1.25521-.59983-2.3238-1.87726-2.3238-1.28742,0-1.88725,1.06859-1.88725,2.3238,0,1.25965.59983,2.31269,1.88725,2.31269C62.9676,53.04891,63.56744,51.99586,63.56744,50.73621Z" transform="translate(-9.47255 -42.9519)" style="fill:#141414"/><path d="M68.8893,53.98865H67.43414l-2.53707-6.55818h1.4596l1.7684,5.04749h.07331l1.764-5.04749h1.4596Z" transform="translate(-9.47255 -42.9519)" style="fill:#141414"/><path d="M71.24309,53.21553a.91089.91089,0,1,1,.90864.85532A.88432.88432,0,0,1,71.24309,53.21553Z" transform="translate(-9.47255 -42.9519)" style="fill:#141414"/><path d="M75.58522,53.98865H74.22559V47.43046h1.30519v1.06859h.08664a2.09181,2.09181,0,0,1,2.05943-1.153,2.22312,2.22312,0,0,1,2.37823,2.47265v4.17H78.69547V49.972a1.38159,1.38159,0,0,0-1.48292-1.51958,1.52967,1.52967,0,0,0-1.62733,1.64177Z" transform="translate(-9.47255 -42.9519)" style="fill:#141414"/><path d="M80.8682,50.75176A3.14748,3.14748,0,0,1,84.0973,47.346a2.9549,2.9549,0,0,1,3.09248,3.29464v.45321h-4.9664a1.85835,1.85835,0,0,0,1.98278,1.97279,1.58832,1.58832,0,0,0,1.60955-.9353l1.28742.21772a2.774,2.774,0,0,1-2.9103,1.77284A3.12145,3.12145,0,0,1,80.8682,50.75176Zm4.98862-.61316a1.66782,1.66782,0,0,0-1.75063-1.7373,1.82294,1.82294,0,0,0-1.87837,1.7373Z" transform="translate(-9.47255 -42.9519)" style="fill:#141414"/><path d="M91.13757,48.45462H89.70575v3.60789c0,.73979.39545.87531.83643.87531a2.30535,2.30535,0,0,0,.47765-.05554l.24549,1.05526a2.7594,2.7594,0,0,1-.882.13774,1.78361,1.78361,0,0,1-2.03721-1.74618V48.45462H87.322V47.43046h1.02416V45.86034h1.35962v1.57012h1.43183Z" transform="translate(-9.47255 -42.9519)" style="fill:#141414"/><polygon points="0 6.738 1.915 1.998 6.622 0 11.362 1.915 13.36 6.622 11.445 11.362 6.738 13.36 1.998 11.445 0 6.738" style="fill:#0d6efd"/><polygon points="6.731 6.574 1.915 1.998 0 6.738 6.731 6.574" style="fill:#00a4ff"/><polygon points="6.794 6.602 6.622 0 1.915 1.998 6.794 6.602" style="fill:#2cafff"/><polygon points="6.68 6.68 6.738 13.36 11.445 11.362 6.68 6.68" style="fill:#2463ed"/><polygon points="10.551 6.714 9.441 3.967 6.714 2.809 3.967 3.919 2.809 6.646 3.919 9.393 6.646 10.551 9.393 9.441 10.551 6.714" style="fill:#1099ff"/><circle cx="4.2523" cy="4.43369" r="3.01878" style="opacity:0.63;fill:url(#d068d9d6-eb37-4eca-959e-d040a6440dbb)"/></svg>