<svg width="136" height="29" viewBox="0 0 136 29" fill="none" xmlns="http://www.w3.org/2000/svg">
<path fill-rule="evenodd" clip-rule="evenodd" d="M18.8845 6.62853C17.4152 5.98697 15.7926 5.6311 14.0869 5.6311C7.4595 5.6311 2.08691 11.0037 2.08691 17.6311C2.08691 17.9622 2.10032 18.2901 2.12662 18.6144C1.43297 17.2178 1.04297 15.6438 1.04297 13.9787C1.04297 8.21576 5.71478 3.54395 11.4778 3.54395C14.3736 3.54395 16.9939 4.72358 18.8845 6.62853Z" fill="#E2C991"/>
<path fill-rule="evenodd" clip-rule="evenodd" d="M12 26.5C18.6274 26.5 24 21.1274 24 14.5C24 7.87258 18.6274 2.5 12 2.5C11.6215 2.5 11.247 2.51753 10.8775 2.55181C15.3224 3.03237 18.7828 6.79686 18.7828 11.3696C18.7828 16.2681 14.8117 20.2391 9.91321 20.2391C5.01468 20.2391 1.04364 16.2681 1.04364 11.3696C1.04364 10.5005 1.16864 9.66061 1.40163 8.86691C0.507 10.5466 0 12.4641 0 14.5C0 21.1274 5.37258 26.5 12 26.5Z" fill="white"/>
<path d="M36.736 23V6.2H43.984C45.856 6.2 47.304 6.576 48.328 7.328C49.368 8.08 49.888 9.144 49.888 10.52C49.888 11.432 49.672 12.2 49.24 12.824C48.824 13.448 48.248 13.92 47.512 14.24C46.792 14.56 46 14.72 45.136 14.72L45.544 14.144C46.616 14.144 47.536 14.312 48.304 14.648C49.088 14.968 49.696 15.456 50.128 16.112C50.56 16.752 50.776 17.552 50.776 18.512C50.776 19.936 50.248 21.04 49.192 21.824C48.152 22.608 46.576 23 44.464 23H36.736ZM38.512 21.536H44.44C45.912 21.536 47.04 21.288 47.824 20.792C48.608 20.28 49 19.472 49 18.368C49 17.28 48.608 16.488 47.824 15.992C47.04 15.48 45.912 15.224 44.44 15.224H38.32V13.76H43.864C45.208 13.76 46.248 13.504 46.984 12.992C47.736 12.48 48.112 11.72 48.112 10.712C48.112 9.688 47.736 8.928 46.984 8.432C46.248 7.92 45.208 7.664 43.864 7.664H38.512V21.536ZM54.4698 23V10.4H56.1738V23H54.4698ZM55.3338 7.616C54.9818 7.616 54.6858 7.496 54.4458 7.256C54.2058 7.016 54.0858 6.728 54.0858 6.392C54.0858 6.056 54.2058 5.776 54.4458 5.552C54.6858 5.312 54.9818 5.192 55.3338 5.192C55.6858 5.192 55.9818 5.304 56.2218 5.528C56.4618 5.752 56.5818 6.032 56.5818 6.368C56.5818 6.72 56.4618 7.016 56.2218 7.256C55.9978 7.496 55.7018 7.616 55.3338 7.616ZM59.5471 23V21.872L67.9471 11.24L68.3071 11.816H59.6911V10.4H69.6511V11.504L61.2751 22.16L60.8431 21.584H69.8191V23H59.5471ZM77.9779 23.12C76.7779 23.12 75.6979 22.848 74.7379 22.304C73.7939 21.76 73.0499 21.008 72.5059 20.048C71.9619 19.072 71.6899 17.952 71.6899 16.688C71.6899 15.408 71.9619 14.288 72.5059 13.328C73.0499 12.368 73.7939 11.624 74.7379 11.096C75.6979 10.552 76.7779 10.28 77.9779 10.28C79.0819 10.28 80.0659 10.528 80.9299 11.024C81.8099 11.52 82.5059 12.248 83.0179 13.208C83.5459 14.152 83.8099 15.312 83.8099 16.688C83.8099 18.048 83.5539 19.208 83.0419 20.168C82.5299 21.128 81.8339 21.864 80.9539 22.376C80.0899 22.872 79.0979 23.12 77.9779 23.12ZM78.0979 21.608C78.9939 21.608 79.7939 21.408 80.4979 21.008C81.2179 20.592 81.7779 20.016 82.1779 19.28C82.5939 18.528 82.8019 17.664 82.8019 16.688C82.8019 15.696 82.5939 14.832 82.1779 14.096C81.7779 13.36 81.2179 12.792 80.4979 12.392C79.7939 11.976 78.9939 11.768 78.0979 11.768C77.2179 11.768 76.4259 11.976 75.7219 12.392C75.0179 12.792 74.4579 13.36 74.0419 14.096C73.6259 14.832 73.4179 15.696 73.4179 16.688C73.4179 17.664 73.6259 18.528 74.0419 19.28C74.4579 20.016 75.0179 20.592 75.7219 21.008C76.4259 21.408 77.2179 21.608 78.0979 21.608ZM82.8499 23V19.208L83.0179 16.664L82.7779 14.12V5.192H84.4819V23H82.8499ZM89.2276 23V10.4H90.9316V23H89.2276ZM90.0916 7.616C89.7396 7.616 89.4436 7.496 89.2036 7.256C88.9636 7.016 88.8436 6.728 88.8436 6.392C88.8436 6.056 88.9636 5.776 89.2036 5.552C89.4436 5.312 89.7396 5.192 90.0916 5.192C90.4436 5.192 90.7396 5.304 90.9796 5.528C91.2196 5.752 91.3396 6.032 91.3396 6.368C91.3396 6.72 91.2196 7.016 90.9796 7.256C90.7556 7.496 90.4596 7.616 90.0916 7.616ZM102.105 10.28C103.129 10.28 104.025 10.48 104.793 10.88C105.577 11.264 106.185 11.856 106.617 12.656C107.065 13.456 107.289 14.464 107.289 15.68V23H105.585V15.848C105.585 14.52 105.249 13.52 104.577 12.848C103.921 12.16 102.993 11.816 101.793 11.816C100.897 11.816 100.113 12 99.4409 12.368C98.7849 12.72 98.2729 13.24 97.9049 13.928C97.5529 14.6 97.3769 15.416 97.3769 16.376V23H95.6729V10.4H97.3049V13.856L97.0409 13.208C97.4409 12.296 98.0809 11.584 98.9609 11.072C99.8409 10.544 100.889 10.28 102.105 10.28ZM112.06 23.12C111.708 23.12 111.404 22.992 111.148 22.736C110.908 22.48 110.788 22.168 110.788 21.8C110.788 21.416 110.908 21.104 111.148 20.864C111.404 20.624 111.708 20.504 112.06 20.504C112.412 20.504 112.708 20.624 112.948 20.864C113.204 21.104 113.332 21.416 113.332 21.8C113.332 22.168 113.204 22.48 112.948 22.736C112.708 22.992 112.412 23.12 112.06 23.12ZM125.108 23V20.216L125.036 19.76V15.104C125.036 14.032 124.732 13.208 124.124 12.632C123.532 12.056 122.644 11.768 121.46 11.768C120.644 11.768 119.868 11.904 119.132 12.176C118.396 12.448 117.772 12.808 117.26 13.256L116.492 11.984C117.132 11.44 117.9 11.024 118.796 10.736C119.692 10.432 120.636 10.28 121.628 10.28C123.26 10.28 124.516 10.688 125.396 11.504C126.292 12.304 126.74 13.528 126.74 15.176V23H125.108ZM120.764 23.12C119.82 23.12 118.996 22.968 118.292 22.664C117.604 22.344 117.076 21.912 116.708 21.368C116.34 20.808 116.156 20.168 116.156 19.448C116.156 18.792 116.308 18.2 116.612 17.672C116.932 17.128 117.444 16.696 118.148 16.376C118.868 16.04 119.828 15.872 121.028 15.872H125.372V17.144H121.076C119.86 17.144 119.012 17.36 118.532 17.792C118.068 18.224 117.836 18.76 117.836 19.4C117.836 20.12 118.116 20.696 118.676 21.128C119.236 21.56 120.02 21.776 121.028 21.776C121.988 21.776 122.812 21.56 123.5 21.128C124.204 20.68 124.716 20.04 125.036 19.208L125.42 20.384C125.1 21.216 124.54 21.88 123.74 22.376C122.956 22.872 121.964 23.12 120.764 23.12ZM131.368 23V10.4H133.072V23H131.368ZM132.232 7.616C131.88 7.616 131.584 7.496 131.344 7.256C131.104 7.016 130.984 6.728 130.984 6.392C130.984 6.056 131.104 5.776 131.344 5.552C131.584 5.312 131.88 5.192 132.232 5.192C132.584 5.192 132.88 5.304 133.12 5.528C133.36 5.752 133.48 6.032 133.48 6.368C133.48 6.72 133.36 7.016 133.12 7.256C132.896 7.496 132.6 7.616 132.232 7.616Z" fill="#FEFEFE"/>
</svg>
