<svg width="32" height="32" viewBox="0 0 32 32" fill="none" xmlns="http://www.w3.org/2000/svg">
<path d="M22.2137 25.6472L23.2135 25.6277L22.2137 25.6472ZM21.9189 26.376L21.2139 25.6668L21.9189 26.376ZM22.2137 6.35308L23.2135 6.37266L22.2137 6.35308ZM21.9189 5.62434L22.624 4.91518L21.9189 5.62434ZM18.334 16.0002C18.334 13.2723 19.4626 10.8097 21.281 9.05097L19.8906 7.61337C17.6987 9.73334 16.334 12.7082 16.334 16.0002H18.334ZM21.281 22.9494C19.4626 21.1906 18.334 18.7281 18.334 16.0002H16.334C16.334 19.2921 17.6987 22.267 19.8906 24.387L21.281 22.9494ZM20.0007 25.6668C14.6619 25.6668 10.334 21.3389 10.334 16.0002H8.33398C8.33398 22.4435 13.5573 27.6668 20.0007 27.6668V25.6668ZM10.334 16.0002C10.334 10.6614 14.6619 6.3335 20.0007 6.3335V4.3335C13.5573 4.3335 8.33398 9.55684 8.33398 16.0002H10.334ZM19.8906 24.387C20.445 24.9232 20.811 25.2784 21.046 25.5496C21.32 25.8657 21.2176 25.8549 21.2139 25.6668L23.2135 25.6277C23.2017 25.0272 22.8254 24.549 22.5574 24.2398C22.2505 23.8856 21.8065 23.4576 21.281 22.9494L19.8906 24.387ZM20.0007 27.6668C20.5169 27.6668 20.9938 27.6685 21.3739 27.6236C21.7599 27.5779 22.2404 27.4665 22.624 27.0851L21.2139 25.6668C21.305 25.5763 21.3682 25.6103 21.1391 25.6374C20.9042 25.6652 20.5682 25.6668 20.0007 25.6668V27.6668ZM21.2139 25.6668L22.624 27.0851C23.0112 26.7002 23.2242 26.1735 23.2135 25.6277L21.2139 25.6668ZM21.281 9.05097C21.8065 8.54277 22.2505 8.11468 22.5574 7.76055C22.8254 7.45134 23.2017 6.97316 23.2135 6.37266L21.2139 6.3335C21.2176 6.14542 21.32 6.13458 21.046 6.45069C20.811 6.72189 20.445 7.07712 19.8906 7.61337L21.281 9.05097ZM20.0007 6.3335C20.5682 6.3335 20.9042 6.33516 21.1391 6.36294C21.3682 6.39001 21.305 6.42404 21.2139 6.3335L22.624 4.91518C22.2404 4.53379 21.76 4.4224 21.3739 4.37677C20.9938 4.33183 20.5169 4.3335 20.0007 4.3335V6.3335ZM23.2135 6.37266C23.2242 5.82679 23.0112 5.30012 22.624 4.91518L21.2139 6.3335L23.2135 6.37266Z" fill="#E0E0E0"/>
</svg>
