<svg width="16" height="16" viewBox="0 0 16 16" fill="none" xmlns="http://www.w3.org/2000/svg">
<path fill-rule="evenodd" clip-rule="evenodd" d="M11.893 1.33334H4.10829C3.75687 1.33333 3.45368 1.33332 3.20397 1.35372C2.9404 1.37525 2.67826 1.4228 2.42601 1.55132C2.04968 1.74307 1.74372 2.04903 1.55197 2.42536C1.42344 2.67761 1.3759 2.93976 1.35437 3.20332C1.33396 3.45303 1.33397 3.75619 1.33398 4.10762V11.8924C1.33397 12.2438 1.33396 12.547 1.35437 12.7967C1.3759 13.0603 1.42344 13.3224 1.55197 13.5747C1.74372 13.951 2.04968 14.2569 2.42601 14.4487C2.67826 14.5772 2.9404 14.6248 3.20397 14.6463C3.45368 14.6667 3.75685 14.6667 4.10828 14.6667H11.893C12.2445 14.6667 12.5476 14.6667 12.7973 14.6463C13.0609 14.6248 13.323 14.5772 13.5753 14.4487C13.9516 14.2569 14.2576 13.951 14.4493 13.5747C14.5779 13.3224 14.6254 13.0603 14.6469 12.7967C14.6673 12.547 14.6673 12.2438 14.6673 11.8924V4.10763C14.6673 3.7562 14.6673 3.45303 14.6469 3.20332C14.6254 2.93976 14.5779 2.67761 14.4493 2.42536C14.2576 2.04903 13.9516 1.74307 13.5753 1.55132C13.323 1.4228 13.0609 1.37525 12.7973 1.35372C12.5476 1.33332 12.2444 1.33333 11.893 1.33334ZM9.15503 8.79646L9.76666 10.6313C9.84566 10.8684 9.88516 10.9869 9.86147 11.0812C9.84074 11.1638 9.7892 11.2353 9.71743 11.281C9.63543 11.3333 9.51052 11.3333 9.26069 11.3333H6.74061C6.49079 11.3333 6.36587 11.3333 6.28388 11.281C6.2121 11.2353 6.16056 11.1638 6.13983 11.0812C6.11615 10.9869 6.15565 10.8684 6.23465 10.6313L6.84628 8.79646C6.8933 8.65538 6.91682 8.58482 6.9156 8.52711C6.91431 8.46642 6.9062 8.4346 6.87825 8.38071C6.85167 8.32947 6.78062 8.26336 6.63852 8.13113C6.24611 7.76597 6.00065 7.24499 6.00065 6.66667C6.00065 5.5621 6.89608 4.66667 8.00065 4.66667C9.10522 4.66667 10.0007 5.5621 10.0007 6.66667C10.0007 7.24499 9.7552 7.76597 9.36278 8.13113C9.22068 8.26336 9.14963 8.32947 9.12306 8.38071C9.09511 8.4346 9.08699 8.46642 9.0857 8.52712C9.08448 8.58482 9.108 8.65538 9.15503 8.79646Z" fill="#6C7275"/>
</svg>
