<svg width="25" height="24" viewBox="0 0 25 24" fill="none" xmlns="http://www.w3.org/2000/svg">
<path fill-rule="evenodd" clip-rule="evenodd" d="M4.68934 2.68934C4.97064 2.40804 5.35217 2.25 5.75 2.25H14.75C14.9489 2.25 15.1397 2.32902 15.2803 2.46967L20.5303 7.71967C20.671 7.86032 20.75 8.05108 20.75 8.25V12C20.75 12.4142 20.4142 12.75 20 12.75C19.5858 12.75 19.25 12.4142 19.25 12V8.56066L14.4393 3.75L5.75 3.75L5.75 12C5.75 12.4142 5.41421 12.75 5 12.75C4.58579 12.75 4.25 12.4142 4.25 12V3.75C4.25 3.35217 4.40804 2.97064 4.68934 2.68934Z" fill="#FEFEFE"/>
<path fill-rule="evenodd" clip-rule="evenodd" d="M14.75 2.25C15.1642 2.25 15.5 2.58579 15.5 3V7.5H20C20.4142 7.5 20.75 7.83578 20.75 8.24999C20.75 8.66421 20.4142 8.99999 20 8.99999H14.75C14.3358 8.99999 14 8.66421 14 8.24999V3C14 2.58579 14.3358 2.25 14.75 2.25Z" fill="#FEFEFE"/>
<path fill-rule="evenodd" clip-rule="evenodd" d="M4.25 15.75C4.25 15.3358 4.58579 15 5 15H6.5C7.09674 15 7.66903 15.2371 8.09099 15.659C8.51294 16.081 8.75 16.6533 8.75 17.25C8.75 17.8467 8.51294 18.419 8.09099 18.841C7.66903 19.2629 7.09674 19.5 6.5 19.5H5.75V20.25C5.75 20.6642 5.41421 21 5 21C4.58579 21 4.25 20.6642 4.25 20.25V15.75ZM5.75 18H6.5C6.69891 18 6.88967 17.921 7.03033 17.7803C7.17098 17.6397 7.25 17.4489 7.25 17.25C7.25 17.0511 7.17098 16.8603 7.03033 16.7197C6.88967 16.579 6.69891 16.5 6.5 16.5H5.75V18Z" fill="#FEFEFE"/>
<path fill-rule="evenodd" clip-rule="evenodd" d="M17.375 15.75C17.375 15.3358 17.7108 15 18.125 15H20.75C21.1642 15 21.5 15.3358 21.5 15.75C21.5 16.1642 21.1642 16.5 20.75 16.5H18.875V20.25C18.875 20.6642 18.5392 21 18.125 21C17.7108 21 17.375 20.6642 17.375 20.25V15.75Z" fill="#FEFEFE"/>
<path fill-rule="evenodd" clip-rule="evenodd" d="M17.375 18.375C17.375 17.9608 17.7108 17.625 18.125 17.625H20.375C20.7892 17.625 21.125 17.9608 21.125 18.375C21.125 18.7892 20.7892 19.125 20.375 19.125H18.125C17.7108 19.125 17.375 18.7892 17.375 18.375Z" fill="#FEFEFE"/>
<path fill-rule="evenodd" clip-rule="evenodd" d="M10.4375 15.75C10.4375 15.3358 10.7733 15 11.1875 15H12.5C13.2956 15 14.0587 15.3161 14.6213 15.8787C15.1839 16.4413 15.5 17.2043 15.5 18C15.5 18.7956 15.1839 19.5587 14.6213 20.1213C14.0587 20.6839 13.2956 21 12.5 21H11.1875C10.7733 21 10.4375 20.6642 10.4375 20.25V15.75ZM11.9375 16.5V19.5H12.5C12.8978 19.5 13.2794 19.342 13.5607 19.0607C13.842 18.7794 14 18.3978 14 18C14 17.6022 13.842 17.2206 13.5607 16.9393C13.2794 16.658 12.8978 16.5 12.5 16.5H11.9375Z" fill="#FEFEFE"/>
</svg>
