<svg xmlns="http://www.w3.org/2000/svg" viewBox="0 0 22.62791 21.58404"><title>rating-star-half</title><path d="M8.04634,7.23364s-4.28116.47418-7.13707.7912a.68191.68191,0,0,0-.57037.4647.67059.67059,0,0,0,.18967.70585c2.12161,1.936,5.30945,4.83527,5.30945,4.83527-.00271,0-.8752,4.21748-1.45505,7.03139a.6826.6826,0,0,0,.26554.68553.6725.6725,0,0,0,.72888.03793c2.49825-1.41983,6.24019-3.555,6.24019-3.555s3.7433,2.13516,6.23748,3.55634a.67522.67522,0,0,0,.99713-.72346c-.57985-2.81527-1.451-7.03275-1.451-7.03275s3.18784-2.89927,5.30945-4.8312a.68344.68344,0,0,0,.18967-.70991.67549.67549,0,0,0-.569-.462c-2.85591-.31973-7.13842-.79391-7.13842-.79391S13.41811,3.30744,12.23537.69a.68516.68516,0,0,0-.61779-.39831A.67558.67558,0,0,0,11.00386.69C9.81976,3.30744,8.04634,7.23364,8.04634,7.23364Z" transform="translate(-0.30496 -0.29167)" style="fill:#e1e3e7"/><path d="M11.61577.29167v17.94s-3.74,2.13-6.24,3.55a.66834.66834,0,0,1-.73-.03.69052.69052,0,0,1-.26-.69c.58-2.81,1.45-7.03,1.45-7.03s-3.19-2.9-5.31006-4.84a.67039.67039,0,0,1-.18994-.7.70353.70353,0,0,1,.56995-.47c2.86-.31,7.14-.79,7.14-.79s1.77-3.92,2.96-6.54A.67441.67441,0,0,1,11.61577.29167Z" transform="translate(-0.30496 -0.29167)" style="fill:#ffc107"/></svg>