<svg width="30" height="30" viewBox="0 0 30 30" fill="none" xmlns="http://www.w3.org/2000/svg">
<g id="Road_finish_fill">
<path id="Vector 437" d="M15 21.25L15 17.5" stroke="#222222" stroke-width="2.5" stroke-linecap="round"/>
<path id="Rectangle 1" d="M15 5L15 9.28571L15 12.5" stroke="#222222" stroke-width="2.5" stroke-linecap="round" stroke-linejoin="round"/>
<path id="Rectangle 4215" d="M13.75 3.75V8.75C13.75 9.44036 14.3096 10 15 10H22.2411C22.7979 10 23.0768 9.32679 22.6831 8.93306L20.221 6.47097C20.0989 6.34893 20.0989 6.15107 20.221 6.02903L22.6831 3.56694C23.0768 3.17321 22.7979 2.5 22.2411 2.5H15C14.3096 2.5 13.75 3.05964 13.75 3.75Z" fill="#222222"/>
<path id="Rectangle 4216" d="M23.5 27.5H6.5C5.09987 27.5 4.3998 27.5 3.86502 27.2275C3.39462 26.9878 3.01217 26.6054 2.77248 26.135C2.5 25.6002 2.5 24.9001 2.5 23.5V16.5C2.5 15.0999 2.5 14.3998 2.77248 13.865C3.01217 13.3946 3.39462 13.0122 3.86502 12.7725C4.3998 12.5 5.09987 12.5 6.5 12.5H8.7802C9.19833 12.5 9.40739 12.5 9.55383 12.5859C9.68227 12.6612 9.77959 12.7799 9.82828 12.9207C9.88378 13.0811 9.84278 13.2861 9.76078 13.6961L7.97845 22.6078C7.81444 23.4278 7.73244 23.8378 7.84345 24.1587C7.94081 24.4401 8.13546 24.6775 8.39234 24.8282C8.68522 25 9.10335 25 9.93961 25H20.0604C20.8967 25 21.3148 25 21.6077 24.8282C21.8645 24.6775 22.0592 24.4401 22.1566 24.1587C22.2676 23.8378 22.1856 23.4278 22.0216 22.6078L20.2392 13.6961C20.1572 13.2861 20.1162 13.0811 20.1717 12.9207C20.2204 12.7799 20.3177 12.6612 20.4462 12.5859C20.5926 12.5 20.8017 12.5 21.2198 12.5H23.5C24.9001 12.5 25.6002 12.5 26.135 12.7725C26.6054 13.0122 26.9878 13.3946 27.2275 13.865C27.5 14.3998 27.5 15.0999 27.5 16.5V23.5C27.5 24.9001 27.5 25.6002 27.2275 26.135C26.9878 26.6054 26.6054 26.9878 26.135 27.2275C25.6002 27.5 24.9001 27.5 23.5 27.5Z" fill="#222222"/>
</g>
</svg>
