<svg width="16" height="16" viewBox="0 0 16 16" fill="none" xmlns="http://www.w3.org/2000/svg">
<path d="M9.42475 2.24095L8.42984 2.34178L8.42986 2.34199L9.42475 2.24095ZM9.42344 2.22803L10.4184 2.1272L10.4179 2.12274L9.42344 2.22803ZM9.4271 2.26411L8.43219 2.36515L8.43295 2.3721L9.4271 2.26411ZM11.0479 2.93546L11.6745 3.7148L11.6799 3.7104L11.0479 2.93546ZM11.0659 2.92075L11.6979 3.69569L11.6981 3.69553L11.0659 2.92075ZM11.076 2.91255L10.4472 2.13491L10.4437 2.13776L11.076 2.91255ZM12.4077 2.97897L13.1139 2.27093L13.1106 2.26776L12.4077 2.97897ZM12.4168 2.98813L13.124 2.28102L13.123 2.2801L12.4168 2.98813ZM13.0125 3.58377L13.7205 2.8776L13.7196 2.87667L13.0125 3.58377ZM13.0217 3.59297L13.7329 2.88999L13.7297 2.8868L13.0217 3.59297ZM13.0881 4.92467L13.8629 5.55692L13.8657 5.55339L13.0881 4.92467ZM13.0799 4.93473L12.3051 4.30248L12.3049 4.30272L13.0799 4.93473ZM13.0651 4.95278L12.2902 4.32076L12.2858 4.32618L13.0651 4.95278ZM13.7365 6.57354L13.6285 7.56772L13.6354 7.56842L13.7365 6.57354ZM13.7597 6.5759L13.6586 7.57078L13.6589 7.5708L13.7597 6.5759ZM13.7726 6.57721L13.8779 5.58276L13.8734 5.5823L13.7726 6.57721ZM14.6673 7.56582L15.6673 7.5645L15.6673 7.55999L14.6673 7.56582ZM14.6673 7.57882H15.6673L15.6673 7.5775L14.6673 7.57882ZM14.6673 8.42125L15.6673 8.42258V8.42125H14.6673ZM14.6673 8.43411L15.6673 8.43987L15.6673 8.43544L14.6673 8.43411ZM13.7726 9.42279L13.8734 10.4177L13.8778 10.4172L13.7726 9.42279ZM13.7597 9.42409L13.6589 8.42918L13.6587 8.4292L13.7597 9.42409ZM13.7369 9.42641L13.6358 8.4315L13.629 8.43224L13.7369 9.42641ZM13.0655 11.0473L12.2862 11.674L12.2906 11.6794L13.0655 11.0473ZM13.08 11.0651L12.3051 11.6971L12.3052 11.6973L13.08 11.0651ZM13.0881 11.075L13.8656 10.4462L13.8628 10.4427L13.0881 11.075ZM13.0216 12.4068L13.7296 13.113L13.7328 13.1098L13.0216 12.4068ZM13.0126 12.4158L13.7197 13.1229L13.7206 13.1221L13.0126 12.4158ZM12.4169 13.0116L13.1231 13.7196L13.124 13.7187L12.4169 13.0116ZM12.4077 13.0207L13.1107 13.7319L13.1139 13.7288L12.4077 13.0207ZM11.076 13.0871L10.4438 13.862L10.4473 13.8648L11.076 13.0871ZM11.0659 13.0789L11.6981 12.3041L11.698 12.304L11.0659 13.0789ZM11.0479 13.0642L11.6799 12.2893L11.6745 12.2849L11.0479 13.0642ZM9.42713 13.7356L8.43295 13.6276L8.43225 13.6345L9.42713 13.7356ZM9.42476 13.7589L8.42988 13.6578L8.42986 13.658L9.42476 13.7589ZM9.42343 13.772L10.4179 13.8774L10.4183 13.8729L9.42343 13.772ZM8.4349 14.6666L8.43627 15.6667L8.4408 15.6666L8.4349 14.6666ZM8.42174 14.6667V15.6667L8.42312 15.6667L8.42174 14.6667ZM7.57948 14.6667L7.57816 15.6667H7.57948V14.6667ZM7.56648 14.6666L7.56064 15.6666L7.56516 15.6666L7.56648 14.6666ZM6.57787 13.772L5.58295 13.8728L5.58343 13.8773L6.57787 13.772ZM6.57655 13.759L7.57146 13.6582L7.57143 13.658L6.57655 13.759ZM6.5742 13.7358L7.5691 13.6348L7.56835 13.6278L6.5742 13.7358ZM4.95345 13.0645L4.32683 12.2851L4.3214 12.2896L4.95345 13.0645ZM4.93537 13.0792L4.30332 12.3043L4.30314 12.3044L4.93537 13.0792ZM4.92528 13.0875L5.554 13.8651L5.55751 13.8622L4.92528 13.0875ZM3.5936 13.021L2.88742 13.7291L2.89063 13.7323L3.5936 13.021ZM3.58439 13.0119L2.87728 13.719L2.87821 13.7199L3.58439 13.0119ZM2.98876 12.4162L2.28075 13.1224L2.28166 13.1233L2.98876 12.4162ZM2.97958 12.407L2.26836 13.11L2.27157 13.1132L2.97958 12.407ZM2.91317 11.0753L2.13838 10.4431L2.13553 10.4466L2.91317 11.0753ZM2.92139 11.0653L3.69617 11.6975L3.69633 11.6973L2.92139 11.0653ZM2.93611 11.0472L3.71107 11.6793L3.71544 11.6738L2.93611 11.0472ZM2.26477 9.42644L2.37276 8.43227L2.36582 8.43156L2.26477 9.42644ZM2.24161 9.42409L2.34266 8.42921L2.34241 8.42918L2.24161 9.42409ZM2.22869 9.42278L2.1234 10.4172L2.12789 10.4177L2.22869 9.42278ZM1.334 8.43416L0.333992 8.43546L0.334018 8.43998L1.334 8.43416ZM1.33398 8.42118H0.333984L0.333985 8.42248L1.33398 8.42118ZM1.33398 7.57889L0.333984 7.57757V7.57889H1.33398ZM1.334 7.56576L0.334009 7.55988L0.334003 7.56444L1.334 7.56576ZM2.22863 6.57721L2.1278 5.5823L2.12327 5.58278L2.22863 6.57721ZM2.24169 6.57589L2.34251 7.5708L2.34275 7.57077L2.24169 6.57589ZM2.26512 6.57351L2.36618 7.56842L2.3732 7.56765L2.26512 6.57351ZM2.93642 4.95283L3.71584 4.32628L3.71138 4.32082L2.93642 4.95283ZM2.9215 4.93454L3.69646 4.30252L3.6963 4.30233L2.9215 4.93454ZM2.91314 4.92429L2.13544 5.55294L2.13834 5.5565L2.91314 4.92429ZM2.97955 3.59274L2.2715 2.88656L2.26827 2.88983L2.97955 3.59274ZM2.98887 3.58339L2.28177 2.87628L2.28083 2.87722L2.98887 3.58339ZM3.58442 2.98784L2.87823 2.27981L2.87731 2.28073L3.58442 2.98784ZM3.59363 2.97865L2.89066 2.26742L2.88745 2.27062L3.59363 2.97865ZM4.92531 2.91223L5.55755 2.13745L5.55403 2.13459L4.92531 2.91223ZM4.93545 2.9205L4.30322 3.69528L4.3034 3.69543L4.93545 2.9205ZM4.95339 2.93513L4.32132 3.71008L4.3267 3.7144L4.95339 2.93513ZM6.57424 2.26375L7.56843 2.37165L7.56912 2.36479L6.57424 2.26375ZM6.57656 2.24087L7.57145 2.3419L7.57147 2.34168L6.57656 2.24087ZM6.57786 2.2281L5.5834 2.12288L5.58295 2.12729L6.57786 2.2281ZM7.56655 1.33334L7.56527 0.333336L7.5608 0.333361L7.56655 1.33334ZM7.57938 1.33333V0.333327L7.57809 0.333329L7.57938 1.33333ZM8.42183 1.33333L8.42314 0.333328H8.42183V1.33333ZM8.43482 1.33335L8.44064 0.333352L8.43612 0.333346L8.43482 1.33335ZM10.4197 2.14012L10.4183 2.1272L8.42853 2.32886L8.42984 2.34178L10.4197 2.14012ZM10.422 2.16308L10.4196 2.13992L8.42986 2.34199L8.43222 2.36514L10.422 2.16308ZM10.4213 2.15613V2.15613L8.43295 2.3721C8.60359 3.94309 10.443 4.70498 11.6745 3.71478L10.4213 2.15613ZM10.4339 2.1458L10.4158 2.16051L11.6799 3.7104L11.6979 3.69569L10.4339 2.1458ZM10.4437 2.13776L10.4337 2.14597L11.6981 3.69553L11.7082 3.68733L10.4437 2.13776ZM13.1106 2.26776C12.3862 1.5517 11.2393 1.4945 10.4472 2.13492L11.7047 3.69017L11.7047 3.69017L13.1106 2.26776ZM13.123 2.2801L13.1138 2.27094L11.7015 3.68699L11.7107 3.69615L13.123 2.2801ZM13.7196 2.87667L13.124 2.28102L11.7097 3.69523L12.3054 4.29088L13.7196 2.87667ZM13.7297 2.8868L13.7205 2.8776L12.3044 4.28994L12.3136 4.29914L13.7297 2.8868ZM13.8657 5.55339C14.5061 4.76129 14.4489 3.61443 13.7329 2.88999L12.3104 4.29595H12.3104L13.8657 5.55339ZM13.8546 5.56698L13.8628 5.55692L12.3133 4.29242L12.3051 4.30248L13.8546 5.56698ZM13.8401 5.58479L13.8548 5.56674L12.3049 4.30272L12.2902 4.32077L13.8401 5.58479ZM13.8445 5.57939L13.8445 5.57939L12.2858 4.32618C11.2956 5.55769 12.0575 7.39704 13.6285 7.56769L13.8445 5.57939ZM13.8607 5.58102L13.8376 5.57866L13.6354 7.56842L13.6586 7.57078L13.8607 5.58102ZM13.8734 5.5823L13.8605 5.58099L13.6589 7.5708L13.6718 7.57212L13.8734 5.5823ZM15.6673 7.55999C15.6613 6.54142 14.8908 5.69003 13.8779 5.58277L13.6673 7.57165V7.57165L15.6673 7.55999ZM15.6673 7.5775L15.6673 7.5645L13.6673 7.56714L13.6673 7.58014L15.6673 7.5775ZM15.6673 8.42125V7.57882H13.6673V8.42125H15.6673ZM15.6673 8.43544L15.6673 8.42258L13.6673 8.41991L13.6673 8.43277L15.6673 8.43544ZM13.8778 10.4172C14.8908 10.31 15.6614 9.45854 15.6673 8.43987L13.6673 8.42834L13.6673 8.42834L13.8778 10.4172ZM13.8605 10.419L13.8734 10.4177L13.6717 8.42788L13.6589 8.42918L13.8605 10.419ZM13.8379 10.4213L13.8608 10.419L13.6587 8.4292L13.6358 8.43153L13.8379 10.4213ZM13.8447 10.4206L13.8447 10.4206L13.629 8.43224C12.0578 8.60271 11.2957 10.4424 12.2862 11.674L13.8447 10.4206ZM13.8549 10.433L13.8404 10.4152L12.2906 11.6794L12.3051 11.6971L13.8549 10.433ZM13.8628 10.4427L13.8547 10.4328L12.3052 11.6973L12.3133 11.7072L13.8628 10.4427ZM13.7328 13.1098C14.449 12.3854 14.5062 11.2383 13.8656 10.4462L12.3105 11.7037L13.7328 13.1098ZM13.7206 13.1221L13.7296 13.113L12.3136 11.7006L12.3046 11.7096L13.7206 13.1221ZM13.124 13.7187L13.7197 13.1229L12.3055 11.7087L11.7098 12.3045L13.124 13.7187ZM13.1139 13.7288L13.1231 13.7196L11.7107 12.3035L11.7015 12.3127L13.1139 13.7288ZM10.4473 13.8648C11.2394 14.5052 12.3862 14.448 13.1107 13.7319L11.7047 12.3095L11.7047 12.3095L10.4473 13.8648ZM10.4337 13.8537L10.4438 13.8619L11.7082 12.3123L11.6981 12.3041L10.4337 13.8537ZM10.4159 13.8392L10.4339 13.8539L11.698 12.304L11.6799 12.2893L10.4159 13.8392ZM10.4213 13.8436L11.6745 12.2849C10.443 11.2947 8.60362 12.0566 8.43298 13.6276L10.4213 13.8436ZM10.4196 13.8599L10.422 13.8366L8.43225 13.6345L8.42988 13.6578L10.4196 13.8599ZM10.4183 13.8729L10.4197 13.8597L8.42986 13.658L8.42853 13.6712L10.4183 13.8729ZM8.4408 15.6666C9.45926 15.6606 10.3105 14.8902 10.4179 13.8774L8.429 13.6667L8.429 13.6667L8.4408 15.6666ZM8.42312 15.6667L8.43627 15.6666L8.43352 13.6666L8.42036 13.6667L8.42312 15.6667ZM7.57948 15.6667H8.42174V13.6667H7.57948V15.6667ZM7.56516 15.6666L7.57816 15.6667L7.5808 13.6667L7.5678 13.6666L7.56516 15.6666ZM5.58343 13.8773C5.69068 14.8902 6.54208 15.6607 7.56064 15.6666L7.57231 13.6667H7.57231L5.58343 13.8773ZM5.58165 13.8598L5.58296 13.8728L7.57277 13.6712L7.57146 13.6582L5.58165 13.8598ZM5.57932 13.8369L5.58167 13.8601L7.57143 13.658L7.56908 13.6348L5.57932 13.8369ZM5.58005 13.8438H5.58005L7.56835 13.6278C7.39768 12.0569 5.55836 11.295 4.32685 12.2851L5.58005 13.8438ZM5.56741 13.8542L5.58549 13.8394L4.3214 12.2896L4.30332 12.3043L5.56741 13.8542ZM5.55751 13.8622L5.56759 13.854L4.30314 12.3044L4.29306 12.3127L5.55751 13.8622ZM2.89063 13.7323C3.61507 14.4483 4.76191 14.5055 5.554 13.8651L4.29657 12.3098H4.29657L2.89063 13.7323ZM2.87821 13.7199L2.88742 13.7291L4.29978 12.313L4.29057 12.3038L2.87821 13.7199ZM2.28166 13.1233L2.87728 13.719L4.2915 12.3047L3.69587 11.7091L2.28166 13.1233ZM2.27157 13.1132L2.28075 13.1224L3.69678 11.71L3.6876 11.7008L2.27157 13.1132ZM2.13553 10.4466C1.49513 11.2387 1.55233 12.3856 2.26837 13.11L3.6908 11.7041L3.6908 11.7041L2.13553 10.4466ZM2.14661 10.433L2.13838 10.4431L3.68795 11.7076L3.69617 11.6975L2.14661 10.433ZM2.16117 10.4152L2.14645 10.4332L3.69633 11.6973L3.71105 11.6792L2.16117 10.4152ZM2.15678 10.4206L3.71544 11.6738C4.70563 10.4423 3.94374 8.60294 2.37276 8.43229L2.15678 10.4206ZM2.14055 10.419L2.16372 10.4213L2.36582 8.43156L2.34266 8.42921L2.14055 10.419ZM2.12789 10.4177L2.1408 10.419L2.34241 8.42918L2.32949 8.42788L2.12789 10.4177ZM0.334018 8.43998C0.339946 9.45856 1.11046 10.31 2.1234 10.4172L2.33398 8.42834L2.33398 8.42834L0.334018 8.43998ZM0.333985 8.42248L0.334002 8.43546L2.334 8.43286L2.33398 8.41988L0.333985 8.42248ZM0.333984 7.57889V8.42118H2.33398V7.57889H0.333984ZM0.334003 7.56444L0.333985 7.57757L2.33398 7.58021L2.334 7.56708L0.334003 7.56444ZM2.12327 5.58278C1.11044 5.69009 0.340015 6.54139 0.334019 7.55988L2.33398 7.57165H2.33398L2.12327 5.58278ZM2.14087 5.58099L2.1278 5.58231L2.32945 7.57212L2.34251 7.5708L2.14087 5.58099ZM2.16406 5.57863L2.14063 5.58101L2.34275 7.57077L2.36618 7.56839L2.16406 5.57863ZM2.15703 5.57937L2.3732 7.56765C3.94399 7.39687 4.70577 5.55778 3.71582 4.3263L2.15703 5.57937ZM2.14655 5.56656L2.16147 5.58485L3.71138 4.32082L3.69646 4.30252L2.14655 5.56656ZM2.13834 5.5565L2.14671 5.56675L3.6963 4.30233L3.68793 4.29207L2.13834 5.5565ZM2.26827 2.88983C1.55239 3.61423 1.4952 4.76089 2.13544 5.55293L3.69083 4.29564L2.26827 2.88983ZM2.28083 2.87722L2.27151 2.88656L3.68759 4.29891L3.69691 4.28956L2.28083 2.87722ZM2.87731 2.28073L2.28177 2.87628L3.69598 4.29049L4.29153 3.69495L2.87731 2.28073ZM2.88745 2.27062L2.87823 2.27981L4.29061 3.69587L4.29982 3.68668L2.88745 2.27062ZM5.55403 2.13459C4.76194 1.4942 3.6151 1.5514 2.89066 2.26743L4.2966 3.68987H4.2966L5.55403 2.13459ZM5.56768 2.14572L5.55755 2.13745L4.29308 3.68701L4.30322 3.69528L5.56768 2.14572ZM5.58543 2.1602L5.5675 2.14557L4.3034 3.69543L4.32134 3.71006L5.58543 2.1602ZM5.58008 2.15586L5.58008 2.15586L4.3267 3.7144C5.55826 4.70482 7.39789 3.94282 7.5684 2.37164L5.58008 2.15586ZM5.58168 2.13983L5.57936 2.16272L7.56912 2.36479L7.57145 2.3419L5.58168 2.13983ZM5.58295 2.12729L5.58166 2.14005L7.57147 2.34168L7.57276 2.32892L5.58295 2.12729ZM7.5608 0.333361C6.54211 0.33922 5.6906 1.10983 5.58341 2.12288L7.57231 2.33333V2.33333L7.5608 0.333361ZM7.57809 0.333329L7.56527 0.333346L7.56784 2.33334L7.58067 2.33333L7.57809 0.333329ZM8.42183 0.333328H7.57938V2.33333H8.42183V0.333328ZM8.43612 0.333346L8.42314 0.333329L8.42053 2.33333L8.43351 2.33334L8.43612 0.333346ZM10.4179 2.12274C10.3106 1.1098 9.45922 0.339292 8.44064 0.333362L8.429 2.33333V2.33333L10.4179 2.12274ZM9.66732 8C9.66732 8.92047 8.92113 9.66666 8.00065 9.66666V11.6667C10.0257 11.6667 11.6673 10.025 11.6673 8H9.66732ZM8.00065 6.33333C8.92113 6.33333 9.66732 7.07952 9.66732 8H11.6673C11.6673 5.97495 10.0257 4.33333 8.00065 4.33333V6.33333ZM6.33398 8C6.33398 7.07952 7.08018 6.33333 8.00065 6.33333V4.33333C5.97561 4.33333 4.33398 5.97495 4.33398 8H6.33398ZM8.00065 9.66666C7.08018 9.66666 6.33398 8.92047 6.33398 8H4.33398C4.33398 10.025 5.97561 11.6667 8.00065 11.6667V9.66666Z" fill="#6C7275"/>
</svg>
