<svg width="405" height="391" viewBox="0 0 405 391" fill="none" xmlns="http://www.w3.org/2000/svg">
<mask id="mask0_1170_85111" style="mask-type:luminance" maskUnits="userSpaceOnUse" x="-1" y="-1" width="406" height="392">
<path d="M404.038 -0.000976562H-0.00195312V290.225H72.4021C87.9092 347.753 140.059 390.064 202.018 390.064C263.978 390.064 316.127 347.753 331.634 290.225H404.038V-0.000976562Z" fill="white"/>
</mask>
<g mask="url(#mask0_1170_85111)">
<path d="M202.019 388.929C276.202 388.929 336.339 328.792 336.339 254.609C336.339 180.426 276.202 120.289 202.019 120.289C127.836 120.289 67.6992 180.426 67.6992 254.609C67.6992 328.792 127.836 388.929 202.019 388.929Z" fill="#AD00FF"/>
<path d="M77.0946 224.694C160.097 259.968 245.045 260.471 328.671 224.694C336.604 221.3 336.559 161.399 328.671 164.142C247.004 192.574 160.635 192.877 77.0946 164.142C67.1571 160.707 68.1255 220.861 77.0946 224.694Z" fill="#592D3D" stroke="#592D3D" stroke-width="5.65271" stroke-miterlimit="10"/>
<path d="M202.71 84.6543C135.582 84.6543 81.1621 139.07 81.1621 206.202V272.234C84.9924 276.485 91.4126 280.141 99.748 283.22L105.13 267.151L110.972 286.731C172.693 303.151 299.542 296.945 324.257 272.234V206.202C324.257 139.07 269.837 84.6543 202.71 84.6543Z" fill="#FEDC58"/>
<path d="M98.128 282.605C98.6613 282.811 99.1987 283.009 99.7441 283.219L105.13 267.151L110.972 286.73C129.243 291.579 153.215 294.468 178.56 295.47L189.583 284.876L95.2754 213.91C95.2754 213.91 92.7946 254.9 98.128 282.605Z" fill="#EDBF2E"/>
<path d="M249.373 223.345L259.599 292.339C273.66 290.585 286.516 288.189 297.22 285.175C297.22 285.175 310.589 270.27 309.147 213.911C307.704 157.551 249.373 223.345 249.373 223.345Z" fill="#EDBF2E"/>
<path d="M202.71 84.6543C135.582 84.6543 81.1621 139.07 81.1621 206.202V272.234C84.9924 276.485 91.4126 280.141 99.748 283.22L105.13 267.151L110.972 286.731C172.693 303.151 299.542 296.945 324.257 272.234V206.202C324.257 139.07 269.837 84.6543 202.71 84.6543Z" stroke="#592D3D" stroke-width="5.04706" stroke-miterlimit="10"/>
<path d="M246.463 306.553C283.134 306.553 275.554 352.71 275.905 404.04H246.463V306.553Z" fill="#FBE8B3"/>
<path d="M255.651 336.108L246.463 351.514L251.061 404.039H263.893C264.204 331.203 255.651 336.108 255.651 336.108Z" fill="#EDD494"/>
<path d="M94.2403 202.019C94.2403 142.496 142.495 94.2412 202.018 94.2412C261.541 94.2412 309.796 142.496 309.796 202.019C309.811 218.057 306.24 233.896 299.343 248.375C292.447 262.855 282.4 275.609 269.937 285.704C267.726 287.503 265.444 289.212 263.093 290.831C238.786 306.261 208.079 306.261 180.358 303.793C177.667 303.389 174.984 302.88 172.321 302.294C161.683 299.95 151.384 296.334 141.869 291.061C139.517 289.612 137.237 288.047 135.028 286.366C132.808 284.676 130.677 282.872 128.644 280.96C126.721 279.175 124.864 277.319 123.073 275.393C104.51 255.473 94.2044 229.247 94.2403 202.019Z" fill="#FBE8B3"/>
<path d="M108.934 256.354C109.217 256.839 109.495 257.324 109.786 257.801C109.96 258.092 110.142 258.375 110.324 258.666C110.59 259.098 110.857 259.53 111.132 259.954C111.326 260.262 111.536 260.561 111.722 260.86C111.988 261.264 112.255 261.668 112.53 262.072C112.736 262.379 112.934 262.686 113.16 262.993C113.427 263.397 113.693 263.769 113.968 264.156C114.186 264.468 114.412 264.775 114.635 265.086C114.857 265.397 115.176 265.833 115.443 266.205C115.709 266.577 115.907 266.823 116.142 267.13C116.376 267.437 116.695 267.857 116.978 268.221C117.261 268.585 117.459 268.831 117.701 269.134C117.944 269.437 118.271 269.845 118.558 270.197C118.845 270.548 119.055 270.799 119.305 271.098C119.556 271.397 119.887 271.793 120.182 272.136C120.477 272.48 120.695 272.73 120.954 273.025L121.851 274.035C122.114 274.33 122.38 274.617 122.659 274.908C123.006 275.288 123.358 275.664 123.709 276.035L124.198 276.552C124.72 277.094 125.245 277.635 125.778 278.169L125.883 278.278C126.404 278.795 126.934 279.308 127.463 279.817L128.101 280.423C128.485 280.783 128.869 281.142 129.257 281.498L129.726 281.926C130.13 282.306 130.57 282.678 130.994 283.049C132.314 284.2 133.661 285.303 135.035 286.359C137.241 288.039 139.521 289.604 141.875 291.053C151.39 296.306 161.673 299.942 172.328 302.286C174.99 302.872 177.673 303.377 180.364 303.785C197.374 305.3 215.516 305.878 232.598 302.54C205.435 294.544 74.9862 247.571 157.091 104.031C155.992 104.536 154.909 105.058 153.835 105.599L153.596 105.716C153.103 105.963 152.61 106.217 152.122 106.476L151.718 106.69C150.198 107.498 148.695 108.334 147.221 109.207L146.857 109.421C146.388 109.7 145.924 109.983 145.459 110.27L145.107 110.488C143.664 111.39 142.243 112.324 140.845 113.288L140.408 113.591C139.968 113.898 139.536 114.205 139.103 114.516L138.837 114.706C137.956 115.35 137.086 116.002 136.227 116.662L135.976 116.855C135.572 117.171 135.168 117.494 134.764 117.821L134.291 118.201C133.887 118.528 133.483 118.855 133.079 119.191C132.227 119.898 131.386 120.625 130.558 121.361L130.097 121.765L129.01 122.754L128.485 123.231C127.332 124.309 126.205 125.409 125.103 126.532L124.546 127.102C124.227 127.433 123.907 127.765 123.592 128.1C123.406 128.298 123.221 128.504 123.039 128.698C122.484 129.291 121.937 129.891 121.398 130.5C121.217 130.706 121.031 130.904 120.849 131.122C120.562 131.449 120.279 131.781 119.996 132.112L119.386 132.835C119.111 133.163 118.837 133.49 118.578 133.821C118.36 134.088 118.142 134.359 117.928 134.629C117.495 135.167 117.071 135.704 116.651 136.245C116.433 136.528 116.215 136.811 116 137.098C115.786 137.385 115.516 137.74 115.277 138.068C115.039 138.395 114.845 138.653 114.635 138.948C114.425 139.243 114.178 139.575 113.956 139.89C113.573 140.429 113.196 140.974 112.825 141.526C112.623 141.821 112.421 142.124 112.223 142.423C112.025 142.722 111.778 143.094 111.56 143.433L110.958 144.367L110.279 145.462C110.105 145.74 109.932 146.019 109.762 146.298C109.402 146.888 109.055 147.482 108.707 148.076L108.215 148.948C107.996 149.332 107.778 149.72 107.564 150.108C107.402 150.403 107.241 150.698 107.083 150.993C106.825 151.474 106.57 151.959 106.316 152.443L105.831 153.389C105.572 153.906 105.313 154.419 105.059 154.94C104.926 155.219 104.788 155.502 104.655 155.785C104.445 156.225 104.251 156.67 104.037 157.114C103.911 157.381 103.79 157.647 103.669 157.922C103.37 158.587 103.078 159.261 102.792 159.942C102.703 160.152 102.619 160.367 102.53 160.577C102.316 161.09 102.105 161.603 101.899 162.12C101.79 162.391 101.685 162.662 101.58 162.928C101.378 163.437 101.176 163.95 100.994 164.464C100.909 164.686 100.825 164.908 100.744 165.13C100.491 165.839 100.241 166.547 99.9963 167.255L99.7701 167.942C99.5923 168.481 99.4186 169.02 99.2489 169.559L99.0064 170.33C98.8165 170.952 98.6307 171.575 98.4529 172.201C98.4125 172.334 98.3721 172.468 98.3357 172.605C98.1256 173.348 97.9236 174.095 97.7297 174.843C97.665 175.082 97.6085 175.324 97.5478 175.563C97.4064 176.124 97.2691 176.686 97.1438 177.251L96.9741 177.959C96.8004 178.726 96.6307 179.494 96.4731 180.266L96.4125 180.577C96.2751 181.264 96.1404 181.95 96.0085 182.637C95.964 182.884 95.9236 183.126 95.8792 183.373C95.7741 183.975 95.6731 184.585 95.5802 185.191C95.5478 185.397 95.5115 185.595 95.4832 185.805C95.362 186.593 95.2529 187.385 95.1478 188.181L95.0872 188.706C95.0064 189.348 94.9337 189.995 94.865 190.641C94.8408 190.884 94.8125 191.126 94.7883 191.373C94.7236 192.051 94.663 192.734 94.6064 193.417C94.6064 193.559 94.5822 193.696 94.5741 193.821C94.5149 194.629 94.4623 195.444 94.4165 196.266C94.4165 196.48 94.4165 196.698 94.3883 196.912C94.3613 197.548 94.3371 198.182 94.3155 198.815C94.3155 199.053 94.3155 199.292 94.3155 199.53C94.3155 200.359 94.2832 201.191 94.2832 202.023C94.2832 202.023 94.2832 202.051 94.2832 202.064C94.2832 202.961 94.2832 203.849 94.3155 204.738C94.3155 205.045 94.3398 205.352 94.3478 205.66C94.368 206.253 94.3882 206.847 94.4165 207.441C94.4165 207.801 94.461 208.157 94.4812 208.516C94.5135 209.053 94.5418 209.591 94.5822 210.132C94.6105 210.536 94.6468 210.896 94.6792 211.276C94.7236 211.785 94.764 212.294 94.8165 212.799C94.8529 213.203 94.9014 213.583 94.9418 213.975C94.9984 214.464 95.0509 214.956 95.1115 215.445C95.16 215.849 95.2165 216.253 95.2691 216.637C95.3337 217.114 95.3983 217.595 95.4711 218.072C95.5317 218.476 95.5963 218.88 95.661 219.284C95.7337 219.752 95.8105 220.225 95.8913 220.694C95.964 221.098 96.0367 221.502 96.1135 221.906C96.1984 222.371 96.2872 222.835 96.3761 223.296C96.465 223.756 96.5418 224.104 96.6266 224.508C96.7236 224.969 96.8206 225.425 96.9256 225.882C97.0307 226.338 97.1034 226.69 97.2004 227.066C97.3054 227.522 97.4186 227.975 97.5317 228.423C97.6448 228.872 97.7297 229.211 97.8307 229.599C97.9519 230.051 98.0731 230.5 98.1983 230.948C98.3034 231.352 98.4125 231.724 98.5256 232.108C98.6549 232.556 98.7883 233.001 98.9297 233.445C99.0711 233.89 99.164 234.209 99.2852 234.593C99.4064 234.977 99.568 235.478 99.7135 235.918C99.859 236.359 99.964 236.674 100.093 237.049C100.247 237.49 100.4 237.93 100.558 238.371C100.691 238.738 100.821 239.11 100.962 239.478L101.463 240.799C101.604 241.159 101.742 241.522 101.867 241.882C102.045 242.322 102.227 242.767 102.408 243.207C102.554 243.554 102.695 243.906 102.845 244.253C103.035 244.706 103.249 245.15 103.431 245.599C103.58 245.93 103.726 246.266 103.875 246.597C104.085 247.066 104.307 247.526 104.522 247.987L104.958 248.916C105.204 249.425 105.459 249.926 105.714 250.431C105.843 250.686 105.964 250.944 106.097 251.199C106.873 252.71 107.681 254.201 108.522 255.672C108.639 255.862 108.788 256.108 108.934 256.354Z" fill="#EDD494"/>
<path d="M94.2403 202.019C94.2403 142.496 142.495 94.2412 202.018 94.2412C261.541 94.2412 309.796 142.496 309.796 202.019C309.811 218.057 306.24 233.896 299.343 248.375C292.447 262.855 282.4 275.609 269.937 285.704C267.726 287.503 265.444 289.212 263.093 290.831C238.786 306.261 208.079 306.261 180.358 303.793C177.667 303.389 174.984 302.88 172.321 302.294C161.683 299.95 151.384 296.334 141.869 291.061C139.517 289.612 137.237 288.047 135.028 286.366C132.808 284.676 130.677 282.872 128.644 280.96C126.721 279.175 124.864 277.319 123.073 275.393C104.51 255.473 94.2044 229.247 94.2403 202.019Z" stroke="#592D3D" stroke-width="5.04706" stroke-miterlimit="10"/>
<path d="M156.006 306.553C119.332 306.553 126.916 352.71 126.564 404.04H156.006V306.553Z" fill="#FBE8B3"/>
<path d="M148.374 336.108L157.574 351.514L152.972 404.039H140.152C139.824 331.203 148.374 336.108 148.374 336.108Z" fill="#EDD494"/>
<path d="M250.29 432.322H153.748C152.326 432.321 150.962 431.756 149.957 430.749C148.951 429.743 148.387 428.379 148.387 426.957V311.918C148.387 310.496 148.951 309.132 149.957 308.126C150.962 307.12 152.326 306.554 153.748 306.553H247.983C253.272 306.553 255.659 309.648 255.659 314.585V426.941C255.662 427.647 255.524 428.347 255.255 429C254.986 429.653 254.591 430.247 254.092 430.747C253.593 431.247 253.001 431.643 252.348 431.914C251.696 432.184 250.996 432.323 250.29 432.322Z" fill="#FBE8B3"/>
<path d="M254.16 309.744C253.758 309.249 253.417 308.706 253.146 308.128C252.176 307.368 251.022 306.878 249.801 306.71C249.199 306.617 248.591 306.571 247.983 306.572H153.748C152.329 306.573 150.969 307.136 149.964 308.138C148.959 309.14 148.392 310.499 148.387 311.918C160.104 316.128 182.039 318.479 202.019 318.479C227.498 318.479 244.193 314.702 254.16 309.744Z" fill="#EDD494"/>
<path d="M246.463 306.553C283.134 306.553 275.554 352.71 275.905 404.04H255.651" stroke="#592D3D" stroke-width="5.04706" stroke-miterlimit="10" stroke-linecap="square"/>
<path d="M156.006 306.553C119.332 306.553 126.916 352.71 126.564 404.04H146.794" stroke="#592D3D" stroke-width="5.04706" stroke-miterlimit="10" stroke-linecap="square"/>
<path d="M153.748 306.593L247.982 306.553" stroke="#592D3D" stroke-width="5.04706" stroke-miterlimit="10"/>
<path d="M153.748 432.322H200.868C156.767 432.322 160.096 338.916 148.387 338.916V426.94C148.385 427.646 148.522 428.345 148.79 428.998C149.059 429.65 149.453 430.243 149.951 430.743C150.449 431.243 151.041 431.64 151.693 431.911C152.344 432.182 153.043 432.322 153.748 432.322Z" fill="#EDD494"/>
<path d="M145.963 347.817C145.886 346.334 145.918 344.851 145.983 343.373C146.048 341.894 146.173 340.403 146.33 338.928C146.411 338.185 146.492 337.445 146.593 336.702C146.694 335.959 146.791 335.219 146.936 334.476C147.223 332.937 147.711 331.443 148.387 330.031C149.063 331.443 149.551 332.937 149.837 334.476C149.983 335.219 150.088 335.959 150.181 336.702C150.274 337.445 150.363 338.185 150.443 338.928C150.597 340.411 150.718 341.894 150.787 343.373C150.856 344.851 150.888 346.338 150.811 347.817H145.963Z" fill="#592D3D"/>
<path d="M255.651 351.514V354.747C255.756 368.484 255.756 382.625 255.651 396.262C255.651 397.421 255.651 398.573 255.651 399.708V426.945C255.653 427.65 255.515 428.349 255.246 429.001C254.978 429.653 254.583 430.246 254.085 430.745C253.587 431.245 252.996 431.641 252.344 431.912C251.693 432.182 250.995 432.322 250.289 432.322H153.748C152.326 432.321 150.962 431.756 149.956 430.749C148.951 429.743 148.386 428.379 148.386 426.957V403.442C148.386 402.428 148.386 401.393 148.386 400.351C148.285 386.262 148.285 372.12 148.386 357.805V347.817" stroke="#592D3D" stroke-width="5.04706" stroke-miterlimit="10"/>
<path d="M253.227 351.514C253.15 349.829 253.186 348.14 253.251 346.452C253.316 344.763 253.441 343.078 253.595 341.389C253.675 340.544 253.76 339.7 253.857 338.856C253.954 338.011 254.055 337.171 254.201 336.326C254.482 334.587 254.969 332.888 255.651 331.264C256.333 332.888 256.82 334.587 257.102 336.326C257.247 337.171 257.352 338.015 257.445 338.856C257.538 339.696 257.627 340.544 257.708 341.389C257.861 343.078 257.986 344.763 258.051 346.452C258.116 348.14 258.152 349.829 258.075 351.514H253.227Z" fill="#592D3D"/>
<path d="M230.576 340.383C230.665 336.565 235.514 334.949 237.938 337.373C238.332 337.775 238.643 338.251 238.853 338.773C239.063 339.296 239.168 339.854 239.162 340.417C239.156 340.98 239.04 341.537 238.819 342.054C238.598 342.572 238.277 343.042 237.875 343.436C237.473 343.83 236.997 344.14 236.475 344.351C235.952 344.561 235.394 344.666 234.831 344.66C234.268 344.654 233.712 344.537 233.194 344.317C232.676 344.096 232.207 343.775 231.813 343.373C231.419 342.981 231.107 342.515 230.895 342.002C230.683 341.489 230.574 340.938 230.576 340.383Z" fill="#592D3D"/>
<path d="M164.892 340.262C164.807 336.969 168.444 335.353 170.868 336.565C174.1 337.777 174.1 342.221 170.868 344.242C169.252 345.05 167.636 344.242 166.12 343.24C165.73 342.849 165.42 342.384 165.209 341.873C164.998 341.362 164.891 340.815 164.892 340.262Z" fill="#592D3D"/>
<path d="M202.019 336.068C202.308 336.83 202.511 337.621 202.625 338.428C202.745 339.209 202.811 339.997 202.823 340.788L202.944 345.511C202.98 347.082 203.029 348.658 203.045 350.234L203.114 354.949C203.207 361.24 203.203 367.539 203.227 373.834C203.251 380.129 203.3 386.424 203.227 392.719C203.191 395.866 203.106 399.014 203.013 402.161C202.972 403.733 202.896 405.309 202.742 406.88C202.605 408.469 202.366 410.046 202.027 411.604C201.688 410.046 201.449 408.469 201.312 406.88C201.158 405.309 201.081 403.733 201.041 402.161C200.948 399.014 200.863 395.866 200.827 392.719C200.746 386.424 200.827 380.129 200.827 373.834C200.827 367.539 200.827 361.248 200.9 354.953L200.968 350.226L201.102 345.507L201.235 340.788C201.25 339.997 201.317 339.209 201.437 338.428C201.543 337.622 201.738 336.831 202.019 336.068Z" fill="#EDD494"/>
<path d="M171.805 356.767C172.404 356.482 173.039 356.279 173.692 356.161C174.316 356.044 174.948 355.977 175.582 355.959L179.36 355.826L186.916 355.66C191.95 355.583 196.98 355.563 202.019 355.551C207.057 355.539 212.092 355.487 217.126 355.551C219.643 355.588 222.16 355.672 224.681 355.765C225.938 355.81 227.199 355.887 228.455 356.036C229.731 356.178 230.994 356.418 232.233 356.755C230.995 357.095 229.732 357.334 228.455 357.47C227.199 357.624 225.938 357.701 224.681 357.741C222.16 357.834 219.643 357.915 217.126 357.951C212.092 358.028 207.057 357.951 202.019 357.951C196.98 357.951 191.946 357.951 186.908 357.891C184.391 357.866 181.873 357.786 179.36 357.689L175.582 357.551C174.949 357.534 174.318 357.467 173.696 357.349C173.042 357.24 172.406 357.044 171.805 356.767Z" fill="#EDD494"/>
<path d="M178.75 369.445C179.227 369.218 179.737 369.066 180.261 368.997C180.745 368.929 181.235 368.908 181.724 368.936C182.689 368.977 183.655 369.001 184.621 369.021C186.552 369.066 188.483 369.082 190.415 369.09C194.306 369.09 198.128 369.122 202.035 369.005C205.942 368.888 209.817 368.831 213.704 368.847C215.647 368.847 217.59 368.9 219.53 368.944C220.506 368.958 221.481 369.021 222.451 369.134C223.448 369.244 224.432 369.451 225.388 369.752C224.454 370.119 223.485 370.39 222.495 370.561C221.532 370.734 220.559 370.85 219.582 370.908C217.635 371.049 215.687 371.171 213.744 371.239C209.849 371.385 205.958 371.369 202.075 371.421C200.132 371.421 198.192 371.51 196.225 371.462C194.257 371.413 192.31 371.409 190.358 371.336C188.407 371.264 186.447 371.102 184.499 370.9C183.522 370.791 182.552 370.67 181.578 370.536C181.087 370.476 180.603 370.362 180.136 370.197C179.634 370.027 179.166 369.773 178.75 369.445Z" fill="#EDD494"/>
<path d="M177.344 383.785C177.823 383.503 178.344 383.298 178.887 383.179C179.394 383.061 179.911 382.995 180.431 382.981L183.513 382.852C185.57 382.779 187.631 382.718 189.687 382.686C193.8 382.625 197.913 382.625 202.019 382.625C206.124 382.625 210.245 382.557 214.358 382.625C216.414 382.662 218.471 382.746 220.528 382.839C221.559 382.874 222.588 382.963 223.61 383.106C224.663 383.251 225.699 383.495 226.705 383.837C225.703 384.173 224.67 384.412 223.623 384.553C222.599 384.699 221.569 384.789 220.536 384.823C218.479 384.916 216.423 385.001 214.366 385.037C210.253 385.118 206.136 385.062 202.023 385.037C197.909 385.013 193.796 385.013 189.683 384.936C187.627 384.896 185.566 384.823 183.509 384.738L180.427 384.589C179.907 384.573 179.39 384.505 178.883 384.387C178.341 384.27 177.821 384.066 177.344 383.785Z" fill="#EDD494"/>
<path d="M275.03 365.971C275.11 350.981 274.541 337.66 271.902 327.43C267.83 317.187 260.516 311.078 247.611 311.078L256.844 365.409C256.844 365.409 265.939 369.567 275.03 365.971Z" fill="#EDD494"/>
<path d="M278.505 361.708C278.045 362.087 277.545 362.415 277.014 362.686" stroke="#592D3D" stroke-width="5.04706" stroke-miterlimit="10" stroke-linecap="square"/>
<path d="M132.928 326.997C130.172 337.329 129.695 350.888 129.8 366.189C137.841 369.644 150.176 365.32 150.176 365.32L157.17 311.874C144.701 311.874 137.267 317.49 132.928 326.997Z" fill="#EDD494"/>
<path d="M249.155 306.326L233.623 306.367C233.623 328.072 203.187 351.272 203.187 351.272C203.187 351.272 170.541 326.795 170.541 306.367L154.92 306.326C153.498 306.326 152.134 306.891 151.128 307.896C150.122 308.902 149.556 310.265 149.555 311.688V426.714C149.556 428.136 150.122 429.5 151.128 430.506C152.134 431.511 153.498 432.076 154.92 432.076H251.458C252.88 432.076 254.243 431.511 255.249 430.505C256.254 429.5 256.819 428.136 256.819 426.714V314.342C256.819 309.421 254.444 306.326 249.155 306.326Z" fill="#633749"/>
<path d="M247.611 306.326C273.284 306.326 277.268 328.952 277.47 360.128C269.959 364.823 257.708 360.662 257.708 360.662L247.611 306.326Z" fill="#633749"/>
<path d="M256.819 335.882L247.611 351.272L252.213 403.797H256.9V361.122L263.882 362.29C261.611 333.13 256.819 335.882 256.819 335.882Z" fill="#5E3244"/>
<path d="M157.172 306.326C132.21 306.326 126.537 328.06 126.121 357.906C133.798 365.926 149.535 359.756 149.535 359.756L157.172 306.326Z" fill="#633749"/>
<path d="M149.543 335.882V359.756L142.549 361.494C144.84 333.183 149.543 335.882 149.543 335.882Z" fill="#5E3244"/>
<path d="M247.611 306.326C274.852 306.326 279.308 329.066 279.49 360.379C268.904 365.397 257.708 360.662 257.708 360.662" stroke="#592D3D" stroke-width="5.04706" stroke-miterlimit="10" stroke-linecap="square"/>
<path d="M157.171 306.326C130.185 306.326 124.816 328.423 124.545 359.138C132.864 365.114 149.535 359.756 149.535 359.756" stroke="#592D3D" stroke-width="5.04706" stroke-miterlimit="10" stroke-linecap="square"/>
<path d="M154.921 432.075H202.02C157.903 432.075 161.248 338.686 149.539 338.686V426.714C149.54 427.419 149.679 428.118 149.95 428.77C150.221 429.421 150.618 430.013 151.118 430.511C151.618 431.009 152.211 431.404 152.864 431.672C153.516 431.94 154.215 432.078 154.921 432.075Z" fill="#5E3244"/>
<path d="M147.13 347.591C147.054 346.109 147.086 344.622 147.155 343.147C147.223 341.672 147.345 340.181 147.498 338.702C147.579 337.963 147.664 337.22 147.761 336.476C147.858 335.733 147.959 334.993 148.104 334.254C148.39 332.715 148.878 331.221 149.555 329.81C150.231 331.221 150.719 332.715 151.005 334.254C151.151 334.993 151.256 335.737 151.349 336.476C151.441 337.216 151.53 337.963 151.611 338.702C151.767 340.189 151.883 341.671 151.959 343.147C152.023 344.63 152.056 346.117 151.959 347.591H147.13Z" fill="#592D3D"/>
<path d="M256.818 351.272V354.504C256.923 368.241 256.923 382.383 256.818 396.023C256.818 397.183 256.818 398.334 256.818 399.47V426.706C256.818 428.128 256.253 429.492 255.248 430.497C254.242 431.503 252.878 432.068 251.456 432.068H154.919C153.497 432.068 152.133 431.503 151.126 430.497C150.12 429.492 149.554 428.128 149.553 426.706V400.12C149.448 386.035 149.448 371.894 149.553 357.575V347.591" stroke="#592D3D" stroke-width="5.04706" stroke-miterlimit="10"/>
<path d="M254.395 351.272C254.318 349.583 254.354 347.894 254.419 346.209C254.484 344.525 254.609 342.832 254.767 341.147C254.847 340.302 254.928 339.458 255.025 338.614C255.122 337.769 255.223 336.925 255.373 336.08C255.652 334.341 256.137 332.642 256.819 331.018C257.504 332.641 257.991 334.341 258.27 336.08C258.415 336.925 258.524 337.769 258.613 338.614C258.702 339.458 258.795 340.302 258.876 341.147C259.033 342.832 259.154 344.521 259.219 346.209C259.284 347.898 259.324 349.583 259.243 351.272H254.395Z" fill="#592D3D"/>
<path d="M154.92 306.367L249.154 306.326" stroke="#592D3D" stroke-width="5.04706" stroke-miterlimit="10"/>
<path d="M125.543 360.379C126.003 360.796 126.501 361.169 127.03 361.494" stroke="#592D3D" stroke-width="5.04706" stroke-miterlimit="10" stroke-linecap="square"/>
<path d="M273.772 356.415C272.931 356.915 272.007 357.26 271.045 357.433C270.085 357.62 269.109 357.707 268.132 357.692C267.159 357.674 266.189 357.569 265.235 357.377C264.758 357.288 264.289 357.146 263.825 357.025C263.36 356.904 262.903 356.71 262.459 356.524C262.948 356.524 263.425 356.593 263.897 356.633L265.32 356.75C265.792 356.75 266.261 356.831 266.734 356.835C267.206 356.839 267.675 356.88 268.144 356.884C269.081 356.904 270.019 356.884 270.972 356.811C271.913 356.744 272.849 356.611 273.772 356.415Z" fill="#592D3D"/>
<path d="M233.624 306.367C233.624 328.072 203.187 351.272 203.187 351.272C203.187 351.272 170.541 326.795 170.541 306.367" stroke="#592D3D" stroke-width="5.04706" stroke-miterlimit="10"/>
<path d="M119.793 231.356V226.132C119.163 222.712 119.433 219.186 120.577 215.902C120.955 214.83 121.429 213.796 121.995 212.811C123.349 209.292 126.985 206.464 130.622 205.251C136.278 203.635 143.147 204.443 147.591 208.888C153.248 214.948 152.44 223.837 152.622 231.361" stroke="#592D3D" stroke-width="5.04706" stroke-miterlimit="10" stroke-linecap="round"/>
<path d="M251.841 231.514C250.896 220.759 252.512 205.809 266.439 204.375C267.53 204.276 268.628 204.276 269.72 204.375C273.007 204.66 276.148 205.861 278.787 207.842C286.059 213.902 284.443 223.599 284.423 231.53" stroke="#592D3D" stroke-width="5.04706" stroke-miterlimit="10" stroke-linecap="round"/>
<path d="M201.898 281.567C213.936 281.567 223.696 271.807 223.696 259.769C223.696 247.73 213.936 237.971 201.898 237.971C189.859 237.971 180.1 247.73 180.1 259.769C180.1 271.807 189.859 281.567 201.898 281.567Z" fill="#592D3D"/>
<path d="M198.468 268.035C192.783 266.674 187.309 268.439 184.953 272.023C187.212 275.442 190.486 278.066 194.314 279.526C198.143 280.986 202.333 281.208 206.295 280.161C207.119 279.943 207.929 279.673 208.719 279.353C209.264 274.5 204.88 269.567 198.468 268.035Z" fill="#F28195"/>
<path d="M193.393 263.434H193.716H193.978C194.152 263.434 194.318 263.434 194.483 263.458C194.815 263.482 195.144 263.53 195.469 263.599C196.13 263.729 196.773 263.936 197.384 264.217C198.668 264.793 199.76 265.726 200.528 266.904C201.253 268.021 201.642 269.322 201.647 270.654C201.645 271.879 201.266 273.074 200.56 274.076C200.035 272.961 199.655 271.975 199.223 271.131C199.032 270.729 198.813 270.342 198.568 269.971C198.342 269.643 198.078 269.343 197.78 269.078C197.215 268.585 196.551 268.218 195.833 268.003C195.455 267.888 195.07 267.795 194.681 267.725C194.483 267.696 194.277 267.66 194.088 267.636L193.793 267.607H193.659C193.627 267.607 193.554 267.607 193.582 267.607L193.393 263.434Z" fill="#592D3D"/>
<path d="M201.898 281.567C213.936 281.567 223.696 271.807 223.696 259.769C223.696 247.73 213.936 237.971 201.898 237.971C189.859 237.971 180.1 247.73 180.1 259.769C180.1 271.807 189.859 281.567 201.898 281.567Z" stroke="#592D3D" stroke-width="3.36471" stroke-miterlimit="10"/>
<path d="M294.734 167.28H117.264V193.199H294.734V167.28Z" fill="#EDD494"/>
<path d="M286.868 269.761C285.599 271.329 284.291 272.86 282.944 274.355C281.934 275.474 283.987 273.902 286.868 269.761ZM292.928 141.862C280.605 119.878 259.191 104.743 234.431 97.777L231.866 97.0861C222.694 94.5487 213.029 94.2578 203.049 94.2578C192.266 94.2578 181.854 95.3649 172.031 98.2982L170.31 98.8113C157.236 103.249 145.074 110.017 134.411 118.787C133.234 119.751 132.08 120.737 130.948 121.745C119.498 131.316 110.609 143.438 104.496 157.26C103.903 158.585 103.343 159.922 102.815 161.272C101.238 165.293 99.9673 169.427 99.0131 173.64C86.0596 224.783 106.217 256.161 124.108 275.393C125.874 277.292 100.702 234.242 117.07 188.12C120.193 188.003 125.247 187.914 131.692 187.85L137.955 167.401L145.001 187.757C156.072 187.704 169.195 187.696 182.932 187.708L187.91 166.553L193.534 187.716C223.583 187.773 254.722 187.927 272.435 188.028L277.769 166.949L283.829 188.092L287.146 188.112C307.385 231.11 294.342 259.042 286.868 269.761C302.401 250.604 310.862 226.682 310.827 202.019C310.827 167.102 292.928 141.862 292.928 141.862Z" fill="#FEDC58"/>
<path d="M286.868 269.761C285.599 271.329 284.291 272.86 282.944 274.355C281.934 275.474 283.987 273.902 286.868 269.761ZM286.868 269.761C294.342 259.042 307.385 231.11 287.146 188.112L283.829 188.092L277.769 166.949L272.435 188.028C254.722 187.927 223.583 187.773 193.534 187.716L187.91 166.553L182.932 187.708C169.195 187.696 156.072 187.704 145.001 187.757L137.955 167.401L131.692 187.85C125.247 187.914 120.193 188.003 117.07 188.12C100.702 234.242 125.874 277.292 124.108 275.393C106.217 256.161 86.0596 224.783 99.0131 173.64C99.9673 169.427 101.238 165.293 102.815 161.272C103.343 159.922 103.903 158.585 104.496 157.26C110.609 143.438 119.498 131.316 130.948 121.745C132.08 120.737 133.234 119.751 134.411 118.787C145.074 110.017 157.236 103.249 170.31 98.8113L172.031 98.2982C181.854 95.3649 192.266 94.2578 203.049 94.2578C213.029 94.2578 222.694 94.5487 231.866 97.0861L234.431 97.777C259.191 104.743 280.605 119.878 292.928 141.862C292.928 141.862 310.827 167.102 310.827 202.019C310.862 226.682 302.401 250.604 286.868 269.761Z" stroke="#592D3D" stroke-width="5.04706" stroke-miterlimit="10"/>
<path d="M236.02 92.1207L233.406 91.4177C223.22 88.5894 212.828 88.3672 203.05 88.3672C190.691 88.3672 179.992 89.7773 170.36 92.6662L168.638 93.1793L168.44 93.2399C154.702 97.9258 141.917 105.042 130.695 114.25C129.483 115.244 128.271 116.27 127.123 117.301C115.151 127.329 105.737 139.971 99.1474 154.876C98.5171 156.286 97.9353 157.725 97.3616 159.147C95.6727 163.466 88.7596 183.296 87.7656 187.692L117.071 188.096C120.194 187.979 125.248 187.89 131.693 187.826L137.956 167.377L145.002 187.733C156.073 187.68 169.196 187.672 182.933 187.684L187.911 166.529L193.535 187.717C223.584 187.773 254.723 187.927 272.436 188.028L277.77 166.949L283.83 188.092L287.147 188.113L316.687 202.02C316.687 167.195 300 141.818 297.907 138.747C285.252 116.363 263.285 99.7975 236.02 92.1207ZM303.156 221.111C301.875 210.638 298.642 198.783 292.444 185.62L290.873 182.278H288.25L277.43 144.448L267.879 182.145C251.543 182.056 224.622 181.927 198.036 181.866L187.551 142.444L178.283 181.838C167.212 181.838 157.455 181.838 149.156 181.874L137.616 148.496L127.345 182.032C122.719 182.092 119.2 182.169 116.84 182.258L112.869 182.412L111.539 186.153C105.745 202.513 104.21 220.202 106.974 238.787C100.549 222.626 97.899 201.862 104.691 175.098L104.727 174.945C105.62 171.02 106.809 167.168 108.283 163.422C108.768 162.173 109.297 160.909 109.863 159.644C115.737 146.367 124.101 135.131 134.715 126.258L134.848 126.141C135.919 125.191 137.026 124.246 138.137 123.333C148.228 115.043 159.723 108.629 172.077 104.395L173.713 103.911C182.246 101.349 191.842 100.101 203.046 100.101C212.024 100.101 221.523 100.307 230.299 102.735L232.877 103.426C257.216 110.294 276.727 124.949 287.826 144.731L287.976 144.997L288.154 145.252C288.323 145.49 304.966 169.345 304.966 202.02C304.964 208.426 304.358 214.818 303.156 221.111Z" fill="#FEDC58"/>
<path d="M286.867 269.761C285.599 271.328 284.291 272.86 282.944 274.355C281.934 275.474 283.986 273.902 286.867 269.761ZM286.867 269.761C294.342 259.042 307.384 231.11 287.146 188.112L283.829 188.092L277.768 166.949L272.435 188.027C254.722 187.926 223.582 187.773 193.534 187.716L187.91 166.553L182.932 187.708C169.195 187.696 156.071 187.704 145.001 187.757L137.954 167.401L131.691 187.85C125.247 187.914 120.192 188.003 117.069 188.12C100.702 234.242 125.873 277.292 124.108 275.393" stroke="#592D3D" stroke-width="5.04706" stroke-miterlimit="10"/>
<path d="M114.939 187.009C115.012 186.706 115.073 186.476 115.154 186.225C115.234 185.975 115.315 185.74 115.404 185.506C115.59 185.033 115.808 184.573 116.014 184.124C116.465 183.221 116.985 182.353 117.57 181.53C118.147 180.692 118.808 179.913 119.541 179.207C120.341 178.449 121.311 177.895 122.37 177.591C122.382 178.636 122.264 179.678 122.018 180.694C121.905 181.154 121.78 181.603 121.642 182.035L121.238 183.348C120.969 184.218 120.7 185.079 120.43 185.93C120.297 186.358 120.156 186.775 120.026 187.195C119.958 187.401 119.877 187.599 119.8 187.813C119.723 188.027 119.642 188.217 119.574 188.379L114.939 187.009Z" fill="#592D3D"/>
<path d="M287.143 185.688C287.981 185.621 288.823 185.63 289.66 185.712C290.506 185.785 291.347 185.901 292.181 186.06C292.585 186.141 293.021 186.222 293.442 186.319C293.867 186.408 294.287 186.524 294.698 186.666C295.625 186.979 296.482 187.47 297.219 188.112C296.481 188.754 295.624 189.247 294.698 189.563C294.287 189.704 293.867 189.818 293.442 189.906C293.038 190.007 292.601 190.088 292.181 190.169C291.341 190.325 290.5 190.441 289.66 190.516C288.823 190.598 287.981 190.605 287.143 190.537V185.688Z" fill="#592D3D"/>
<path d="M179.732 182.654C179.831 180.726 180.032 178.804 180.334 176.896C180.625 174.998 180.981 173.111 181.389 171.24C181.797 169.369 182.258 167.503 182.779 165.652C183.301 163.789 183.924 161.956 184.646 160.161C184.548 162.09 184.346 164.012 184.039 165.919C183.749 167.818 183.397 169.703 182.985 171.575C182.573 173.447 182.11 175.31 181.595 177.163C181.071 179.025 180.449 180.858 179.732 182.654Z" fill="white"/>
<path d="M269.898 182.654C269.997 180.725 270.198 178.803 270.5 176.896C270.794 174.997 271.146 173.112 271.555 171.24C271.964 169.368 272.421 167.506 272.925 165.656C273.44 163.795 274.057 161.963 274.771 160.169C274.675 162.098 274.474 164.02 274.169 165.927C273.873 167.826 273.521 169.711 273.115 171.583C272.711 173.458 272.242 175.32 271.721 177.171C271.211 179.03 270.603 180.86 269.898 182.654Z" fill="white"/>
<path d="M95.9785 189.195C96.7956 183.888 98.3486 178.72 100.593 173.842L95.9785 189.195Z" fill="#FEDC58"/>
<path d="M93.5742 188.892C93.6106 188.488 93.6469 188.145 93.7035 187.789C93.7601 187.434 93.8207 187.094 93.8894 186.747C94.0308 186.06 94.1924 185.381 94.3863 184.727C94.7665 183.384 95.2349 182.068 95.7884 180.787C96.323 179.498 96.958 178.252 97.6873 177.062C98.4506 175.827 99.4355 174.744 100.592 173.866C100.674 175.274 100.609 176.686 100.398 178.08C100.297 178.739 100.192 179.393 100.063 180.036C99.9338 180.678 99.8288 181.325 99.7278 181.967L99.0692 185.802L98.7338 187.692C98.6853 188.008 98.6207 188.323 98.5641 188.63C98.5075 188.937 98.4429 189.264 98.3863 189.515L93.5742 188.892Z" fill="#592D3D"/>
<path d="M310.839 200.404C310.839 200.404 310.653 192.008 307.457 181.159L310.839 200.404Z" fill="#FEDC58"/>
<path d="M308.415 200.452L308.318 199.337C308.286 198.933 308.253 198.557 308.229 198.169L308.047 195.81L307.679 191.042C307.558 189.446 307.393 187.846 307.275 186.222C307.243 185.414 307.211 184.582 307.235 183.741C307.244 182.876 307.312 182.012 307.437 181.155C308.538 182.481 309.434 183.964 310.096 185.555C310.427 186.327 310.72 187.114 310.972 187.915C311.243 188.723 311.473 189.531 311.704 190.339C312.157 191.957 312.52 193.598 312.791 195.256C312.924 196.085 313.045 196.921 313.118 197.765C313.161 198.186 313.193 198.61 313.215 199.038C313.239 199.47 313.247 199.874 313.243 200.363L308.415 200.452Z" fill="#592D3D"/>
<path d="M204.726 95.1501C198.971 95.4823 193.24 96.1474 187.562 97.142C186.156 97.4168 184.734 97.7158 183.344 97.9744C181.954 98.233 180.556 98.6249 179.162 98.9481L175.016 100.047C173.643 100.451 172.281 100.888 170.915 101.308C165.467 103.065 160.143 105.189 154.98 107.663C149.795 110.181 144.771 113.014 139.934 116.148C144.242 112.216 148.999 108.807 154.107 105.991C159.218 103.131 164.599 100.786 170.172 98.9885C171.578 98.5845 172.976 98.1441 174.382 97.7562C175.788 97.3683 177.21 97.0208 178.645 96.7057C180.079 96.3905 181.513 96.14 182.948 95.8976C184.382 95.6552 185.841 95.4653 187.287 95.2835C193.076 94.5768 198.927 94.5321 204.726 95.1501Z" fill="white"/>
<path d="M242.783 186.088C247.245 184.951 251.764 184.054 256.322 183.401L255.248 183.543C260.573 182.84 265.971 182.633 271.308 183.349L270.233 183.203C271.555 183.389 272.876 183.607 274.201 183.777L273.126 183.631C277.148 184.183 281.128 185.007 285.037 186.1C287.058 186.662 289.522 185.401 290.007 183.272C290.271 182.238 290.124 181.143 289.596 180.216C289.069 179.289 288.202 178.603 287.179 178.302C282.594 177.047 277.923 176.131 273.203 175.563L274.278 175.708C269.821 174.917 265.286 174.653 260.767 174.92C256.272 175.215 251.804 175.83 247.397 176.759C245.126 177.215 242.872 177.741 240.625 178.294C238.573 178.799 237.142 181.227 237.797 183.264C238.098 184.287 238.784 185.154 239.711 185.681C240.638 186.209 241.733 186.356 242.767 186.092L242.783 186.088Z" fill="#592D3D"/>
<path d="M115.61 186.1C119.483 184.977 123.433 184.141 127.429 183.599L126.354 183.745C133.245 182.843 140.225 182.853 147.113 183.777L146.039 183.636C150.057 184.184 154.033 185.007 157.938 186.1C159.958 186.666 162.423 185.401 162.907 183.272C163.172 182.239 163.024 181.143 162.497 180.216C161.969 179.289 161.102 178.603 160.079 178.302C154.243 176.679 148.261 175.637 142.221 175.191C132.521 174.56 122.785 175.614 113.445 178.307C112.432 178.6 111.567 179.263 111.021 180.165C110.481 181.108 110.336 182.226 110.616 183.276C111.283 185.341 113.408 186.727 115.586 186.105L115.61 186.1Z" fill="#592D3D"/>
<path d="M197.406 93.0724C209.272 93.0724 218.892 83.4528 218.892 71.5865C218.892 59.7201 209.272 50.1006 197.406 50.1006C185.539 50.1006 175.92 59.7201 175.92 71.5865C175.92 83.4528 185.539 93.0724 197.406 93.0724Z" fill="#633749"/>
<path d="M197.406 93.0723C200.606 93.0737 203.765 92.3603 206.654 90.9842C209.542 89.6081 212.087 87.6041 214.102 85.1186C216.117 82.633 217.551 79.7288 218.3 76.6179C219.049 73.5071 219.093 70.2682 218.43 67.138C204.501 64.9795 190.057 66.233 175.997 69.8532C175.952 70.4234 175.92 70.9981 175.92 71.5818C175.919 74.4038 176.475 77.1982 177.554 79.8055C178.634 82.4128 180.216 84.782 182.211 86.7776C184.207 88.7732 186.575 90.3563 189.182 91.4363C191.79 92.5164 194.584 93.0723 197.406 93.0723Z" fill="#5E3244"/>
<path d="M197.406 93.0724C209.272 93.0724 218.892 83.4528 218.892 71.5865C218.892 59.7201 209.272 50.1006 197.406 50.1006C185.539 50.1006 175.92 59.7201 175.92 71.5865C175.92 83.4528 185.539 93.0724 197.406 93.0724Z" stroke="#592D3D" stroke-width="5.65271" stroke-miterlimit="10"/>
<path d="M83.7403 191.953C83.7349 183.196 84.7278 174.466 86.6998 165.933C87.0889 164.259 87.5128 162.6 87.9714 160.955C89.2837 146.339 97.0219 134.284 107.367 123.518C109.521 121.794 109.951 117.92 112.105 115.766C119.426 109.309 125.884 102.847 134.066 97.6652C167.652 76.134 212.004 64.5087 247.744 84.3157C255.062 88.1893 263.243 90.3433 269.271 95.5112C280.901 105.412 289.078 117.042 300.708 126.514C311.039 135.112 312.763 148.905 316.429 160.937C316.89 162.578 317.314 164.238 317.7 165.915C319.672 174.448 320.665 183.178 320.66 191.935L83.7403 191.953Z" fill="#633749"/>
<path d="M86.6998 165.934C84.7278 174.467 83.7349 183.196 83.7403 191.954H121.3C120.594 155.453 111.227 124.971 158.742 87.8145C124.658 100.752 93.6008 129.166 86.6998 165.934Z" fill="#5E3244"/>
<path d="M91.8495 145.792C89.7609 150.609 88.4519 155.728 87.9714 160.956C87.5128 162.597 87.0889 164.256 86.6998 165.934C84.7278 174.466 83.7349 183.196 83.7403 191.954H174.268C193.485 190.467 212.788 190.467 232.006 191.954H320.66C320.665 183.196 319.672 174.466 317.7 165.934C317.311 164.259 316.887 162.6 316.429 160.956C314.863 155.811 313.646 150.349 311.967 145.118C238.708 118.011 164.625 118.586 91.8495 145.792Z" fill="#5E3244"/>
<path d="M83.7403 191.953C83.7349 183.196 84.7278 174.466 86.6998 165.933C87.0889 164.259 87.5128 162.6 87.9714 160.955C89.2837 146.339 97.0219 134.284 107.367 123.518C109.521 121.794 109.951 117.92 112.105 115.766C119.426 109.309 125.884 102.847 134.066 97.6652C167.652 76.134 212.004 64.5087 247.744 84.3157C255.062 88.1893 263.243 90.3433 269.271 95.5112C280.901 105.412 289.078 117.042 300.708 126.514C311.039 135.112 312.763 148.905 316.429 160.937C316.89 162.578 317.314 164.238 317.7 165.915C319.672 174.448 320.665 183.178 320.66 191.935L83.7403 191.953Z" stroke="#592D3D" stroke-width="5.65271" stroke-miterlimit="10"/>
<path d="M76.993 161.77C159.995 126.473 244.943 125.993 328.57 161.77C336.503 165.164 336.457 225.065 328.57 222.322C246.903 193.89 160.534 193.587 76.993 222.322C67.0556 225.739 68.024 165.585 76.993 161.77Z" fill="#633749"/>
<path d="M315.012 201.267C315.387 202.732 315.592 204.235 315.623 205.747C315.664 207.226 315.573 208.697 315.505 210.172L315.342 212.376C315.27 213.109 315.198 213.842 315.107 214.571C314.926 216.032 314.704 217.485 314.388 218.92L310.826 218.282C311.025 216.847 311.279 215.426 311.568 214.005L312.021 211.874L312.473 209.747C312.808 208.331 313.093 206.91 313.478 205.493C313.858 204.04 314.372 202.625 315.012 201.267Z" fill="#592D3D"/>
<path d="M314.369 155.453C315.074 158.287 315.623 161.157 316.012 164.051C316.206 165.495 316.365 166.943 316.505 168.391C316.645 169.839 316.727 171.296 316.804 172.749C316.921 175.654 316.971 178.559 316.831 181.46C316.705 184.368 316.334 187.261 315.722 190.108C315.269 187.216 314.966 184.36 314.672 181.51C314.378 178.659 314.125 175.83 313.744 173.011C313.568 171.599 313.369 170.196 313.156 168.794C312.943 167.391 312.704 165.992 312.468 164.599C311.984 161.807 311.428 159.037 310.844 156.268L314.369 155.453Z" fill="#592D3D"/>
<path d="M277.656 146.189C281.077 165.589 280.693 186.686 277.656 208.968" stroke="#592D3D" stroke-width="3.76847" stroke-miterlimit="10"/>
<path d="M245.713 139.678C248.043 159.091 247.781 180.201 245.713 202.502" stroke="#592D3D" stroke-width="3.76847" stroke-miterlimit="10"/>
<path d="M216.596 161.788C217.141 164.883 217.5 168.008 217.669 171.146C217.85 174.269 217.904 177.391 217.963 180.518V185.206C217.963 186.767 217.963 188.329 217.908 189.89C217.841 193.012 217.727 196.135 217.515 199.253L213.895 199.072C213.994 195.963 214.152 192.858 214.32 189.754L214.867 180.446C215.076 177.341 215.239 174.233 215.478 171.124C215.718 168.015 216.071 164.906 216.596 161.788Z" fill="#592D3D"/>
<path d="M217.538 136.18C217.632 137.135 217.674 138.094 217.664 139.053C217.664 139.533 217.642 140.013 217.628 140.492L217.569 141.936C217.493 142.895 217.425 143.859 217.262 144.823C217.096 145.832 216.779 146.81 216.32 147.724C215.778 146.851 215.367 145.905 215.099 144.913C214.841 143.972 214.678 143.031 214.506 142.085L214.284 140.673C214.225 140.198 214.157 139.727 214.108 139.257C214 138.312 213.948 137.362 213.949 136.41L217.538 136.18Z" fill="#592D3D"/>
<path d="M186.689 136.076C186.848 155.535 186.83 176.654 186.689 198.977" stroke="#592D3D" stroke-width="3.76847" stroke-miterlimit="10"/>
<path d="M157.557 139.031C156.625 158.49 156.729 179.636 157.557 201.982" stroke="#592D3D" stroke-width="3.76847" stroke-miterlimit="10"/>
<path d="M125.876 177.708C126.418 180.216 126.827 182.75 127.102 185.301C127.387 187.831 127.595 190.356 127.849 192.881L128.532 200.452C128.745 202.972 128.953 205.498 129.098 208.027L125.477 208.317C125.215 205.778 125.057 203.23 124.943 200.683C124.885 199.407 124.853 198.13 124.817 196.854L124.771 193.026C124.771 190.474 124.794 187.917 124.93 185.365C125.059 182.793 125.375 180.234 125.876 177.708Z" fill="#592D3D"/>
<path d="M129.092 145.366C128.978 147.018 128.802 148.66 128.616 150.303L128.318 152.769L127.992 155.235C127.748 156.883 127.562 158.53 127.268 160.182C126.984 161.861 126.56 163.514 126.001 165.123C125.529 163.478 125.226 161.789 125.096 160.082C124.96 158.399 124.951 156.724 124.924 155.041V152.525C124.951 151.683 124.974 150.846 125.014 150.009C125.105 148.33 125.236 146.656 125.467 144.99L129.092 145.366Z" fill="#592D3D"/>
<path d="M94.8733 154.539C91.769 173.998 92.1175 195.198 94.8733 217.576" stroke="#592D3D" stroke-width="3.76847" stroke-miterlimit="10"/>
<path d="M315.8 197.135C316.136 197.135 316.464 197.036 316.743 196.849C317.022 196.663 317.24 196.398 317.368 196.088C317.497 195.778 317.53 195.436 317.465 195.107C317.399 194.778 317.238 194.476 317 194.238C316.763 194.001 316.461 193.839 316.132 193.774C315.802 193.708 315.461 193.742 315.151 193.87C314.841 193.999 314.576 194.216 314.389 194.495C314.203 194.774 314.104 195.103 314.104 195.438C314.109 195.886 314.29 196.315 314.607 196.632C314.924 196.949 315.352 197.129 315.8 197.135Z" fill="#592D3D"/>
<path d="M318.158 154.96C322.683 174.346 322.163 195.429 318.158 217.698" stroke="#5E3244" stroke-width="3.76847" stroke-miterlimit="10"/>
<path d="M283.186 145.285C286.607 164.685 286.222 185.782 283.186 208.069" stroke="#5E3244" stroke-width="3.76847" stroke-miterlimit="10"/>
<path d="M251.229 138.7C253.559 158.114 253.297 179.224 251.229 201.524" stroke="#5E3244" stroke-width="3.76847" stroke-miterlimit="10"/>
<path d="M221.217 135.248C222.457 154.67 222.321 175.799 221.217 198.113" stroke="#5E3244" stroke-width="3.76847" stroke-miterlimit="10"/>
<path d="M192.139 134.949C192.293 154.385 192.279 175.527 192.139 197.85" stroke="#5E3244" stroke-width="3.76847" stroke-miterlimit="10"/>
<path d="M162.969 137.832C162.037 157.291 162.141 178.437 162.969 200.783" stroke="#5E3244" stroke-width="3.76847" stroke-miterlimit="10"/>
<path d="M132.681 143.927C130.663 163.385 130.871 184.559 132.681 206.923" stroke="#5E3244" stroke-width="3.76847" stroke-miterlimit="10"/>
<path d="M100.248 153.268C97.144 172.726 97.4925 193.927 100.248 216.304" stroke="#5E3244" stroke-width="3.76847" stroke-miterlimit="10"/>
<path d="M76.993 161.77C159.995 126.473 244.943 125.993 328.57 161.77C336.503 165.164 336.457 225.065 328.57 222.322C246.903 193.89 160.534 193.587 76.993 222.322C67.0556 225.739 68.024 165.585 76.993 161.77Z" stroke="#592D3D" stroke-width="5.65271" stroke-miterlimit="10"/>
<path d="M168.137 128.867C173.904 127.659 179.739 126.795 185.609 126.279C187.079 126.152 188.546 126.025 190.016 125.926L194.428 125.672C195.904 125.609 197.374 125.582 198.85 125.536L203.271 125.478C209.154 125.478 215.059 125.763 220.919 126.31C226.789 126.834 232.622 127.71 238.387 128.935C232.504 128.804 226.621 128.577 220.793 128.423C214.964 128.27 209.099 128.202 203.257 128.188H198.877C197.415 128.188 195.953 128.242 194.492 128.238L190.111 128.301C188.65 128.351 187.188 128.374 185.722 128.392C179.884 128.541 174.029 128.749 168.137 128.867Z" fill="#592D3D"/>
<path d="M132.184 106.29C135.384 103.731 138.769 101.413 142.311 99.3531C145.832 97.2624 149.466 95.3528 153.172 93.6241C154.077 93.1716 155.041 92.7824 155.977 92.3661C156.914 91.9498 157.846 91.5244 158.801 91.1579C160.711 90.4112 162.602 89.6283 164.548 88.9857C168.405 87.6097 172.343 86.4761 176.341 85.5918C175.404 86.0036 174.459 86.3973 173.513 86.7819C172.567 87.1666 171.617 87.5241 170.684 87.9404C168.806 88.7278 166.924 89.488 165.06 90.3026L163.661 90.9044C163.209 91.099 162.72 91.2891 162.258 91.5018L159.475 92.7372C158.543 93.1354 157.625 93.5653 156.697 93.9816C155.769 94.3979 154.846 94.8143 153.936 95.2623L151.176 96.5429C150.271 96.9954 149.366 97.448 148.438 97.9005C146.628 98.7784 144.818 99.7106 142.985 100.616C139.37 102.435 135.768 104.322 132.184 106.29Z" fill="white"/>
<path opacity="0.2" d="M154.71 253.938C162.261 253.938 168.383 247.817 168.383 240.265C168.383 232.714 162.261 226.593 154.71 226.593C147.159 226.593 141.037 232.714 141.037 240.265C141.037 247.817 147.159 253.938 154.71 253.938Z" fill="white"/>
<path opacity="0.4" d="M151.866 254.949L169.365 238.084C168.435 236.296 167.414 234.557 166.307 232.872L147.773 250.735C148.541 251.272 150.998 254.577 151.866 254.949Z" fill="white"/>
<path d="M154.71 253.938C162.261 253.938 168.383 247.817 168.383 240.265C168.383 232.714 162.261 226.593 154.71 226.593C147.159 226.593 141.037 232.714 141.037 240.265C141.037 247.817 147.159 253.938 154.71 253.938Z" stroke="#592D3D" stroke-width="5.04706" stroke-miterlimit="10"/>
<path d="M152.726 234.532C153.219 236.08 151.312 237.272 149.898 237.51C148.467 237.51 147.514 236.556 147.037 235.365C146.799 234.173 147.037 232.981 147.991 232.266C149.183 231.789 150.851 231.312 151.91 232.536C152.173 232.797 152.38 233.109 152.52 233.451C152.661 233.794 152.73 234.162 152.726 234.532Z" fill="white"/>
<path d="M155.279 233.62C155.247 233.832 155.142 234.026 154.982 234.169C154.822 234.312 154.618 234.395 154.403 234.404C154.189 234.413 153.979 234.348 153.807 234.219C153.636 234.09 153.515 233.905 153.465 233.697C153.465 232.981 153.703 232.743 154.382 232.719C154.62 232.719 154.848 232.813 155.016 232.981C155.184 233.15 155.279 233.378 155.279 233.616V233.62Z" fill="white"/>
<path opacity="0.2" d="M248.565 253.938C256.117 253.938 262.238 247.817 262.238 240.265C262.238 232.714 256.117 226.593 248.565 226.593C241.014 226.593 234.893 232.714 234.893 240.265C234.893 247.817 241.014 253.938 248.565 253.938Z" fill="white"/>
<path opacity="0.4" d="M246.512 253.781L262.084 238.21C261.999 237.656 259.696 234.937 259.542 234.396L242.686 251.26C243.231 251.41 245.958 253.701 246.512 253.781Z" fill="white"/>
<path d="M248.565 253.938C256.117 253.938 262.238 247.817 262.238 240.265C262.238 232.714 256.117 226.593 248.565 226.593C241.014 226.593 234.893 232.714 234.893 240.265C234.893 247.817 241.014 253.938 248.565 253.938Z" stroke="#592D3D" stroke-width="5.04706" stroke-miterlimit="10"/>
<path d="M245.396 234.306C245.8 235.619 244.184 236.629 242.972 236.831C241.76 236.831 240.952 236.023 240.547 235.013C240.345 234.003 240.547 232.993 241.356 232.387C242.366 231.983 243.78 231.579 244.681 232.617C244.907 232.837 245.086 233.099 245.209 233.389C245.332 233.679 245.395 233.991 245.396 234.306Z" fill="white"/>
<path d="M247.555 233.534C247.527 233.713 247.437 233.877 247.302 233.997C247.167 234.117 246.994 234.187 246.814 234.195C246.633 234.203 246.455 234.147 246.31 234.039C246.165 233.93 246.063 233.775 246.02 233.599C246.02 232.993 246.222 232.791 246.795 232.791C246.994 232.791 247.185 232.869 247.327 233.008C247.469 233.147 247.551 233.336 247.555 233.534Z" fill="white"/>
<path d="M168.379 240.266C190.919 232.185 213.091 232.185 234.896 240.266" stroke="#592D3D" stroke-width="5.04706" stroke-miterlimit="10"/>
<path opacity="0.15" d="M248.565 256.363C244.601 256.358 240.778 254.892 237.827 252.246C234.875 249.6 233.002 245.959 232.565 242.02C212.363 234.889 191.571 234.893 170.707 242.02C170.451 244.362 169.684 246.62 168.459 248.634C167.234 250.647 165.582 252.367 163.619 253.671C161.657 254.975 159.432 255.833 157.101 256.182C154.77 256.531 152.392 256.364 150.133 255.693C152.344 256.778 154.785 257.315 157.248 257.259C159.71 257.203 162.124 256.555 164.283 255.37C166.443 254.185 168.286 252.498 169.657 250.45C171.027 248.403 171.885 246.056 172.157 243.608C192.044 236.796 211.866 236.787 231.119 243.608C231.386 246.059 232.24 248.41 233.608 250.462C234.976 252.514 236.818 254.206 238.979 255.395C241.14 256.584 243.555 257.235 246.02 257.293C248.486 257.352 250.929 256.815 253.143 255.729C251.655 256.159 250.114 256.372 248.565 256.363Z" fill="black"/>
<path fill-rule="evenodd" clip-rule="evenodd" d="M208.887 367.129C207.417 366.486 205.794 366.13 204.087 366.13C197.46 366.13 192.087 371.503 192.087 378.13C192.087 378.46 192.101 378.787 192.127 379.11C191.434 377.714 191.045 376.141 191.045 374.478C191.045 368.715 195.717 364.043 201.48 364.043C204.376 364.043 206.997 365.223 208.887 367.129Z" fill="#FEFEFE" fill-opacity="0.2"/>
<path fill-rule="evenodd" clip-rule="evenodd" d="M202 387C208.627 387 214 381.627 214 375C214 368.373 208.627 363 202 363C201.621 363 201.247 363.018 200.877 363.052C205.321 363.533 208.782 367.297 208.782 371.87C208.782 376.768 204.811 380.739 199.912 380.739C195.013 380.739 191.042 376.768 191.042 371.87C191.042 371.002 191.167 370.164 191.399 369.372C190.506 371.051 190 372.966 190 375C190 381.627 195.373 387 202 387Z" fill="#FEFEFE"/>
</g>
</svg>
