<svg width="405" height="391" viewBox="0 0 405 391" fill="none" xmlns="http://www.w3.org/2000/svg">
<mask id="mask0_1170_84990" style="mask-type:luminance" maskUnits="userSpaceOnUse" x="0" y="0" width="405" height="391">
<path d="M404.04 0H0V290.226H72.404C87.9111 347.754 140.061 390.065 202.02 390.065C263.98 390.065 316.129 347.754 331.636 290.226H404.04V0Z" fill="white"/>
</mask>
<g mask="url(#mask0_1170_84990)">
<path d="M202.021 388.929C276.204 388.929 336.341 328.792 336.341 254.609C336.341 180.426 276.204 120.289 202.021 120.289C127.838 120.289 67.7012 180.426 67.7012 254.609C67.7012 328.792 127.838 388.929 202.021 388.929Z" fill="#AD00FF"/>
<path d="M246.465 306.553C283.136 306.553 275.556 352.71 275.907 404.04H246.465V306.553Z" fill="#FDD2B2"/>
<path d="M255.653 336.109L246.465 351.515L251.063 404.04H263.895C264.206 331.204 255.653 336.109 255.653 336.109Z" fill="#F3AB98"/>
<path d="M94.2423 202.02C94.2423 142.497 142.497 94.2422 202.02 94.2422C261.543 94.2422 309.798 142.497 309.798 202.02C309.813 218.058 306.242 233.897 299.345 248.376C292.449 262.856 282.402 275.61 269.939 285.705C267.728 287.504 265.446 289.213 263.095 290.832C238.788 306.262 208.081 306.262 180.359 303.794C177.669 303.39 174.986 302.881 172.323 302.295C161.685 299.951 151.386 296.335 141.871 291.062C139.519 289.613 137.239 288.048 135.03 286.367C132.81 284.677 130.679 282.873 128.646 280.961C126.723 279.176 124.866 277.32 123.075 275.394C104.512 255.474 94.2064 229.248 94.2423 202.02Z" fill="#FDD2B2"/>
<path d="M108.936 256.354C109.218 256.839 109.497 257.324 109.788 257.801C109.962 258.092 110.144 258.375 110.326 258.666C110.592 259.098 110.859 259.53 111.134 259.954C111.328 260.262 111.538 260.561 111.724 260.86C111.99 261.264 112.257 261.668 112.532 262.072C112.738 262.379 112.936 262.686 113.162 262.993C113.429 263.397 113.695 263.769 113.97 264.156C114.188 264.468 114.414 264.775 114.637 265.086C114.859 265.397 115.178 265.833 115.445 266.205C115.711 266.577 115.909 266.823 116.144 267.13C116.378 267.437 116.697 267.857 116.98 268.221C117.263 268.585 117.461 268.831 117.703 269.134C117.946 269.437 118.273 269.845 118.56 270.197C118.847 270.548 119.057 270.799 119.307 271.098C119.558 271.397 119.889 271.793 120.184 272.136C120.479 272.48 120.697 272.73 120.956 273.025L121.853 274.035C122.115 274.33 122.382 274.617 122.661 274.908C123.008 275.288 123.36 275.664 123.711 276.035L124.2 276.552C124.722 277.094 125.247 277.635 125.78 278.169L125.885 278.278C126.406 278.795 126.936 279.308 127.465 279.817L128.103 280.423C128.487 280.783 128.871 281.142 129.259 281.498L129.728 281.926C130.132 282.306 130.572 282.678 130.996 283.049C132.316 284.2 133.663 285.303 135.037 286.359C137.243 288.039 139.523 289.604 141.877 291.053C151.392 296.306 161.675 299.942 172.33 302.286C174.992 302.872 177.675 303.377 180.366 303.785C197.376 305.3 215.517 305.878 232.6 302.54C205.437 294.544 74.9882 247.571 157.093 104.031C155.994 104.536 154.911 105.058 153.837 105.599L153.598 105.716C153.105 105.963 152.612 106.217 152.124 106.476L151.72 106.69C150.2 107.498 148.697 108.334 147.223 109.207L146.859 109.421C146.39 109.7 145.926 109.983 145.461 110.27L145.109 110.488C143.666 111.39 142.245 112.324 140.847 113.288L140.41 113.591C139.97 113.898 139.538 114.205 139.105 114.516L138.839 114.706C137.958 115.35 137.088 116.002 136.229 116.662L135.978 116.855C135.574 117.171 135.17 117.494 134.766 117.821L134.293 118.201C133.889 118.528 133.485 118.855 133.081 119.191C132.229 119.898 131.388 120.625 130.56 121.361L130.099 121.765L129.012 122.754L128.487 123.231C127.334 124.309 126.207 125.409 125.105 126.532L124.548 127.102C124.229 127.433 123.909 127.765 123.594 128.1C123.408 128.298 123.223 128.504 123.041 128.698C122.486 129.291 121.939 129.891 121.4 130.5C121.218 130.706 121.033 130.904 120.851 131.122C120.564 131.449 120.281 131.781 119.998 132.112L119.388 132.835C119.113 133.163 118.839 133.49 118.58 133.821C118.362 134.088 118.144 134.359 117.93 134.629C117.497 135.167 117.073 135.704 116.653 136.245C116.435 136.528 116.216 136.811 116.002 137.098C115.788 137.385 115.517 137.74 115.279 138.068C115.041 138.395 114.847 138.653 114.637 138.948C114.427 139.243 114.18 139.575 113.958 139.89C113.575 140.429 113.198 140.974 112.827 141.526C112.625 141.821 112.423 142.124 112.225 142.423C112.027 142.722 111.78 143.094 111.562 143.433L110.96 144.367L110.281 145.462C110.107 145.74 109.934 146.019 109.764 146.298C109.404 146.888 109.057 147.482 108.709 148.076L108.216 148.948C107.998 149.332 107.78 149.72 107.566 150.108C107.404 150.403 107.243 150.698 107.085 150.993C106.827 151.474 106.572 151.959 106.317 152.443L105.833 153.389C105.574 153.906 105.315 154.419 105.061 154.94C104.928 155.219 104.79 155.502 104.657 155.785C104.447 156.225 104.253 156.67 104.039 157.114C103.913 157.381 103.792 157.647 103.671 157.922C103.372 158.587 103.08 159.261 102.794 159.942C102.705 160.152 102.621 160.367 102.532 160.577C102.317 161.09 102.107 161.603 101.901 162.12C101.792 162.391 101.687 162.662 101.582 162.928C101.38 163.437 101.178 163.95 100.996 164.464C100.911 164.686 100.827 164.908 100.746 165.13C100.493 165.839 100.243 166.547 99.9983 167.255L99.772 167.942C99.5942 168.481 99.4205 169.02 99.2508 169.559L99.0084 170.33C98.8185 170.952 98.6326 171.575 98.4549 172.201C98.4144 172.334 98.374 172.468 98.3377 172.605C98.1276 173.348 97.9256 174.095 97.7316 174.843C97.667 175.082 97.6104 175.324 97.5498 175.563C97.4084 176.124 97.271 176.686 97.1458 177.251L96.9761 177.959C96.8023 178.726 96.6326 179.494 96.4751 180.266L96.4144 180.577C96.2771 181.264 96.1424 181.95 96.0104 182.637C95.966 182.884 95.9256 183.126 95.8811 183.373C95.7761 183.975 95.6751 184.585 95.5821 185.191C95.5498 185.397 95.5134 185.595 95.4852 185.805C95.3639 186.593 95.2549 187.385 95.1498 188.181L95.0892 188.706C95.0084 189.348 94.9357 189.995 94.867 190.641C94.8427 190.884 94.8144 191.126 94.7902 191.373C94.7256 192.051 94.6649 192.734 94.6084 193.417C94.6084 193.559 94.5841 193.696 94.5761 193.821C94.5168 194.629 94.4643 195.444 94.4185 196.266C94.4185 196.48 94.4185 196.698 94.3902 196.912C94.3633 197.548 94.339 198.182 94.3175 198.815C94.3175 199.053 94.3175 199.292 94.3175 199.53C94.3175 200.359 94.2852 201.191 94.2852 202.023C94.2852 202.023 94.2852 202.051 94.2852 202.064C94.2852 202.961 94.2852 203.849 94.3175 204.738C94.3175 205.045 94.3417 205.352 94.3498 205.66C94.37 206.253 94.3902 206.847 94.4185 207.441C94.4185 207.801 94.4629 208.157 94.4831 208.516C94.5155 209.053 94.5437 209.591 94.5841 210.132C94.6124 210.536 94.6488 210.896 94.6811 211.276C94.7256 211.785 94.766 212.294 94.8185 212.799C94.8549 213.203 94.9033 213.583 94.9437 213.975C95.0003 214.464 95.0528 214.956 95.1134 215.445C95.1619 215.849 95.2185 216.253 95.271 216.637C95.3357 217.114 95.4003 217.595 95.473 218.072C95.5336 218.476 95.5983 218.88 95.6629 219.284C95.7357 219.752 95.8124 220.225 95.8932 220.694C95.966 221.098 96.0387 221.502 96.1155 221.906C96.2003 222.371 96.2892 222.835 96.3781 223.296C96.467 223.756 96.5437 224.104 96.6286 224.508C96.7256 224.969 96.8225 225.425 96.9276 225.882C97.0326 226.338 97.1054 226.69 97.2023 227.066C97.3074 227.522 97.4205 227.975 97.5336 228.423C97.6468 228.872 97.7316 229.211 97.8326 229.599C97.9538 230.051 98.0751 230.5 98.2003 230.948C98.3054 231.352 98.4144 231.724 98.5276 232.108C98.6569 232.556 98.7902 233.001 98.9316 233.445C99.073 233.89 99.166 234.209 99.2872 234.593C99.4084 234.977 99.57 235.478 99.7155 235.918C99.8609 236.359 99.966 236.674 100.095 237.049C100.249 237.49 100.402 237.93 100.56 238.371C100.693 238.738 100.823 239.11 100.964 239.478L101.465 240.799C101.606 241.159 101.744 241.522 101.869 241.882C102.047 242.322 102.229 242.767 102.41 243.207C102.556 243.554 102.697 243.906 102.847 244.253C103.037 244.706 103.251 245.15 103.433 245.599C103.582 245.93 103.728 246.266 103.877 246.597C104.087 247.066 104.309 247.526 104.524 247.987L104.96 248.916C105.206 249.425 105.461 249.926 105.715 250.431C105.845 250.686 105.966 250.944 106.099 251.199C106.875 252.71 107.683 254.201 108.524 255.672C108.641 255.862 108.79 256.108 108.936 256.354Z" fill="#F3AB98"/>
<path d="M94.2423 202.02C94.2423 142.497 142.497 94.2422 202.02 94.2422C261.543 94.2422 309.798 142.497 309.798 202.02C309.813 218.058 306.242 233.897 299.345 248.376C292.449 262.856 282.402 275.61 269.939 285.705C267.728 287.504 265.446 289.213 263.095 290.832C238.788 306.262 208.081 306.262 180.359 303.794C177.669 303.39 174.986 302.881 172.323 302.295C161.685 299.951 151.386 296.335 141.871 291.062C139.519 289.613 137.239 288.048 135.03 286.367C132.81 284.677 130.679 282.873 128.646 280.961C126.723 279.176 124.866 277.32 123.075 275.394C104.512 255.474 94.2064 229.248 94.2423 202.02Z" stroke="#592D3D" stroke-width="5.04706" stroke-miterlimit="10"/>
<path d="M156.008 306.553C119.334 306.553 126.918 352.71 126.566 404.04H156.008V306.553Z" fill="#FDD2B2"/>
<path d="M148.376 336.109L157.576 351.515L152.974 404.04H140.154C139.826 331.204 148.376 336.109 148.376 336.109Z" fill="#F3AB98"/>
<path d="M250.292 432.322H153.75C152.328 432.321 150.964 431.756 149.959 430.749C148.953 429.743 148.389 428.379 148.389 426.957V311.918C148.389 310.496 148.953 309.132 149.959 308.126C150.964 307.12 152.328 306.554 153.75 306.553H247.985C253.274 306.553 255.661 309.648 255.661 314.585V426.941C255.664 427.647 255.526 428.347 255.257 429C254.988 429.653 254.593 430.247 254.094 430.747C253.595 431.247 253.003 431.643 252.35 431.914C251.698 432.184 250.998 432.323 250.292 432.322Z" fill="#FDD2B2"/>
<path d="M254.162 309.745C253.76 309.25 253.419 308.707 253.148 308.129C252.178 307.369 251.024 306.879 249.803 306.711C249.201 306.618 248.593 306.572 247.985 306.573H153.75C152.331 306.574 150.971 307.137 149.966 308.139C148.961 309.141 148.394 310.5 148.389 311.919C160.106 316.129 182.041 318.48 202.021 318.48C227.5 318.48 244.195 314.703 254.162 309.745Z" fill="#F3AB98"/>
<path d="M246.465 306.553C283.136 306.553 275.556 352.71 275.907 404.04H255.653" stroke="#592D3D" stroke-width="5.04706" stroke-miterlimit="10" stroke-linecap="square"/>
<path d="M156.008 306.553C119.334 306.553 126.918 352.71 126.566 404.04H146.796" stroke="#592D3D" stroke-width="5.04706" stroke-miterlimit="10" stroke-linecap="square"/>
<path d="M153.75 306.593L247.984 306.553" stroke="#592D3D" stroke-width="5.04706" stroke-miterlimit="10"/>
<path d="M153.75 432.323H200.869C156.768 432.323 160.098 338.917 148.389 338.917V426.941C148.387 427.647 148.524 428.346 148.792 428.999C149.061 429.651 149.455 430.244 149.953 430.744C150.451 431.244 151.043 431.641 151.694 431.912C152.346 432.183 153.045 432.323 153.75 432.323Z" fill="#F3AB98"/>
<path d="M145.965 347.818C145.888 346.335 145.92 344.852 145.985 343.374C146.049 341.895 146.175 340.404 146.332 338.929C146.413 338.186 146.494 337.446 146.595 336.703C146.696 335.96 146.793 335.22 146.938 334.477C147.225 332.938 147.713 331.444 148.389 330.032C149.065 331.444 149.553 332.938 149.839 334.477C149.985 335.22 150.09 335.96 150.183 336.703C150.276 337.446 150.365 338.186 150.445 338.929C150.599 340.412 150.72 341.895 150.789 343.374C150.858 344.852 150.89 346.339 150.813 347.818H145.965Z" fill="#592D3D"/>
<path d="M255.653 351.514V354.747C255.758 368.484 255.758 382.625 255.653 396.262C255.653 397.421 255.653 398.573 255.653 399.708V426.945C255.654 427.65 255.517 428.349 255.248 429.001C254.98 429.653 254.585 430.246 254.087 430.745C253.589 431.245 252.998 431.641 252.346 431.912C251.695 432.182 250.997 432.322 250.291 432.322H153.75C152.328 432.321 150.964 431.756 149.958 430.749C148.953 429.743 148.388 428.379 148.388 426.957V403.442C148.388 402.428 148.388 401.393 148.388 400.351C148.287 386.262 148.287 372.12 148.388 357.805V347.817" stroke="#592D3D" stroke-width="5.04706" stroke-miterlimit="10"/>
<path d="M253.229 351.514C253.152 349.829 253.188 348.14 253.253 346.452C253.318 344.763 253.443 343.078 253.596 341.389C253.677 340.544 253.762 339.7 253.859 338.856C253.956 338.011 254.057 337.171 254.203 336.326C254.484 334.587 254.971 332.888 255.653 331.264C256.335 332.888 256.822 334.587 257.104 336.326C257.249 337.171 257.354 338.015 257.447 338.856C257.54 339.696 257.629 340.544 257.71 341.389C257.863 343.078 257.988 344.763 258.053 346.452C258.118 348.14 258.154 349.829 258.077 351.514H253.229Z" fill="#592D3D"/>
<path d="M230.578 340.383C230.667 336.565 235.516 334.949 237.94 337.373C238.334 337.775 238.645 338.251 238.855 338.773C239.065 339.296 239.17 339.854 239.164 340.417C239.158 340.98 239.042 341.537 238.821 342.054C238.6 342.572 238.279 343.042 237.877 343.436C237.475 343.83 236.999 344.14 236.477 344.351C235.954 344.561 235.396 344.666 234.833 344.66C234.27 344.654 233.714 344.537 233.196 344.317C232.678 344.096 232.208 343.775 231.815 343.373C231.421 342.981 231.109 342.515 230.897 342.002C230.685 341.489 230.576 340.938 230.578 340.383Z" fill="#592D3D"/>
<path d="M164.894 340.262C164.809 336.969 168.446 335.353 170.87 336.565C174.102 337.777 174.102 342.221 170.87 344.242C169.254 345.05 167.637 344.242 166.122 343.24C165.732 342.849 165.422 342.384 165.211 341.873C165 341.362 164.893 340.815 164.894 340.262Z" fill="#592D3D"/>
<path d="M202.021 336.068C202.31 336.83 202.513 337.621 202.627 338.428C202.747 339.209 202.813 339.997 202.825 340.788L202.946 345.511C202.982 347.082 203.031 348.658 203.047 350.234L203.116 354.949C203.209 361.24 203.205 367.539 203.229 373.834C203.253 380.129 203.302 386.424 203.229 392.719C203.193 395.866 203.108 399.014 203.015 402.161C202.974 403.733 202.898 405.309 202.744 406.88C202.607 408.469 202.368 410.046 202.029 411.604C201.69 410.046 201.451 408.469 201.314 406.88C201.16 405.309 201.083 403.733 201.043 402.161C200.95 399.014 200.865 395.866 200.829 392.719C200.748 386.424 200.829 380.129 200.829 373.834C200.829 367.539 200.829 361.248 200.902 354.953L200.97 350.226L201.104 345.507L201.237 340.788C201.252 339.997 201.319 339.209 201.439 338.428C201.545 337.622 201.74 336.831 202.021 336.068Z" fill="#F3AB98"/>
<path d="M171.807 356.767C172.406 356.482 173.04 356.279 173.694 356.161C174.317 356.044 174.95 355.977 175.584 355.959L179.362 355.826L186.918 355.66C191.952 355.583 196.982 355.563 202.021 355.551C207.059 355.539 212.094 355.487 217.128 355.551C219.645 355.588 222.162 355.672 224.683 355.765C225.94 355.81 227.201 355.887 228.457 356.036C229.733 356.178 230.996 356.418 232.235 356.755C230.997 357.095 229.734 357.334 228.457 357.47C227.201 357.624 225.94 357.701 224.683 357.741C222.162 357.834 219.645 357.915 217.128 357.951C212.094 358.028 207.059 357.951 202.021 357.951C196.982 357.951 191.948 357.951 186.91 357.891C184.393 357.866 181.875 357.786 179.362 357.689L175.584 357.551C174.951 357.534 174.32 357.467 173.698 357.349C173.044 357.24 172.408 357.044 171.807 356.767Z" fill="#F3AB98"/>
<path d="M178.752 369.446C179.229 369.219 179.739 369.067 180.263 368.998C180.747 368.93 181.237 368.909 181.726 368.937C182.691 368.978 183.657 369.002 184.623 369.022C186.554 369.067 188.485 369.083 190.417 369.091C194.308 369.091 198.13 369.123 202.037 369.006C205.944 368.889 209.819 368.832 213.705 368.848C215.649 368.848 217.592 368.901 219.532 368.945C220.508 368.958 221.483 369.022 222.453 369.135C223.45 369.245 224.434 369.452 225.39 369.753C224.456 370.12 223.487 370.391 222.497 370.562C221.534 370.735 220.561 370.851 219.584 370.909C217.637 371.05 215.689 371.172 213.746 371.24C209.851 371.386 205.96 371.37 202.077 371.422C200.134 371.422 198.194 371.511 196.227 371.463C194.259 371.414 192.312 371.41 190.36 371.337C188.409 371.265 186.449 371.103 184.501 370.901C183.524 370.792 182.554 370.671 181.58 370.537C181.088 370.477 180.605 370.363 180.138 370.198C179.636 370.028 179.168 369.774 178.752 369.446Z" fill="#F3AB98"/>
<path d="M177.346 383.785C177.825 383.503 178.346 383.298 178.889 383.179C179.396 383.061 179.913 382.995 180.433 382.981L183.515 382.852C185.572 382.779 187.633 382.718 189.689 382.686C193.802 382.625 197.915 382.625 202.02 382.625C206.126 382.625 210.247 382.557 214.36 382.625C216.416 382.662 218.473 382.746 220.53 382.839C221.561 382.874 222.59 382.963 223.612 383.106C224.665 383.251 225.701 383.495 226.707 383.837C225.705 384.173 224.672 384.412 223.624 384.553C222.601 384.699 221.571 384.789 220.538 384.823C218.481 384.916 216.424 385.001 214.368 385.037C210.255 385.118 206.138 385.062 202.024 385.037C197.911 385.013 193.798 385.013 189.685 384.936C187.629 384.896 185.568 384.823 183.511 384.738L180.429 384.589C179.909 384.573 179.392 384.505 178.885 384.387C178.343 384.27 177.823 384.066 177.346 383.785Z" fill="#F3AB98"/>
<path d="M273.859 366.202C273.944 351.208 273.37 337.891 270.736 327.66C266.667 317.414 259.35 311.305 246.465 311.305L255.673 365.656C255.673 365.656 264.772 369.794 273.859 366.202Z" fill="#F3AB98"/>
<path d="M277.339 361.935C276.878 362.315 276.376 362.645 275.844 362.916" stroke="#592D3D" stroke-width="5.04706" stroke-miterlimit="10" stroke-linecap="square"/>
<path d="M131.764 327.224C129.004 337.556 128.531 351.115 128.636 366.416C136.677 369.867 149.008 365.548 149.008 365.548L156.01 312.117C143.537 312.105 136.103 317.721 131.764 327.224Z" fill="#F3AB98"/>
<path d="M247.985 306.553H226.082V306.593C226.082 308.412 225.887 310.226 225.5 312.003C225.312 312.868 225.077 313.722 224.797 314.561C223.903 317.068 222.531 319.377 220.756 321.361C220.19 321.997 219.583 322.594 218.938 323.151C208.768 330.504 192.607 330.908 182.785 322.916C181.726 321.992 180.764 320.963 179.912 319.846C178.143 317.523 176.889 314.849 176.235 312.003C176.044 311.124 175.899 310.235 175.803 309.341C175.702 308.428 175.652 307.511 175.653 306.593V306.553H153.75C152.328 306.554 150.964 307.12 149.959 308.126C148.953 309.132 148.389 310.496 148.389 311.918V426.941C148.387 427.646 148.524 428.345 148.792 428.998C149.061 429.651 149.455 430.244 149.953 430.744C150.451 431.244 151.043 431.64 151.694 431.911C152.346 432.182 153.045 432.322 153.75 432.322H250.292C251.714 432.321 253.078 431.756 254.083 430.749C255.089 429.743 255.653 428.379 255.653 426.957V314.585C255.653 309.648 253.274 306.553 247.985 306.553Z" fill="white"/>
<path d="M246.465 306.553C272.138 306.553 276.121 329.179 276.323 360.359C268.808 365.054 256.562 360.888 256.562 360.888L246.465 306.553Z" fill="white"/>
<path d="M255.653 336.109L246.465 351.515L251.063 404.04H255.754V361.354L262.736 362.521C260.445 333.362 255.653 336.109 255.653 336.109Z" fill="#E2E2E2"/>
<path d="M156.009 306.553C131.048 306.553 125.371 328.29 124.959 358.133C132.636 366.157 148.393 359.983 148.393 359.983L156.009 306.553Z" fill="white"/>
<path d="M148.377 336.109V360L141.383 361.741C143.674 333.41 148.377 336.109 148.377 336.109Z" fill="#E2E2E2"/>
<path d="M246.465 306.553C273.701 306.553 278.162 329.296 278.344 360.605C267.758 365.627 256.562 360.888 256.562 360.888" stroke="#592D3D" stroke-width="5.04706" stroke-miterlimit="10" stroke-linecap="square"/>
<path d="M156.009 306.553C129.023 306.553 123.654 328.654 123.379 359.369C131.718 365.341 148.373 359.999 148.373 359.999" stroke="#592D3D" stroke-width="5.04706" stroke-miterlimit="10" stroke-linecap="square"/>
<path d="M153.75 432.323H200.869C156.768 432.323 160.098 338.917 148.389 338.917V426.941C148.387 427.647 148.524 428.346 148.792 428.999C149.061 429.651 149.455 430.244 149.953 430.744C150.451 431.244 151.043 431.641 151.694 431.912C152.346 432.183 153.045 432.323 153.75 432.323Z" fill="#E2E2E2"/>
<path d="M145.965 347.818C145.888 346.335 145.92 344.852 145.985 343.374C146.049 341.895 146.175 340.404 146.332 338.929C146.413 338.186 146.494 337.446 146.595 336.703C146.696 335.96 146.793 335.22 146.938 334.477C147.225 332.938 147.713 331.444 148.389 330.032C149.066 331.443 149.552 332.938 149.835 334.477C149.985 335.22 150.09 335.96 150.183 336.703C150.276 337.446 150.365 338.186 150.445 338.929C150.599 340.412 150.72 341.895 150.789 343.374C150.858 344.852 150.89 346.339 150.813 347.818H145.965Z" fill="#592D3D"/>
<path d="M255.653 351.514V354.747C255.758 368.484 255.758 382.625 255.653 396.262C255.653 397.421 255.653 398.573 255.653 399.708V426.945C255.654 427.65 255.517 428.349 255.248 429.001C254.98 429.653 254.585 430.246 254.087 430.745C253.589 431.245 252.998 431.641 252.346 431.912C251.695 432.182 250.997 432.322 250.291 432.322H153.75C152.328 432.321 150.964 431.756 149.958 430.749C148.953 429.743 148.388 428.379 148.388 426.957V403.442C148.388 402.428 148.388 401.393 148.388 400.351C148.287 386.262 148.287 372.12 148.388 357.805V347.817" stroke="#592D3D" stroke-width="5.04706" stroke-miterlimit="10"/>
<path d="M253.229 351.514C253.152 349.829 253.188 348.14 253.253 346.452C253.318 344.763 253.443 343.078 253.596 341.389C253.677 340.544 253.762 339.7 253.859 338.856C253.956 338.011 254.057 337.171 254.207 336.326C254.485 334.587 254.97 332.887 255.653 331.264C256.335 332.888 256.822 334.587 257.104 336.326C257.249 337.171 257.354 338.015 257.447 338.856C257.54 339.696 257.629 340.544 257.71 341.389C257.863 343.078 257.988 344.763 258.053 346.452C258.118 348.14 258.154 349.829 258.077 351.514H253.229Z" fill="#592D3D"/>
<path d="M153.75 306.593L247.984 306.553" stroke="#592D3D" stroke-width="5.04706" stroke-miterlimit="10"/>
<path d="M226.083 306.594C226.083 308.413 225.888 310.227 225.501 312.004C225.313 312.868 225.078 313.722 224.798 314.561C223.904 317.068 222.532 319.378 220.757 321.361C220.191 321.997 219.584 322.595 218.939 323.151C208.769 330.505 192.608 330.909 182.786 322.917C181.727 321.992 180.765 320.964 179.913 319.846C178.144 317.523 176.89 314.85 176.236 312.004C176.045 311.125 175.9 310.236 175.804 309.341C175.703 308.429 175.653 307.512 175.654 306.594" stroke="#592D3D" stroke-width="5.04706" stroke-miterlimit="10"/>
<path d="M203.396 334.703C200.951 335.194 198.451 335.344 195.965 335.147C193.457 334.971 190.984 334.46 188.612 333.628C186.225 332.81 183.977 331.633 181.945 330.137L181.194 329.567C180.947 329.374 180.709 329.163 180.47 328.953C179.99 328.545 179.541 328.102 179.125 327.628C178.295 326.696 177.567 325.679 176.951 324.594C177.816 325.461 178.725 326.282 179.674 327.054C179.909 327.248 180.147 327.438 180.381 327.62C180.616 327.802 180.878 327.951 181.125 328.121C181.371 328.291 181.618 328.46 181.872 328.618L182.644 329.087C184.705 330.308 186.885 331.318 189.149 332.101C191.418 332.894 193.749 333.496 196.119 333.899C198.529 334.293 200.958 334.562 203.396 334.703Z" fill="#592D3D"/>
<path d="M124.377 360.605C124.836 361.024 125.334 361.399 125.864 361.725" stroke="#592D3D" stroke-width="5.04706" stroke-miterlimit="10" stroke-linecap="square"/>
<path d="M272.608 356.642C271.767 357.145 270.842 357.49 269.877 357.66C268.919 357.848 267.944 357.936 266.968 357.922C265.993 357.903 265.022 357.797 264.067 357.603C263.59 357.518 263.125 357.377 262.657 357.252C262.188 357.126 261.739 356.941 261.295 356.751C261.784 356.751 262.257 356.823 262.733 356.864L264.156 356.981C264.628 356.981 265.097 357.062 265.57 357.066C266.042 357.07 266.507 357.11 266.976 357.114C267.918 357.13 268.861 357.105 269.804 357.038C270.747 356.972 271.684 356.84 272.608 356.642Z" fill="#592D3D"/>
<path d="M202.009 375.874C204.789 375.874 207.043 373.62 207.043 370.84C207.043 368.06 204.789 365.806 202.009 365.806C199.229 365.806 196.975 368.06 196.975 370.84C196.975 373.62 199.229 375.874 202.009 375.874Z" fill="black" stroke="white" stroke-width="10.0941"/>
<path d="M119.795 231.356V226.132C119.164 222.712 119.435 219.186 120.579 215.902C120.956 214.83 121.431 213.796 121.997 212.811C123.351 209.292 126.987 206.464 130.624 205.251C136.28 203.635 143.149 204.443 147.593 208.888C153.25 214.948 152.442 223.837 152.624 231.361" stroke="#592D3D" stroke-width="5.04706" stroke-miterlimit="10" stroke-linecap="round"/>
<path d="M251.843 231.514C250.898 220.759 252.514 205.809 266.441 204.375C267.532 204.276 268.63 204.276 269.722 204.375C273.009 204.66 276.15 205.861 278.788 207.842C286.061 213.902 284.445 223.599 284.425 231.53" stroke="#592D3D" stroke-width="5.04706" stroke-miterlimit="10" stroke-linecap="round"/>
<path d="M187.375 239.664C193.658 239.664 197.525 244.82 202.119 244.82C206.713 244.82 212.587 239.664 218.793 239.664C225 239.664 228.377 244.157 228.377 250.379C228.377 257.106 221.61 268.965 203.084 268.965C184.559 268.965 176.66 257.757 176.66 250.601C176.66 243.995 181.092 239.664 187.375 239.664Z" fill="white" stroke="#592D3D" stroke-width="5.04706" stroke-miterlimit="10"/>
<path d="M193.072 241.05V267.514" stroke="#592D3D" stroke-width="5.04706" stroke-miterlimit="10"/>
<path d="M212.926 241.05V267.514" stroke="#592D3D" stroke-width="5.04706" stroke-miterlimit="10"/>
<path d="M294.736 167.28H117.266V193.199H294.736V167.28Z" fill="#F3AB98"/>
<path d="M286.87 269.761C285.601 271.329 284.293 272.86 282.946 274.355C281.936 275.474 283.989 273.902 286.87 269.761ZM292.93 141.862C280.607 119.878 259.193 104.743 234.433 97.777L231.868 97.0861C222.696 94.5487 213.031 94.2578 203.051 94.2578C192.268 94.2578 181.855 95.3649 172.033 98.2982L170.312 98.8113C135.419 110.553 106.579 140.096 99.0151 173.656C86.0615 224.783 106.219 256.161 124.11 275.393C125.876 277.292 100.704 234.242 117.072 188.12C120.195 188.003 125.249 187.914 131.694 187.85L137.956 167.401L145.003 187.757C156.074 187.704 169.197 187.696 182.934 187.708L187.912 166.553L193.536 187.716C223.585 187.773 254.724 187.927 272.437 188.028L277.771 166.949L283.831 188.092L287.148 188.112C307.387 231.11 294.344 259.042 286.87 269.761C302.402 250.604 310.863 226.682 310.829 202.019C310.829 167.102 292.93 141.862 292.93 141.862Z" fill="white"/>
<path d="M131.37 187.845C131.734 164.472 139.402 136.763 158.126 104.031C157.029 104.538 155.944 105.06 154.869 105.599L154.631 105.716C154.138 105.963 153.645 106.217 153.156 106.476L152.752 106.69C151.233 107.498 149.734 108.337 148.255 109.207L147.891 109.421C147.423 109.7 146.958 109.983 146.493 110.27L146.146 110.488C144.699 111.39 143.277 112.324 141.879 113.288L141.443 113.591C141.006 113.898 140.57 114.205 140.138 114.516L139.875 114.706C138.994 115.35 138.123 116.002 137.261 116.662L137.01 116.855C136.606 117.171 136.202 117.494 135.798 117.821L135.322 118.201C134.917 118.528 134.513 118.855 134.109 119.191C133.257 119.898 132.421 120.625 131.588 121.361L131.128 121.765L130.041 122.754L129.507 123.231C128.357 124.309 127.23 125.409 126.126 126.532L125.572 127.102C125.249 127.433 124.93 127.765 124.614 128.1L124.061 128.698C123.509 129.301 122.963 129.903 122.425 130.504C122.239 130.71 122.053 130.908 121.871 131.126C121.584 131.453 121.301 131.785 121.018 132.116L120.404 132.847C120.13 133.175 119.855 133.502 119.596 133.833C119.378 134.1 119.164 134.371 118.946 134.641C118.517 135.179 118.093 135.716 117.673 136.258C117.451 136.54 117.233 136.823 117.018 137.11C116.804 137.397 116.534 137.752 116.295 138.08L115.653 138.961C115.427 139.276 115.196 139.587 114.974 139.902C114.594 140.443 114.214 140.989 113.843 141.538C113.641 141.833 113.439 142.136 113.245 142.435C113.051 142.734 112.796 143.106 112.578 143.445C112.36 143.785 112.174 144.068 111.98 144.379C111.786 144.69 111.524 145.106 111.297 145.474C111.124 145.752 110.95 146.031 110.78 146.31C110.425 146.9 110.074 147.493 109.73 148.088C109.56 148.379 109.398 148.67 109.233 148.961C109.014 149.344 108.796 149.732 108.582 150.12C108.421 150.415 108.259 150.71 108.101 151.005C107.843 151.486 107.588 151.971 107.338 152.455C107.172 152.771 107.01 153.086 106.849 153.401C106.59 153.918 106.332 154.431 106.081 154.952C105.944 155.231 105.81 155.514 105.677 155.797C105.467 156.237 105.273 156.682 105.055 157.126L104.687 157.934C104.388 158.6 104.096 159.273 103.81 159.954C103.722 160.165 103.637 160.379 103.548 160.589C103.334 161.102 103.144 161.615 102.917 162.132C102.808 162.403 102.703 162.674 102.598 162.94C102.4 163.449 102.194 163.963 102.012 164.476L101.766 165.142C101.497 165.851 101.246 166.559 101.014 167.268L100.788 167.954C100.61 168.493 100.437 169.032 100.267 169.571C100.186 169.825 100.105 170.084 100.029 170.342C99.8347 170.965 99.6488 171.588 99.471 172.213C99.4306 172.346 99.3902 172.48 99.3538 172.617C99.1437 173.361 98.9417 174.107 98.7478 174.855L98.566 175.575C98.4892 175.874 98.4165 176.177 98.3437 176.48C97.7134 179.183 97.1801 181.825 96.7276 184.411C96.6872 184.678 96.6387 184.94 96.5983 185.219L96.5013 185.833C96.3801 186.622 96.2697 187.414 96.17 188.209C96.1458 188.383 96.1256 188.561 96.1054 188.734C96.0245 189.377 95.9518 190.023 95.8831 190.67L95.8104 191.401C95.7417 192.08 95.6811 192.763 95.6286 193.445L95.5922 193.849C95.5303 194.658 95.4791 195.472 95.4387 196.294C95.4387 196.508 95.4185 196.726 95.4064 196.94C95.3767 197.576 95.3525 198.21 95.3336 198.843C95.3336 199.082 95.3336 199.32 95.3134 199.559C95.3134 200.387 95.2852 201.219 95.2852 202.051V202.092C95.2852 202.989 95.2852 203.878 95.3175 204.767C95.3175 205.074 95.3417 205.381 95.3498 205.688C95.37 206.282 95.3902 206.876 95.4185 207.47C95.4387 207.829 95.4629 208.185 95.4831 208.544C95.5155 209.082 95.5478 209.619 95.5841 210.161L95.6811 211.304C95.7256 211.813 95.766 212.322 95.8185 212.827C95.8548 213.231 95.9033 213.611 95.9437 214.003C96.0003 214.492 96.0528 214.985 96.1134 215.474C96.1619 215.878 96.2185 216.282 96.271 216.666C96.3357 217.142 96.4043 217.623 96.473 218.1C96.5336 218.504 96.5983 218.908 96.6629 219.312C96.7397 219.781 96.8124 220.253 96.8973 220.722C96.966 221.126 97.0387 221.53 97.1155 221.934C97.2003 222.399 97.2892 222.864 97.3821 223.324C97.4751 223.785 97.5437 224.132 97.6286 224.536C97.7256 224.997 97.8225 225.453 97.9276 225.91C98.0326 226.367 98.1094 226.718 98.2023 227.094C98.3114 227.55 98.4205 228.003 98.5336 228.451C98.6468 228.9 98.7316 229.239 98.8367 229.631C98.9417 230.023 99.0751 230.528 99.2003 230.977C99.3054 231.381 99.4144 231.752 99.5276 232.136C99.6569 232.585 99.7902 233.029 99.9316 233.474C100.073 233.918 100.162 234.237 100.283 234.621C100.404 235.005 100.57 235.506 100.715 235.946C100.841 236.322 100.962 236.702 101.091 237.078C101.245 237.518 101.398 237.959 101.556 238.399L101.96 239.506C102.126 239.946 102.295 240.387 102.465 240.827C102.602 241.187 102.74 241.55 102.869 241.91C103.047 242.35 103.229 242.795 103.41 243.235C103.556 243.583 103.697 243.934 103.847 244.282C104.041 244.734 104.251 245.179 104.437 245.627C104.582 245.963 104.728 246.294 104.877 246.625C105.087 247.094 105.309 247.554 105.528 248.015C105.673 248.326 105.814 248.637 105.964 248.944C106.206 249.453 106.461 249.954 106.715 250.46L107.099 251.227C107.875 252.738 108.683 254.229 109.524 255.7C109.669 255.95 109.818 256.197 109.964 256.443C110.247 256.928 110.526 257.413 110.816 257.89C110.994 258.181 111.176 258.464 111.354 258.754C111.621 259.187 111.887 259.619 112.162 260.043C112.356 260.35 112.566 260.649 112.756 260.948C113.018 261.352 113.285 261.757 113.564 262.161C113.77 262.468 113.968 262.775 114.194 263.082C114.461 263.486 114.728 263.858 115.002 264.245C115.221 264.557 115.447 264.864 115.669 265.175C115.891 265.486 116.21 265.922 116.477 266.294C116.744 266.666 116.942 266.912 117.172 267.219L118.008 268.31C118.247 268.617 118.489 268.92 118.732 269.223C118.974 269.526 119.301 269.934 119.588 270.286C119.875 270.637 120.085 270.888 120.336 271.187C120.586 271.486 120.917 271.882 121.212 272.225L121.984 273.114L122.881 274.124C123.144 274.419 123.41 274.706 123.689 274.997C123.851 275.175 124.016 275.348 124.182 275.526C125.14 276.08 100.958 233.631 117.083 188.193C120.138 187.995 125.079 187.91 131.37 187.845Z" fill="#E2E2E2"/>
<path d="M238 100.58C239.114 97.3858 240.779 94.4114 242.921 91.7925C243.475 91.1501 244.02 90.4956 244.602 89.8774C245.184 89.2592 245.814 88.6652 246.432 88.0956C247.051 87.5259 247.729 86.9925 248.404 86.4794C249.079 85.9663 249.782 85.4693 250.493 85.0046C251.204 84.54 251.947 84.1117 252.703 83.7158L253.842 83.138C254.218 82.9366 254.604 82.7546 254.998 82.5925C255.806 82.2855 256.57 81.938 257.378 81.6673C258.186 81.3966 258.994 81.1339 259.802 80.936C263.078 80.0843 266.477 79.8109 269.846 80.1279C266.55 80.4455 263.298 81.1229 260.149 82.1481C259.745 82.2531 259.382 82.4309 258.998 82.5521L257.846 82.9562C257.087 83.2511 256.356 83.6228 255.608 83.9461C254.861 84.2693 254.162 84.6935 253.434 85.0652C252.707 85.437 252.044 85.9097 251.345 86.3259C250.646 86.742 250 87.2471 249.325 87.7036C248.651 88.1602 248.053 88.7218 247.402 89.2188C246.752 89.7158 246.19 90.3016 245.572 90.8349L243.842 92.5764C241.604 95.0192 239.644 97.7038 238 100.58Z" fill="white"/>
<path d="M210.145 100.675C204.39 101.004 198.659 101.67 192.982 102.666C191.572 102.941 190.154 103.24 188.764 103.499C187.374 103.757 185.976 104.149 184.582 104.472L180.432 105.571C179.063 105.976 177.701 106.412 176.335 106.828C170.887 108.585 165.564 110.709 160.404 113.188C155.218 115.704 150.191 118.538 145.354 121.672C149.662 117.741 154.42 114.331 159.527 111.515C164.637 108.658 170.018 106.316 175.592 104.525C176.994 104.121 178.392 103.685 179.802 103.293C181.212 102.901 182.63 102.557 184.061 102.246C185.491 101.935 186.929 101.677 188.368 101.438C189.806 101.2 191.257 101.002 192.707 100.824C198.495 100.11 204.346 100.06 210.145 100.675Z" fill="white"/>
<path d="M214.074 94.4766C216.118 93.9875 218.211 93.7273 220.313 93.7008C221.347 93.6766 222.377 93.7008 223.412 93.7534C224.446 93.8059 225.48 93.8746 226.515 93.9635C228.597 94.1439 230.667 94.4406 232.717 94.8524C234.791 95.2554 236.829 95.8283 238.81 96.5655L237.238 101.151C235.371 100.594 233.5 100.028 231.601 99.5069C229.703 98.9857 227.783 98.4928 225.844 98.0079L222.915 97.2968C221.933 97.0665 220.947 96.8322 219.965 96.5655C217.942 96.0494 215.97 95.3502 214.074 94.4766Z" fill="#592D3D"/>
<path d="M286.87 269.761C285.601 271.329 284.293 272.86 282.946 274.355C281.936 275.474 283.989 273.902 286.87 269.761ZM286.87 269.761C294.344 259.042 307.387 231.11 287.148 188.112L283.831 188.092L277.771 166.949L272.437 188.028C254.724 187.927 223.585 187.773 193.536 187.716L187.912 166.553L182.934 187.708C169.197 187.696 156.074 187.704 145.003 187.757L137.956 167.401L131.694 187.85C125.249 187.914 120.195 188.003 117.072 188.12C100.704 234.242 125.876 277.292 124.11 275.393C106.219 256.161 86.0615 224.783 99.0151 173.656C106.579 140.096 135.419 110.553 170.312 98.8113L172.033 98.2982C181.855 95.3649 192.268 94.2578 203.051 94.2578C213.031 94.2578 222.696 94.5487 231.868 97.0861L234.433 97.777C259.193 104.743 280.607 119.878 292.93 141.862C292.93 141.862 310.829 167.102 310.829 202.019C310.863 226.682 302.402 250.604 286.87 269.761Z" stroke="#592D3D" stroke-width="5.04706" stroke-miterlimit="10"/>
<path d="M114.941 187.01C115.014 186.707 115.075 186.477 115.156 186.226C115.236 185.976 115.317 185.741 115.406 185.507C115.592 185.034 115.81 184.574 116.016 184.125C116.467 183.222 116.987 182.354 117.572 181.531C118.149 180.693 118.81 179.914 119.543 179.208C120.343 178.45 121.313 177.896 122.372 177.592C122.384 178.637 122.266 179.679 122.02 180.695C121.907 181.155 121.782 181.604 121.644 182.036L121.24 183.349C120.971 184.219 120.702 185.08 120.432 185.931C120.299 186.359 120.158 186.776 120.028 187.196C119.96 187.402 119.879 187.6 119.802 187.814C119.725 188.028 119.644 188.218 119.576 188.38L114.941 187.01Z" fill="#592D3D"/>
<path d="M287.145 185.688C287.983 185.621 288.825 185.63 289.662 185.712C290.508 185.785 291.349 185.901 292.183 186.06C292.587 186.141 293.023 186.222 293.444 186.319C293.869 186.408 294.289 186.524 294.7 186.666C295.627 186.979 296.483 187.47 297.221 188.112C296.483 188.754 295.626 189.247 294.7 189.563C294.289 189.704 293.869 189.818 293.444 189.906C293.039 190.007 292.603 190.088 292.183 190.169C291.343 190.325 290.502 190.441 289.662 190.516C288.825 190.598 287.983 190.605 287.145 190.537V185.688Z" fill="#592D3D"/>
<path d="M179.734 182.654C179.831 180.725 180.032 178.803 180.336 176.896C180.627 174.998 180.983 173.111 181.391 171.24C181.799 169.369 182.26 167.503 182.781 165.652C183.303 163.789 183.926 161.956 184.648 160.161C184.55 162.09 184.348 164.012 184.041 165.919C183.751 167.818 183.399 169.703 182.987 171.575C182.575 173.447 182.111 175.31 181.597 177.163C181.072 179.025 180.451 180.858 179.734 182.654Z" fill="white"/>
<path d="M269.9 182.654C269.999 180.725 270.2 178.803 270.502 176.896C270.796 174.997 271.148 173.112 271.557 171.24C271.966 169.368 272.423 167.506 272.927 165.656C273.442 163.795 274.059 161.963 274.773 160.169C274.677 162.098 274.476 164.02 274.171 165.927C273.875 167.826 273.523 169.711 273.117 171.583C272.713 173.458 272.244 175.32 271.723 177.171C271.213 179.03 270.605 180.86 269.9 182.654Z" fill="white"/>
<path d="M242.785 186.088C247.247 184.951 251.766 184.054 256.324 183.401L255.249 183.543C260.575 182.84 265.973 182.633 271.31 183.349L270.235 183.203C271.557 183.389 272.878 183.607 274.203 183.777L273.128 183.631C277.15 184.183 281.13 185.007 285.039 186.1C287.06 186.662 289.524 185.401 290.009 183.272C290.273 182.238 290.126 181.143 289.598 180.216C289.071 179.289 288.204 178.603 287.181 178.302C282.596 177.047 277.925 176.131 273.205 175.563L274.28 175.708C269.823 174.917 265.288 174.653 260.769 174.92C256.274 175.215 251.806 175.83 247.399 176.759C245.128 177.215 242.874 177.741 240.627 178.294C238.575 178.799 237.144 181.227 237.799 183.264C238.1 184.287 238.786 185.154 239.713 185.681C240.64 186.209 241.735 186.356 242.769 186.092L242.785 186.088Z" fill="#592D3D"/>
<path d="M115.612 186.1C119.485 184.977 123.435 184.141 127.431 183.599L126.356 183.745C133.247 182.843 140.227 182.853 147.115 183.777L146.041 183.636C150.059 184.184 154.035 185.007 157.94 186.1C159.96 186.666 162.425 185.401 162.909 183.272C163.173 182.239 163.026 181.143 162.499 180.216C161.971 179.289 161.104 178.603 160.081 178.302C154.245 176.679 148.263 175.637 142.222 175.191C132.523 174.56 122.787 175.614 113.447 178.307C112.434 178.6 111.568 179.263 111.022 180.165C110.483 181.108 110.338 182.226 110.618 183.276C111.285 185.341 113.41 186.727 115.588 186.105L115.612 186.1Z" fill="#592D3D"/>
<path fill-rule="evenodd" clip-rule="evenodd" d="M214.05 351.225C211.478 350.102 208.637 349.478 205.651 349.478C194.053 349.478 184.651 358.88 184.651 370.478C184.651 371.056 184.675 371.629 184.72 372.195C183.508 369.752 182.826 366.999 182.826 364.087C182.826 354.002 191.002 345.826 201.087 345.826C206.155 345.826 210.741 347.891 214.05 351.225Z" fill="#AD00FF" fill-opacity="0.2"/>
<path fill-rule="evenodd" clip-rule="evenodd" d="M202 386C213.598 386 223 376.598 223 365C223 353.402 213.598 344 202 344C201.337 344 200.682 344.031 200.035 344.091C207.813 344.932 213.868 351.52 213.868 359.522C213.868 368.094 206.919 375.043 198.347 375.043C189.774 375.043 182.825 368.094 182.825 359.522C182.825 358.003 183.043 356.536 183.449 355.149C181.886 358.087 181 361.44 181 365C181 376.598 190.402 386 202 386Z" fill="#AD00FF"/>
</g>
</svg>
