<svg width="405" height="391" viewBox="0 0 405 391" fill="none" xmlns="http://www.w3.org/2000/svg">
<mask id="mask0_1170_85224" style="mask-type:luminance" maskUnits="userSpaceOnUse" x="0" y="0" width="405" height="391">
<path d="M404.04 0H0V290.226H72.404C87.9111 347.754 140.061 390.065 202.02 390.065C263.98 390.065 316.129 347.754 331.636 290.226H404.04V0Z" fill="white"/>
</mask>
<g mask="url(#mask0_1170_85224)">
<path d="M202.021 388.93C276.204 388.93 336.341 328.793 336.341 254.61C336.341 180.427 276.204 120.29 202.021 120.29C127.838 120.29 67.7012 180.427 67.7012 254.61C67.7012 328.793 127.838 388.93 202.021 388.93Z" fill="#AD00FF"/>
<path d="M202.712 84.6543C135.584 84.6543 81.1641 139.07 81.1641 206.202V330.012C81.1641 397.139 135.584 451.559 202.712 451.559C269.839 451.559 324.259 397.139 324.259 330.012V206.202C324.259 139.07 269.839 84.6543 202.712 84.6543Z" fill="white" stroke="#592D3D" stroke-width="5.04706" stroke-miterlimit="10"/>
<path d="M246.465 306.554C283.136 306.554 275.556 352.711 275.907 404.041H246.465V306.554Z" fill="#FBE8B3"/>
<path d="M255.653 336.109L246.465 351.515L251.063 404.04H263.895C264.206 331.204 255.653 336.109 255.653 336.109Z" fill="#EDD494"/>
<path d="M94.2442 202.02C94.2442 142.497 142.499 94.2422 202.022 94.2422C261.545 94.2422 309.8 142.497 309.8 202.02C309.815 218.058 306.244 233.897 299.347 248.376C292.451 262.856 282.404 275.61 269.941 285.705C267.73 287.504 265.448 289.213 263.097 290.832C238.79 306.262 208.083 306.262 180.361 303.794C177.671 303.39 174.988 302.881 172.325 302.295C161.687 299.951 151.388 296.335 141.873 291.062C139.521 289.613 137.241 288.048 135.032 286.367C132.812 284.677 130.681 282.873 128.648 280.961C126.725 279.176 124.868 277.32 123.077 275.394C104.514 255.474 94.2083 229.248 94.2442 202.02Z" fill="#FBE8B3"/>
<path d="M108.936 256.355C109.218 256.84 109.497 257.325 109.788 257.802C109.962 258.093 110.144 258.376 110.326 258.667C110.592 259.099 110.859 259.531 111.134 259.955C111.328 260.263 111.538 260.562 111.724 260.861C111.99 261.265 112.257 261.669 112.532 262.073C112.738 262.38 112.936 262.687 113.162 262.994C113.429 263.398 113.695 263.77 113.97 264.157C114.188 264.469 114.414 264.776 114.637 265.087C114.859 265.398 115.178 265.834 115.445 266.206C115.711 266.578 115.909 266.824 116.144 267.131C116.378 267.438 116.697 267.858 116.98 268.222C117.263 268.586 117.461 268.832 117.703 269.135C117.946 269.438 118.273 269.846 118.56 270.198C118.847 270.549 119.057 270.8 119.307 271.099C119.558 271.398 119.889 271.794 120.184 272.137C120.479 272.481 120.697 272.731 120.956 273.026L121.853 274.036C122.115 274.331 122.382 274.618 122.661 274.909C123.008 275.289 123.36 275.665 123.711 276.036L124.2 276.553C124.722 277.095 125.247 277.636 125.78 278.17L125.885 278.279C126.406 278.796 126.936 279.309 127.465 279.818L128.103 280.424C128.487 280.784 128.871 281.143 129.259 281.499L129.728 281.927C130.132 282.307 130.572 282.679 130.996 283.05C132.316 284.201 133.663 285.304 135.037 286.359C137.243 288.04 139.523 289.605 141.877 291.054C151.392 296.307 161.675 299.943 172.33 302.287C174.992 302.873 177.675 303.378 180.366 303.786C197.376 305.301 215.517 305.879 232.6 302.541C205.437 294.545 74.9882 247.572 157.093 104.032C155.994 104.537 154.911 105.058 153.837 105.6L153.598 105.717C153.105 105.964 152.612 106.218 152.124 106.477L151.72 106.691C150.2 107.499 148.697 108.335 147.223 109.208L146.859 109.422C146.39 109.701 145.926 109.984 145.461 110.271L145.109 110.489C143.666 111.391 142.245 112.324 140.847 113.289L140.41 113.592C139.97 113.899 139.538 114.206 139.105 114.517L138.839 114.707C137.958 115.351 137.088 116.003 136.229 116.663L135.978 116.856C135.574 117.172 135.17 117.495 134.766 117.822L134.293 118.202C133.889 118.529 133.485 118.856 133.081 119.192C132.229 119.899 131.388 120.626 130.56 121.362L130.099 121.766L129.012 122.755L128.487 123.232C127.334 124.31 126.207 125.41 125.105 126.533L124.548 127.103C124.229 127.434 123.909 127.766 123.594 128.101C123.408 128.299 123.223 128.505 123.041 128.699C122.486 129.291 121.939 129.892 121.4 130.501C121.218 130.707 121.033 130.905 120.851 131.123C120.564 131.45 120.281 131.782 119.998 132.113L119.388 132.836C119.113 133.164 118.839 133.491 118.58 133.822C118.362 134.089 118.144 134.359 117.93 134.63C117.497 135.168 117.073 135.705 116.653 136.246C116.435 136.529 116.216 136.812 116.002 137.099C115.788 137.386 115.517 137.741 115.279 138.069C115.041 138.396 114.847 138.654 114.637 138.949C114.427 139.244 114.18 139.576 113.958 139.891C113.575 140.43 113.198 140.975 112.827 141.527C112.625 141.822 112.423 142.125 112.225 142.424C112.027 142.723 111.78 143.095 111.562 143.434L110.96 144.368L110.281 145.463C110.107 145.741 109.934 146.02 109.764 146.299C109.404 146.889 109.057 147.483 108.709 148.077L108.216 148.949C107.998 149.333 107.78 149.721 107.566 150.109C107.404 150.404 107.243 150.699 107.085 150.994C106.827 151.475 106.572 151.959 106.317 152.444L105.833 153.39C105.574 153.907 105.315 154.42 105.061 154.941C104.928 155.22 104.79 155.503 104.657 155.786C104.447 156.226 104.253 156.671 104.039 157.115C103.913 157.382 103.792 157.648 103.671 157.923C103.372 158.588 103.08 159.262 102.794 159.943C102.705 160.153 102.621 160.368 102.532 160.578C102.317 161.091 102.107 161.604 101.901 162.121C101.792 162.392 101.687 162.663 101.582 162.929C101.38 163.438 101.178 163.951 100.996 164.465C100.911 164.687 100.827 164.909 100.746 165.131C100.493 165.84 100.243 166.548 99.9983 167.256L99.772 167.943C99.5942 168.482 99.4205 169.021 99.2508 169.559L99.0084 170.331C98.8185 170.953 98.6326 171.576 98.4549 172.202C98.4144 172.335 98.374 172.469 98.3377 172.606C98.1276 173.349 97.9256 174.096 97.7316 174.844C97.667 175.083 97.6104 175.325 97.5498 175.564C97.4084 176.125 97.271 176.687 97.1458 177.252L96.9761 177.959C96.8023 178.727 96.6326 179.495 96.4751 180.267L96.4144 180.578C96.2771 181.265 96.1424 181.951 96.0104 182.638C95.966 182.885 95.9256 183.127 95.8811 183.374C95.7761 183.976 95.6751 184.586 95.5821 185.192C95.5498 185.398 95.5134 185.596 95.4852 185.806C95.3639 186.594 95.2549 187.386 95.1498 188.182L95.0892 188.707C95.0084 189.349 94.9357 189.996 94.867 190.642C94.8427 190.885 94.8144 191.127 94.7902 191.374C94.7256 192.052 94.6649 192.735 94.6084 193.418C94.6084 193.559 94.5841 193.697 94.5761 193.822C94.5168 194.63 94.4643 195.445 94.4185 196.267C94.4185 196.481 94.4185 196.699 94.3902 196.913C94.3633 197.549 94.339 198.183 94.3175 198.816C94.3175 199.054 94.3175 199.293 94.3175 199.531C94.3175 200.359 94.2852 201.192 94.2852 202.024C94.2852 202.024 94.2852 202.052 94.2852 202.065C94.2852 202.962 94.2852 203.85 94.3175 204.739C94.3175 205.046 94.3417 205.353 94.3498 205.661C94.37 206.254 94.3902 206.848 94.4185 207.442C94.4185 207.802 94.4629 208.157 94.4831 208.517C94.5155 209.054 94.5437 209.592 94.5841 210.133C94.6124 210.537 94.6488 210.897 94.6811 211.277C94.7256 211.786 94.766 212.295 94.8185 212.8C94.8549 213.204 94.9033 213.584 94.9437 213.976C95.0003 214.465 95.0528 214.957 95.1134 215.446C95.1619 215.85 95.2185 216.254 95.271 216.638C95.3357 217.115 95.4003 217.596 95.473 218.073C95.5336 218.477 95.5983 218.881 95.6629 219.285C95.7357 219.753 95.8124 220.226 95.8932 220.695C95.966 221.099 96.0387 221.503 96.1155 221.907C96.2003 222.372 96.2892 222.836 96.3781 223.297C96.467 223.757 96.5437 224.105 96.6286 224.509C96.7256 224.97 96.8225 225.426 96.9276 225.883C97.0326 226.339 97.1054 226.691 97.2023 227.067C97.3074 227.523 97.4205 227.976 97.5336 228.424C97.6468 228.873 97.7316 229.212 97.8326 229.6C97.9538 230.052 98.0751 230.501 98.2003 230.949C98.3054 231.353 98.4144 231.725 98.5276 232.109C98.6569 232.557 98.7902 233.002 98.9316 233.446C99.073 233.891 99.166 234.21 99.2872 234.594C99.4084 234.978 99.57 235.479 99.7155 235.919C99.8609 236.359 99.966 236.675 100.095 237.05C100.249 237.491 100.402 237.931 100.56 238.372C100.693 238.739 100.823 239.111 100.964 239.479L101.465 240.8C101.606 241.159 101.744 241.523 101.869 241.883C102.047 242.323 102.229 242.768 102.41 243.208C102.556 243.555 102.697 243.907 102.847 244.254C103.037 244.707 103.251 245.151 103.433 245.6C103.582 245.931 103.728 246.267 103.877 246.598C104.087 247.067 104.309 247.527 104.524 247.988L104.96 248.917C105.206 249.426 105.461 249.927 105.715 250.432C105.845 250.687 105.966 250.945 106.099 251.2C106.875 252.711 107.683 254.202 108.524 255.673C108.641 255.863 108.79 256.109 108.936 256.355Z" fill="#EDD494"/>
<path d="M94.2442 202.02C94.2442 142.497 142.499 94.2422 202.022 94.2422C261.545 94.2422 309.8 142.497 309.8 202.02C309.815 218.058 306.244 233.897 299.347 248.376C292.451 262.856 282.404 275.61 269.941 285.705C267.73 287.504 265.448 289.213 263.097 290.832C238.79 306.262 208.083 306.262 180.361 303.794C177.671 303.39 174.988 302.881 172.325 302.295C161.687 299.951 151.388 296.335 141.873 291.062C139.521 289.613 137.241 288.048 135.032 286.367C132.812 284.677 130.681 282.873 128.648 280.961C126.725 279.176 124.868 277.32 123.077 275.394C104.514 255.474 94.2083 229.248 94.2442 202.02Z" stroke="#592D3D" stroke-width="5.04706" stroke-miterlimit="10"/>
<path d="M156.008 306.554C119.334 306.554 126.918 352.711 126.566 404.041H156.008V306.554Z" fill="#FBE8B3"/>
<path d="M148.376 336.109L157.576 351.515L152.974 404.04H140.154C139.826 331.204 148.376 336.109 148.376 336.109Z" fill="#EDD494"/>
<path d="M250.292 432.323H153.75C152.328 432.322 150.964 431.757 149.959 430.75C148.953 429.744 148.389 428.38 148.389 426.958V311.919C148.389 310.497 148.953 309.133 149.959 308.127C150.964 307.121 152.328 306.555 153.75 306.554H247.985C253.274 306.554 255.661 309.649 255.661 314.586V426.942C255.664 427.648 255.526 428.348 255.257 429.001C254.988 429.654 254.593 430.248 254.094 430.748C253.595 431.248 253.003 431.644 252.35 431.915C251.698 432.185 250.998 432.324 250.292 432.323Z" fill="#FBE8B3"/>
<path d="M254.162 309.745C253.76 309.25 253.419 308.707 253.148 308.129C252.178 307.369 251.024 306.879 249.803 306.711C249.201 306.618 248.593 306.572 247.985 306.573H153.75C152.331 306.574 150.971 307.137 149.966 308.139C148.961 309.141 148.394 310.5 148.389 311.919C160.106 316.129 182.041 318.48 202.021 318.48C227.5 318.48 244.195 314.703 254.162 309.745Z" fill="#EDD494"/>
<path d="M246.465 306.554C283.136 306.554 275.556 352.711 275.907 404.041H255.653" stroke="#592D3D" stroke-width="5.04706" stroke-miterlimit="10" stroke-linecap="square"/>
<path d="M156.008 306.554C119.334 306.554 126.918 352.711 126.566 404.041H146.796" stroke="#592D3D" stroke-width="5.04706" stroke-miterlimit="10" stroke-linecap="square"/>
<path d="M153.75 306.594L247.984 306.554" stroke="#592D3D" stroke-width="5.04706" stroke-miterlimit="10"/>
<path d="M153.75 432.323H200.869C156.768 432.323 160.098 338.917 148.389 338.917V426.941C148.387 427.647 148.524 428.346 148.792 428.999C149.061 429.651 149.455 430.244 149.953 430.744C150.451 431.244 151.043 431.641 151.694 431.912C152.346 432.183 153.045 432.323 153.75 432.323Z" fill="#EDD494"/>
<path d="M145.965 347.818C145.888 346.335 145.92 344.852 145.985 343.374C146.049 341.895 146.175 340.404 146.332 338.929C146.413 338.186 146.494 337.446 146.595 336.703C146.696 335.96 146.793 335.22 146.938 334.477C147.225 332.938 147.713 331.444 148.389 330.032C149.065 331.444 149.553 332.938 149.839 334.477C149.985 335.22 150.09 335.96 150.183 336.703C150.276 337.446 150.365 338.186 150.445 338.929C150.599 340.412 150.72 341.895 150.789 343.374C150.858 344.852 150.89 346.339 150.813 347.818H145.965Z" fill="#592D3D"/>
<path d="M255.653 351.515V354.748C255.758 368.485 255.758 382.626 255.653 396.263C255.653 397.422 255.653 398.574 255.653 399.709V426.946C255.654 427.651 255.517 428.35 255.248 429.002C254.98 429.654 254.585 430.247 254.087 430.746C253.589 431.246 252.998 431.642 252.346 431.913C251.695 432.183 250.997 432.323 250.291 432.323H153.75C152.328 432.322 150.964 431.757 149.958 430.75C148.953 429.744 148.388 428.38 148.388 426.958V403.443C148.388 402.428 148.388 401.394 148.388 400.352C148.287 386.263 148.287 372.121 148.388 357.806V347.818" stroke="#592D3D" stroke-width="5.04706" stroke-miterlimit="10"/>
<path d="M253.229 351.515C253.152 349.83 253.188 348.141 253.253 346.453C253.318 344.764 253.443 343.079 253.596 341.39C253.677 340.545 253.762 339.701 253.859 338.857C253.956 338.012 254.057 337.172 254.203 336.327C254.484 334.588 254.971 332.889 255.653 331.265C256.335 332.889 256.822 334.588 257.104 336.327C257.249 337.172 257.354 338.016 257.447 338.857C257.54 339.697 257.629 340.545 257.71 341.39C257.863 343.079 257.988 344.764 258.053 346.453C258.118 348.141 258.154 349.83 258.077 351.515H253.229Z" fill="#592D3D"/>
<path d="M230.578 340.384C230.667 336.566 235.516 334.95 237.94 337.374C238.334 337.776 238.645 338.252 238.855 338.774C239.065 339.297 239.17 339.855 239.164 340.418C239.158 340.981 239.042 341.538 238.821 342.055C238.6 342.573 238.279 343.043 237.877 343.437C237.475 343.831 236.999 344.141 236.477 344.352C235.954 344.562 235.396 344.667 234.833 344.661C234.27 344.655 233.714 344.538 233.196 344.318C232.678 344.097 232.208 343.776 231.815 343.374C231.421 342.982 231.109 342.516 230.897 342.003C230.685 341.49 230.576 340.939 230.578 340.384Z" fill="#592D3D"/>
<path d="M164.894 340.262C164.809 336.969 168.446 335.353 170.87 336.565C174.102 337.777 174.102 342.221 170.87 344.242C169.254 345.05 167.637 344.242 166.122 343.24C165.732 342.849 165.422 342.384 165.211 341.873C165 341.362 164.893 340.815 164.894 340.262Z" fill="#592D3D"/>
<path d="M202.021 336.068C202.31 336.83 202.513 337.621 202.627 338.428C202.747 339.209 202.813 339.997 202.825 340.788L202.946 345.511C202.982 347.082 203.031 348.658 203.047 350.234L203.116 354.949C203.209 361.24 203.205 367.539 203.229 373.834C203.253 380.129 203.302 386.424 203.229 392.719C203.193 395.866 203.108 399.014 203.015 402.161C202.974 403.733 202.898 405.309 202.744 406.88C202.607 408.469 202.368 410.046 202.029 411.604C201.69 410.046 201.451 408.469 201.314 406.88C201.16 405.309 201.083 403.733 201.043 402.161C200.95 399.014 200.865 395.866 200.829 392.719C200.748 386.424 200.829 380.129 200.829 373.834C200.829 367.539 200.829 361.248 200.902 354.953L200.97 350.226L201.104 345.507L201.237 340.788C201.252 339.997 201.319 339.209 201.439 338.428C201.545 337.622 201.74 336.831 202.021 336.068Z" fill="#EDD494"/>
<path d="M171.807 356.767C172.406 356.482 173.04 356.279 173.694 356.161C174.317 356.044 174.95 355.977 175.584 355.959L179.362 355.826L186.918 355.66C191.952 355.583 196.982 355.563 202.021 355.551C207.059 355.539 212.094 355.487 217.128 355.551C219.645 355.588 222.162 355.672 224.683 355.765C225.94 355.81 227.201 355.887 228.457 356.036C229.733 356.178 230.996 356.418 232.235 356.755C230.997 357.095 229.734 357.334 228.457 357.47C227.201 357.624 225.94 357.701 224.683 357.741C222.162 357.834 219.645 357.915 217.128 357.951C212.094 358.028 207.059 357.951 202.021 357.951C196.982 357.951 191.948 357.951 186.91 357.891C184.393 357.866 181.875 357.786 179.362 357.689L175.584 357.551C174.951 357.534 174.32 357.467 173.698 357.349C173.044 357.24 172.408 357.044 171.807 356.767Z" fill="#EDD494"/>
<path d="M178.752 369.446C179.229 369.219 179.739 369.067 180.263 368.998C180.747 368.93 181.237 368.909 181.726 368.937C182.691 368.978 183.657 369.002 184.623 369.022C186.554 369.067 188.485 369.083 190.417 369.091C194.308 369.091 198.13 369.123 202.037 369.006C205.944 368.889 209.819 368.832 213.705 368.848C215.649 368.848 217.592 368.901 219.532 368.945C220.508 368.958 221.483 369.022 222.453 369.135C223.45 369.245 224.434 369.452 225.39 369.753C224.456 370.12 223.487 370.391 222.497 370.562C221.534 370.735 220.561 370.851 219.584 370.909C217.637 371.05 215.689 371.172 213.746 371.24C209.851 371.386 205.96 371.37 202.077 371.422C200.134 371.422 198.194 371.511 196.227 371.463C194.259 371.414 192.312 371.41 190.36 371.337C188.409 371.265 186.449 371.103 184.501 370.901C183.524 370.792 182.554 370.671 181.58 370.537C181.088 370.477 180.605 370.363 180.138 370.198C179.636 370.028 179.168 369.774 178.752 369.446Z" fill="#EDD494"/>
<path d="M177.346 383.786C177.825 383.504 178.346 383.299 178.889 383.18C179.396 383.062 179.913 382.996 180.433 382.982L183.515 382.852C185.572 382.78 187.633 382.719 189.689 382.687C193.802 382.626 197.915 382.626 202.02 382.626C206.126 382.626 210.247 382.558 214.36 382.626C216.416 382.663 218.473 382.747 220.53 382.84C221.561 382.875 222.59 382.964 223.612 383.107C224.665 383.251 225.701 383.496 226.707 383.838C225.705 384.174 224.672 384.413 223.624 384.554C222.601 384.7 221.571 384.79 220.538 384.824C218.481 384.917 216.424 385.002 214.368 385.038C210.255 385.119 206.138 385.063 202.024 385.038C197.911 385.014 193.798 385.014 189.685 384.937C187.629 384.897 185.568 384.824 183.511 384.739L180.429 384.59C179.909 384.574 179.392 384.506 178.885 384.388C178.343 384.271 177.823 384.067 177.346 383.786Z" fill="#EDD494"/>
<path d="M221.355 342.618L204.333 328.731L234.486 306.594H169.557L199.711 328.731L182.688 342.618L167.484 319.79V351.499H237.892V317.786L221.355 342.618Z" fill="#EDD494"/>
<path d="M249.157 306.327L231.892 306.368C231.803 308.193 231.61 310.011 231.314 311.814C231.124 312.679 230.889 313.534 230.611 314.376C229.666 316.998 223.637 319.224 221.928 321.135C221.362 321.771 220.755 322.369 220.11 322.925C209.94 330.279 193.779 330.683 183.957 322.691C182.897 321.766 181.935 320.736 181.084 319.616C179.375 317.37 174.458 314.933 173.771 311.964C173.576 311.085 173.43 310.196 173.334 309.301C173.237 308.388 173.188 307.471 173.189 306.553L154.922 306.327C153.5 306.327 152.136 306.892 151.13 307.897C150.123 308.903 149.558 310.266 149.557 311.689V426.715C149.558 428.137 150.123 429.501 151.13 430.507C152.136 431.512 153.5 432.077 154.922 432.077H251.46C252.882 432.077 254.245 431.512 255.251 430.506C256.256 429.501 256.821 428.137 256.821 426.715V314.343C256.821 309.422 254.446 306.327 249.157 306.327Z" fill="white"/>
<path d="M247.613 306.327C273.286 306.327 283.379 323.858 279.492 416.226C271.92 418.933 256.902 418.081 256.902 418.081L247.613 306.327Z" fill="white"/>
<path d="M182.248 345.616L201.824 335.883L221.452 345.616L206.478 328.234L188.745 328.57L182.248 345.616Z" fill="#E2E2E2"/>
<path d="M256.821 335.883C256.821 335.883 247.613 370.04 249.019 430.428L262.437 417.903L263.884 362.315C261.613 333.131 256.821 335.883 256.821 335.883Z" fill="#E2E2E2"/>
<path d="M157.172 306.327C132.21 306.327 121.261 329.135 124.545 405.511C133.604 409.515 147.248 407.766 147.248 407.766L157.172 306.327Z" fill="white"/>
<path d="M124.018 386.865C124.088 392.376 124.251 398.232 124.506 404.433C130.676 404.728 142.159 404.788 147.581 404.433L149.27 387.136C144.919 386.627 130.773 386.461 124.018 386.865Z" fill="#E2E2E2"/>
<path d="M149.545 335.883L149.343 407.677L143.949 408.04C142.749 347.818 149.545 335.883 149.545 335.883Z" fill="#E2E2E2"/>
<path d="M247.613 306.327C274.854 306.327 279.31 329.067 279.492 360.38V416.226C279.492 416.226 259.29 418.46 256.902 418.081L256.862 360.663" stroke="#592D3D" stroke-width="5.04706" stroke-miterlimit="10" stroke-linecap="square"/>
<path d="M157.173 306.327C146.777 306.327 139.589 309.608 134.664 315.394C126.805 324.634 124.712 340.258 124.562 359.139V409.147C129.435 410.489 149.354 407.677 149.354 407.677L149.552 359.757" stroke="#592D3D" stroke-width="5.04706" stroke-miterlimit="10" stroke-linecap="square"/>
<path d="M150.545 408.582C149.806 409.637 120.739 409.358 120.376 408.582C120.012 407.806 119.491 393.431 120.376 392.016C121.103 390.853 149.511 391.099 150.545 392.016C151.58 392.934 151.285 407.528 150.545 408.582Z" fill="white" stroke="#592D3D" stroke-width="5.04706" stroke-miterlimit="10" stroke-linecap="square"/>
<path d="M154.923 432.076H202.022C157.905 432.076 161.25 338.687 149.541 338.687V426.715C149.542 427.42 149.681 428.119 149.952 428.771C150.223 429.422 150.62 430.014 151.12 430.512C151.62 431.01 152.213 431.405 152.865 431.673C153.518 431.941 154.217 432.079 154.923 432.076Z" fill="#E2E2E2"/>
<path d="M147.132 347.591C147.056 346.109 147.088 344.622 147.157 343.147C147.225 341.672 147.346 340.181 147.5 338.702C147.581 337.963 147.666 337.22 147.763 336.476C147.86 335.733 147.961 334.993 148.106 334.254C148.392 332.715 148.88 331.221 149.557 329.81C150.233 331.221 150.721 332.715 151.007 334.254C151.153 334.993 151.258 335.737 151.35 336.476C151.443 337.216 151.532 337.963 151.613 338.702C151.769 340.189 151.885 341.671 151.961 343.147C152.025 344.63 152.058 346.117 151.961 347.591H147.132Z" fill="#592D3D"/>
<path d="M256.822 351.273V354.505C256.927 368.242 256.927 382.384 256.822 396.024C256.822 397.184 256.822 398.335 256.822 399.471V426.707C256.822 428.129 256.257 429.493 255.252 430.498C254.246 431.504 252.882 432.069 251.46 432.069H154.923C153.501 432.069 152.136 431.504 151.13 430.498C150.124 429.493 149.558 428.129 149.557 426.707V400.121C149.452 386.036 149.452 371.895 149.557 357.576V347.592" stroke="#592D3D" stroke-width="5.04706" stroke-miterlimit="10"/>
<path d="M281.786 392.016C282.683 392.929 282.429 407.527 281.786 408.581C281.144 409.636 255.928 409.357 255.617 408.581C255.305 407.806 254.849 393.43 255.617 392.016C255.726 391.814 256.538 391.656 257.819 391.539" fill="white"/>
<path d="M281.786 392.016C282.683 392.929 282.429 407.527 281.786 408.581C281.144 409.636 255.928 409.357 255.617 408.581C255.305 407.806 254.849 393.43 255.617 392.016C255.726 391.814 256.538 391.656 257.819 391.539" stroke="#592D3D" stroke-width="5.04706" stroke-miterlimit="10" stroke-linecap="square"/>
<path d="M274.312 391.232C274.548 390.926 274.802 390.635 275.072 390.36C275.292 390.139 275.533 389.94 275.791 389.766C276.024 389.611 276.268 389.476 276.523 389.362C276.769 389.244 277.016 389.143 277.262 389.042C277.758 388.842 278.271 388.682 278.793 388.566C279.06 388.507 279.33 388.465 279.601 388.44C279.747 388.44 279.896 388.44 280.074 388.44C280.175 388.44 280.26 388.44 280.405 388.44C280.454 388.44 280.583 388.44 280.692 388.469H280.834L281.032 388.513L281.133 388.537L281.214 388.562L281.444 388.646C281.746 388.778 282.02 388.966 282.252 389.2L283.949 390.933L280.454 394.36L278.789 392.594C279.007 392.823 279.27 393.004 279.561 393.127C279.634 393.16 279.706 393.184 279.779 393.208H279.848L279.925 393.228C279.975 393.245 280.026 393.257 280.078 393.265H280.155C280.195 393.265 280.26 393.265 280.244 393.265C280.228 393.265 280.216 393.265 280.183 393.265H279.88C279.65 393.265 279.399 393.265 279.145 393.265C278.612 393.233 278.083 393.162 277.561 393.051C277.29 392.99 277.02 392.929 276.753 392.853C276.476 392.779 276.205 392.681 275.945 392.562C275.644 392.419 275.362 392.24 275.104 392.028C274.797 391.81 274.529 391.541 274.312 391.232Z" fill="#592D3D"/>
<path d="M239.398 308.542L209.229 330.687L226.255 344.578L250.263 308.521L239.398 308.542Z" fill="#E2E2E2"/>
<path d="M254.397 351.272C254.32 349.583 254.356 347.894 254.421 346.209C254.486 344.525 254.611 342.832 254.768 341.147C254.849 340.302 254.93 339.458 255.027 338.614C255.124 337.769 255.225 336.925 255.375 336.08C255.654 334.341 256.139 332.642 256.821 331.018C257.506 332.641 257.993 334.341 258.271 336.08C258.417 336.925 258.526 337.769 258.615 338.614C258.704 339.458 258.797 340.302 258.878 341.147C259.035 342.832 259.156 344.521 259.221 346.209C259.286 347.898 259.326 349.583 259.245 351.272H254.397Z" fill="#592D3D"/>
<path d="M154.922 306.368L249.156 306.327" stroke="#592D3D" stroke-width="5.04706" stroke-miterlimit="10"/>
<path d="M213.896 337.596L204.866 328.569L195.84 337.596L200.276 342.032L196.349 385.115L204.729 391.648L213.383 385.115L209.46 342.032L213.896 337.596Z" fill="#E2E2E2"/>
<path d="M202.037 328.569V432.076" stroke="#592D3D" stroke-width="2.52353" stroke-miterlimit="10" stroke-linecap="square"/>
<path d="M202.038 328.569L211.068 334.767L202.038 343.798L193.012 334.767L202.038 328.569Z" fill="#AD00FF"/>
<path d="M169.544 306.585C169.544 306.585 187.027 322.48 199.71 328.731C193.536 338.917 182.688 342.626 182.688 342.626L158.676 306.573L169.544 306.585Z" fill="white" stroke="#592D3D" stroke-width="5.04706" stroke-miterlimit="10"/>
<path d="M234.498 306.586C234.498 306.586 218.587 323.232 204.332 328.731C208.372 336.925 221.354 342.618 221.354 342.618L245.366 306.565L234.498 306.586Z" fill="white" stroke="#592D3D" stroke-width="5.04706" stroke-miterlimit="10"/>
<path fill-rule="evenodd" clip-rule="evenodd" d="M198.217 359.191C196.318 360.149 192.309 362.02 190.136 363.494C187.962 364.969 188.237 366.363 187.287 367.321C186.338 368.278 183.489 370.666 181.59 372.101C179.691 373.535 180.164 377.353 179.691 378.791C179.219 380.23 178.265 383.571 177.788 385.006C177.311 386.44 178.738 388.351 179.691 390.258C180.645 392.165 183.013 397.426 183.962 399.341C184.911 401.256 187.764 400.294 190.136 402.206C192.713 404.276 195.412 406.192 198.217 407.943C200.588 409.377 201.542 409.377 203.914 407.943C206.719 406.193 209.417 404.277 211.994 402.206C214.37 400.294 217.219 401.252 218.172 399.341C219.126 397.43 221.493 392.169 222.443 390.258C223.392 388.347 224.819 386.432 224.346 385.006C223.873 383.579 222.92 380.226 222.443 378.791C221.966 377.357 222.443 373.539 220.544 372.101C218.562 370.609 216.66 369.013 214.847 367.321C213.231 365.798 213.897 364.929 211.994 363.494C210.091 362.06 205.821 360.149 203.914 359.191C203.037 358.722 202.059 358.477 201.065 358.477C200.071 358.477 199.093 358.722 198.217 359.191Z" fill="white"/>
<path fill-rule="evenodd" clip-rule="evenodd" d="M191.513 367.458L200.402 373.519C200.604 373.652 200.839 373.725 201.081 373.729C201.322 373.728 201.557 373.655 201.756 373.519L210.645 367.43C210.815 367.309 210.951 367.145 211.039 366.955C211.128 366.765 211.166 366.556 211.149 366.347C211.132 366.138 211.062 365.937 210.944 365.764C210.827 365.59 210.667 365.45 210.479 365.357L201.59 360.953C201.424 360.874 201.241 360.832 201.057 360.832C200.872 360.832 200.69 360.874 200.523 360.953L191.659 365.357C191.468 365.451 191.305 365.593 191.186 365.769C191.068 365.946 190.997 366.15 190.983 366.362C190.968 366.574 191.009 366.786 191.102 366.977C191.195 367.168 191.337 367.331 191.513 367.45V367.458ZM204.095 375.43C204.094 375.628 204.141 375.823 204.233 375.998C204.324 376.174 204.457 376.324 204.62 376.436L211.748 381.309C211.97 381.459 212.236 381.53 212.504 381.513C212.771 381.495 213.025 381.389 213.226 381.212L219.202 375.867C219.335 375.749 219.44 375.604 219.511 375.441C219.581 375.278 219.615 375.102 219.61 374.925C219.605 374.748 219.561 374.574 219.482 374.415C219.402 374.257 219.289 374.118 219.15 374.008L213.445 369.446C213.243 369.285 212.995 369.193 212.737 369.183C212.479 369.173 212.224 369.245 212.01 369.39L204.62 374.444C204.459 374.554 204.327 374.701 204.235 374.873C204.143 375.044 204.094 375.235 204.091 375.43H204.095ZM186.37 382.056C186.514 382.183 186.625 382.343 186.695 382.521C186.766 382.699 186.792 382.892 186.774 383.083C186.754 383.274 186.689 383.457 186.584 383.618C186.48 383.779 186.338 383.912 186.172 384.008L181.917 386.557C181.706 386.682 181.463 386.74 181.218 386.724C180.974 386.707 180.74 386.617 180.548 386.465C180.354 386.312 180.211 386.103 180.139 385.867C180.067 385.631 180.068 385.378 180.144 385.143L181.719 380.194C181.779 380.001 181.886 379.826 182.031 379.685C182.175 379.543 182.353 379.441 182.548 379.386C182.742 379.33 182.947 379.326 183.144 379.372C183.341 379.419 183.522 379.515 183.671 379.652L186.37 382.056ZM209.453 382.574L201.756 377.321C201.556 377.187 201.321 377.116 201.081 377.116C200.841 377.116 200.606 377.187 200.406 377.321L192.729 382.574C192.577 382.678 192.451 382.815 192.36 382.976C192.269 383.136 192.216 383.315 192.204 383.499C192.195 383.684 192.226 383.869 192.296 384.041C192.365 384.213 192.472 384.367 192.608 384.493L200.285 391.361C200.507 391.56 200.795 391.668 201.093 391.665C201.39 391.666 201.678 391.558 201.901 391.361L209.578 384.493C209.717 384.369 209.826 384.215 209.896 384.043C209.966 383.871 209.995 383.684 209.982 383.499C209.97 383.314 209.915 383.135 209.823 382.974C209.73 382.814 209.602 382.677 209.449 382.574H209.453ZM188.927 381.212L182.956 375.867C182.823 375.746 182.718 375.597 182.649 375.432C182.579 375.267 182.546 375.088 182.552 374.909C182.555 374.732 182.597 374.557 182.676 374.398C182.754 374.239 182.866 374.099 183.004 373.988L188.709 369.398C188.912 369.236 189.162 369.143 189.422 369.134C189.681 369.124 189.937 369.198 190.152 369.345L197.533 374.396C197.702 374.508 197.84 374.66 197.936 374.838C198.032 375.016 198.082 375.216 198.083 375.418C198.084 375.62 198.034 375.819 197.938 375.997C197.842 376.175 197.703 376.326 197.533 376.436L190.414 381.309C190.191 381.461 189.924 381.533 189.654 381.516C189.385 381.498 189.129 381.391 188.927 381.212ZM219.586 388.889L213.505 385.252C213.285 385.123 213.029 385.066 212.774 385.091C212.519 385.115 212.279 385.22 212.087 385.39L204.657 392.02C204.505 392.157 204.39 392.331 204.323 392.524C204.257 392.718 204.24 392.925 204.275 393.127C204.31 393.329 204.396 393.518 204.524 393.678C204.652 393.838 204.819 393.962 205.008 394.04L215.315 398.218C215.606 398.334 215.931 398.332 216.221 398.214C216.511 398.096 216.744 397.87 216.871 397.584L220.063 390.428C220.185 390.158 220.203 389.853 220.116 389.57C220.028 389.287 219.839 389.046 219.586 388.893V388.889ZM220.43 380.202L222.002 385.151C222.062 385.334 222.077 385.527 222.047 385.717C222.017 385.906 221.943 386.085 221.83 386.24C221.717 386.395 221.569 386.521 221.398 386.608C221.227 386.695 221.038 386.74 220.847 386.739C220.63 386.739 220.417 386.679 220.232 386.566L215.97 384.016C215.806 383.92 215.667 383.786 215.566 383.625C215.464 383.464 215.404 383.28 215.388 383.091C215.369 382.9 215.396 382.707 215.467 382.529C215.537 382.351 215.648 382.191 215.792 382.065L218.495 379.64C218.645 379.507 218.826 379.412 219.021 379.366C219.216 379.319 219.42 379.322 219.614 379.374C219.809 379.432 219.986 379.539 220.128 379.684C220.271 379.828 220.375 380.006 220.43 380.202ZM197.885 393.131C197.919 392.926 197.899 392.716 197.829 392.521C197.758 392.326 197.638 392.152 197.481 392.016L190.051 385.386C189.859 385.216 189.619 385.111 189.364 385.087C189.109 385.062 188.853 385.119 188.632 385.248L182.572 388.885C182.317 389.04 182.127 389.284 182.037 389.569C181.948 389.855 181.966 390.163 182.087 390.436L185.287 397.592C185.415 397.876 185.647 398.101 185.936 398.218C186.225 398.335 186.548 398.337 186.839 398.222L197.142 394.048C197.333 393.972 197.502 393.847 197.632 393.686C197.763 393.526 197.85 393.335 197.885 393.131ZM201.521 395.151L209.788 398.501C209.992 398.584 210.169 398.721 210.301 398.897C210.433 399.073 210.514 399.281 210.537 399.5C210.559 399.719 210.522 399.94 210.428 400.139C210.335 400.338 210.189 400.508 210.006 400.63L201.731 406.376C201.534 406.515 201.299 406.591 201.057 406.594C200.815 406.59 200.58 406.514 200.382 406.376L192.115 400.63C191.933 400.506 191.788 400.335 191.696 400.135C191.604 399.935 191.568 399.714 191.592 399.495C191.616 399.276 191.699 399.068 191.833 398.893C191.966 398.718 192.145 398.582 192.35 398.501L200.616 395.151C200.913 395.044 201.239 395.053 201.529 395.176L201.521 395.151Z" fill="#C04927"/>
<path d="M193.52 382.287L201.899 388.821L210.554 382.287L206.513 337.932H197.56L193.52 382.287Z" fill="#AD00FF"/>
<path d="M193.012 334.768L197.448 339.204L193.521 382.287L201.901 388.82L210.555 382.287L206.632 339.204L211.068 334.768" stroke="#592D3D" stroke-width="3.36471" stroke-miterlimit="10"/>
<path d="M257.593 389.123C258.775 388.956 259.97 388.892 261.164 388.933C262.336 388.961 263.5 389.054 264.663 389.195C265.241 389.268 265.823 389.345 266.401 389.442C266.984 389.527 267.562 389.642 268.134 389.785C269.354 390.082 270.515 390.583 271.568 391.268C270.5 391.913 269.339 392.39 268.126 392.682C267.556 392.828 266.987 392.937 266.417 393.03C265.847 393.123 265.281 393.22 264.716 393.308C263.584 393.478 262.457 393.624 261.342 393.713C260.227 393.801 259.112 393.915 258.045 393.931L255.621 393.971L255.217 389.474L257.593 389.123Z" fill="#592D3D"/>
<path d="M198.341 337.855L198.369 337.875C198.394 337.888 198.417 337.904 198.438 337.923L198.591 338.04C198.692 338.125 198.801 338.21 198.906 338.303C199.121 338.485 199.347 338.679 199.593 338.865C199.84 339.05 200.106 339.228 200.401 339.438C200.786 339.728 201.152 340.042 201.496 340.38C201.208 340.85 200.759 341.199 200.232 341.362C199.746 341.497 199.237 341.534 198.737 341.471C198.228 341.421 197.732 341.285 197.27 341.067C197.035 340.954 196.812 340.819 196.603 340.663C196.495 340.584 196.391 340.499 196.292 340.408C196.244 340.364 196.191 340.315 196.143 340.263L196.062 340.178L195.961 340.061L198.341 337.855Z" fill="#592D3D"/>
<path d="M270.733 318.513C271.622 317.618 272.497 316.715 273.359 315.802C291.606 293.697 293.036 270.391 296.741 255.854V250.101L295.755 250.44C296.091 249.826 296.422 249.228 296.741 248.598C296.717 248.557 295.331 249.963 295.307 249.923C294.666 250.448 293.979 250.913 293.254 251.313L280.103 255.87C274.258 256.976 268.317 257.493 262.369 257.414C236.915 257.309 236.818 251.406 216.632 249.333L177.646 249.971C167.266 251.523 162.672 254.743 142.091 255.163C124.252 255.527 108.305 251.123 108.305 251.123V256.246C113.961 271.131 110.155 282.278 120.022 300.888C120.022 300.626 120.022 300.359 120.002 300.08C118.228 291.309 120.002 283.284 120.858 280.206C120.943 279.446 121.004 279.026 121.004 279.026V278.998C121.004 278.949 121.004 278.917 121.004 278.917V278.957C121.004 279.014 121.048 279.139 121.093 279.321C121.186 279.03 121.238 278.872 121.238 278.872C121.238 278.872 121.598 280.856 122.264 284.02C123.852 290.274 126.773 301.393 130.123 312.335C130.495 313.317 130.878 314.278 131.27 315.208C131.299 315.292 131.331 315.385 131.363 315.47C142.652 327.543 156.466 337.838 168.996 345.571C170.345 346.379 171.626 347.135 172.826 347.838C171.675 342.05 172.01 336.064 173.8 330.44C173.8 330.44 173.828 330.593 173.884 330.876C173.981 330.565 174.046 330.396 174.046 330.396C174.046 330.396 178.664 349.567 187.994 355.781C188.224 355.878 188.458 355.971 188.693 356.048L188.515 356.113L188.555 356.137C188.79 356.27 189.032 356.4 189.27 356.541C192.079 357.847 194.957 358.998 197.893 359.987C200.078 360.622 201.868 360.953 202.741 360.953C204.66 360.953 215.67 356.666 222.414 341.127C222.858 339.806 223.072 338.977 223.072 338.977L223.186 339.256C223.23 339.147 223.274 339.042 223.315 338.933C225.524 342.604 226.644 346.827 226.547 351.111C236.762 345.515 246.5 339.09 255.662 331.899V331.854C255.771 331.596 255.876 331.333 255.986 331.07L256.01 331.018L256.337 330.21L256.676 329.369C262.527 314.892 266.204 293.41 266.204 293.41C266.228 293.337 266.317 293.446 266.446 293.709C266.446 293.486 266.446 293.365 266.446 293.365C266.446 293.365 273.02 302.42 270.733 318.513Z" fill="white"/>
<path d="M270.733 318.513C271.622 317.618 272.497 316.715 273.359 315.802C291.606 293.697 293.036 270.391 296.741 255.854V250.101L295.755 250.44C296.091 249.826 296.422 249.228 296.741 248.598C296.717 248.557 295.331 249.963 295.307 249.923C294.666 250.448 293.979 250.913 293.254 251.313L280.103 255.87C274.258 256.976 268.317 257.493 262.369 257.414C236.915 257.309 236.818 251.406 216.632 249.333L177.646 249.971C167.266 251.523 162.672 254.743 142.091 255.163C124.252 255.527 108.305 251.123 108.305 251.123V256.246C113.961 271.131 110.155 282.278 120.022 300.888C120.022 300.626 120.022 300.359 120.002 300.08C118.228 291.309 120.002 283.284 120.858 280.206C120.943 279.446 121.004 279.026 121.004 279.026V278.998C121.004 278.949 121.004 278.917 121.004 278.917V278.957C121.004 279.014 121.048 279.139 121.093 279.321C121.186 279.03 121.238 278.872 121.238 278.872C121.238 278.872 121.598 280.856 122.264 284.02C123.852 290.274 126.773 301.393 130.123 312.335C130.495 313.317 130.878 314.278 131.27 315.208C131.299 315.292 131.331 315.385 131.363 315.47C142.652 327.543 156.466 337.838 168.996 345.571C170.345 346.379 171.626 347.135 172.826 347.838C171.675 342.05 172.01 336.064 173.8 330.44C173.8 330.44 173.828 330.593 173.884 330.876C173.981 330.565 174.046 330.396 174.046 330.396C174.046 330.396 178.664 349.567 187.994 355.781C188.224 355.878 188.458 355.971 188.693 356.048L188.515 356.113L188.555 356.137C188.79 356.27 189.032 356.4 189.27 356.541C192.079 357.847 194.957 358.998 197.893 359.987C200.078 360.622 201.868 360.953 202.741 360.953C204.66 360.953 215.67 356.666 222.414 341.127C222.858 339.806 223.072 338.977 223.072 338.977L223.186 339.256C223.23 339.147 223.274 339.042 223.315 338.933C225.524 342.604 226.644 346.827 226.547 351.111C236.762 345.515 246.5 339.09 255.662 331.899V331.854C255.771 331.596 255.876 331.333 255.986 331.07L256.01 331.018L256.337 330.21L256.676 329.369C262.527 314.892 266.204 293.41 266.204 293.41C266.228 293.337 266.317 293.446 266.446 293.709C266.446 293.486 266.446 293.365 266.446 293.365C266.446 293.365 273.02 302.42 270.733 318.513Z" fill="white"/>
<path d="M270.733 318.513C271.622 317.618 272.497 316.715 273.359 315.802C291.606 293.697 293.036 270.391 296.741 255.854V250.101L295.755 250.44C296.091 249.826 296.422 249.228 296.741 248.598C296.717 248.557 295.331 249.963 295.307 249.923C294.666 250.448 293.979 250.913 293.254 251.313L280.103 255.87C274.258 256.976 268.317 257.493 262.369 257.414C236.915 257.309 230.733 249.458 216.632 249.333C202.531 249.208 185.541 248.836 177.646 249.971C169.751 251.107 162.672 254.743 142.091 255.163C124.252 255.527 108.305 251.123 108.305 251.123V256.246C113.961 271.131 110.155 282.278 120.022 300.888C120.022 300.626 120.022 300.359 120.002 300.08C118.228 291.309 120.002 283.284 120.858 280.206C120.943 279.446 121.004 279.026 121.004 279.026V278.998C121.004 278.949 121.004 278.917 121.004 278.917V278.957C121.004 279.014 121.048 279.139 121.093 279.321C121.186 279.03 121.238 278.872 121.238 278.872C121.238 278.872 121.598 280.856 122.264 284.02C123.852 290.274 126.773 301.393 130.123 312.335C130.495 313.317 130.878 314.278 131.27 315.208C131.299 315.292 131.331 315.385 131.363 315.47C142.652 327.543 156.466 337.838 168.996 345.571C170.345 346.379 171.626 347.135 172.826 347.838C171.675 342.05 172.01 336.064 173.8 330.44C173.8 330.44 173.828 330.593 173.884 330.876C173.981 330.565 174.046 330.396 174.046 330.396C174.046 330.396 178.664 349.567 187.994 355.781C188.224 355.878 188.458 355.971 188.693 356.048L188.515 356.113L188.555 356.137C188.79 356.27 189.032 356.4 189.27 356.541C192.079 357.847 194.957 358.998 197.893 359.987C200.078 360.622 201.868 360.953 202.741 360.953C204.66 360.953 215.67 356.666 222.414 341.127C222.858 339.806 223.072 338.977 223.072 338.977L223.186 339.256C223.23 339.147 223.274 339.042 223.315 338.933C225.524 342.604 226.644 346.827 226.547 351.111C236.762 345.515 246.5 339.09 255.662 331.899V331.854C255.771 331.596 255.876 331.333 255.986 331.07L256.01 331.018L256.337 330.21L256.676 329.369C262.527 314.892 266.204 293.41 266.204 293.41C266.228 293.337 266.317 293.446 266.446 293.709C266.446 293.486 266.446 293.365 266.446 293.365C266.446 293.365 273.02 302.42 270.733 318.513Z" fill="white"/>
<path d="M138.788 285.62C140.335 286.997 142.295 287.821 144.36 287.963C138.586 283.369 136.477 278.917 135.758 276.913C133.663 269.723 132.309 262.338 131.718 254.872C123.827 254.313 116.002 253.052 108.336 251.103V256.226C113.993 271.111 110.186 282.258 120.053 300.868C120.053 300.606 120.053 300.339 120.033 300.06C118.259 291.288 120.033 283.264 120.889 280.185C120.974 279.426 121.035 279.006 121.035 279.006V278.977C121.035 278.929 121.035 278.896 121.035 278.896V278.937C121.035 278.993 121.079 279.119 121.124 279.301C121.217 279.01 121.269 278.852 121.269 278.852C121.269 278.852 121.629 280.836 122.296 284C123.883 290.254 126.805 301.373 130.154 312.315C130.526 313.296 130.91 314.258 131.302 315.187C131.33 315.272 131.362 315.365 131.395 315.45C142.683 327.523 156.498 337.818 169.027 345.551C170.376 346.359 171.657 347.115 172.857 347.818C171.706 342.029 172.041 336.043 173.831 330.42C173.831 330.42 173.859 330.573 173.916 330.856C174.013 330.545 174.077 330.375 174.077 330.375C174.077 330.375 178.696 349.547 188.025 355.761C188.255 355.858 188.489 355.951 188.724 356.028L188.546 356.092L188.586 356.117C188.821 356.25 189.063 356.379 189.302 356.521C192.11 357.827 194.989 358.978 197.924 359.967C200.11 360.602 201.9 360.933 202.772 360.933C204.199 360.933 210.655 358.557 216.643 350.945C188.663 341.842 153.851 323.232 138.788 285.62Z" fill="#E2E2E2"/>
<path d="M175.303 330.012C175.303 330.012 179.137 333.648 187.137 331.664C186.543 333.099 184.741 333.846 184.741 333.846C184.741 333.846 187.234 337.131 192.442 336.977C192.442 336.977 189.319 338.917 186.168 337.644C183.71 337.285 181.235 337.06 178.754 336.969L173.295 333.179L175.303 330.012Z" fill="#E2E2E2"/>
<path d="M142.102 255.159C141.391 255.288 140.68 255.401 139.969 255.498C139.609 255.543 139.254 255.599 138.898 255.64L137.823 255.737L135.674 255.89C134.955 255.923 134.236 255.927 133.52 255.947C132.082 255.975 130.648 255.919 129.209 255.866C127.771 255.814 126.341 255.717 124.91 255.579C123.48 255.442 122.054 255.296 120.623 255.135C119.193 254.973 117.775 254.731 116.357 254.505C113.497 254.044 110.665 253.428 107.872 252.658L106.316 252.222L107.165 249.163L108.733 249.543C111.403 250.193 114.175 250.808 116.922 251.357C119.67 251.907 122.45 252.424 125.234 252.86C126.623 253.098 128.017 253.264 129.415 253.49C130.813 253.717 132.211 253.894 133.613 254.02C136.434 254.403 139.25 254.69 142.102 255.159Z" fill="#592D3D"/>
<path d="M270.429 318.816C274.575 314.67 274.183 314.925 277.617 310.355C277.011 296.424 265.496 288.654 265.496 288.654L266.264 293.365C266.603 293.43 269.46 300.828 269.318 311.984L270.429 318.816Z" fill="#E2E2E2"/>
<path d="M232.471 347.422C230.16 337.362 223.412 335.645 223.412 335.645L224.709 343.503C225.495 346.021 226.023 348.612 226.285 351.236C228.305 350.137 230.39 348.95 232.527 347.689L232.471 347.422Z" fill="#E2E2E2"/>
<path d="M137.41 297.22C137.976 300.027 138.87 302.758 140.073 305.357C141.251 307.914 142.646 310.364 144.243 312.682L145.491 314.371C145.705 314.646 145.895 314.945 146.122 315.208L146.792 316.016C147.249 316.545 147.677 317.099 148.146 317.632L149.584 319.159C149.827 319.41 150.053 319.676 150.299 319.923L151.067 320.642L152.59 322.088C153.633 323.026 154.744 323.886 155.798 324.816L153.261 326.157L153.237 324.541C153.257 324.008 153.265 323.474 153.318 322.925C153.37 322.375 153.41 321.854 153.503 321.309C153.548 321.042 153.576 320.775 153.633 320.501L153.806 319.692C154.05 318.63 154.391 317.593 154.825 316.593C155.041 316.099 155.285 315.618 155.556 315.151C155.693 314.909 155.851 314.674 156.012 314.436C156.097 314.319 156.174 314.206 156.271 314.084C156.368 313.963 156.441 313.866 156.586 313.701L158.388 311.656L158.614 314.303C158.655 314.743 158.736 315.272 158.829 315.761C158.922 316.25 159.035 316.755 159.168 317.248C159.43 318.235 159.769 319.199 160.182 320.133C160.613 321.068 161.141 321.955 161.758 322.779C162.413 323.608 163.176 324.345 164.029 324.969C162.999 324.587 162.042 324.031 161.2 323.325C160.347 322.597 159.594 321.758 158.962 320.832C158.33 319.9 157.789 318.909 157.346 317.874C157.128 317.357 156.942 316.832 156.756 316.294C156.571 315.744 156.421 315.183 156.307 314.614L158.328 315.216C158.328 315.248 158.239 315.357 158.19 315.438C158.142 315.519 158.085 315.624 158.033 315.717C157.932 315.911 157.831 316.121 157.738 316.315C157.549 316.73 157.382 317.155 157.237 317.587C156.949 318.47 156.73 319.374 156.582 320.29C156.436 321.219 156.348 322.155 156.32 323.094C156.295 323.563 156.32 324.04 156.32 324.513L156.384 325.939L156.546 329.43L153.847 327.28C153.265 326.816 152.687 326.355 152.113 325.882L151.249 325.175C150.966 324.937 150.667 324.715 150.404 324.452L148.788 322.905L147.98 322.133C147.722 321.862 147.475 321.583 147.229 321.305L145.746 319.628C145.257 319.066 144.833 318.448 144.38 317.854C143.485 316.661 142.652 315.422 141.887 314.141C140.4 311.557 139.229 308.803 138.4 305.939C137.621 303.107 137.144 300.137 137.41 297.22Z" fill="#592D3D"/>
<path d="M258.094 292.662C258.3 292.852 258.467 293.079 258.587 293.333C258.716 293.587 258.83 293.848 258.926 294.117C259.116 294.653 259.273 295.201 259.395 295.757C259.62 296.866 259.766 297.989 259.831 299.119C259.958 301.371 259.885 303.631 259.613 305.87C259.078 310.379 257.852 314.778 255.977 318.913C254.108 323.096 251.471 326.891 248.203 330.1C244.968 333.279 241.018 335.635 236.684 336.969C240.301 334.579 243.555 331.679 246.344 328.359C249.041 325.077 251.29 321.45 253.031 317.575C254.794 313.682 256.159 309.621 257.108 305.454C257.598 303.353 257.977 301.227 258.243 299.086C258.373 298.016 258.461 296.937 258.498 295.854C258.519 295.315 258.508 294.775 258.465 294.238C258.449 293.966 258.414 293.696 258.36 293.43C258.317 293.16 258.227 292.9 258.094 292.662Z" fill="white"/>
<path d="M106.066 251.139C115.052 268.877 108.984 280.384 120.281 301.362C117.452 289.644 121.262 278.865 121.262 278.865C121.262 278.865 125.254 300.921 131.315 315.2C134.256 324.679 159.537 340.008 173.153 347.996C171.953 342.143 172.275 336.08 174.091 330.388C174.091 330.388 178.895 350.331 188.6 356.129C194.026 359.192 200.782 360.933 202.794 360.933C204.806 360.933 216.745 356.255 223.367 338.913C225.602 342.652 226.711 346.956 226.559 351.309C235.521 346.461 248.131 340.933 255.832 332.057C266.474 318.04 266.474 293.333 266.474 293.333C266.474 293.333 273.133 302.566 270.681 318.909C295.634 291.313 292.636 261.075 299.537 247.972" stroke="#592D3D" stroke-width="5.04706" stroke-miterlimit="10"/>
<path d="M296.721 249.2C296.834 249.408 296.995 249.586 297.189 249.721C297.446 249.897 297.747 249.995 298.058 250.004C298.292 250.011 298.524 249.964 298.737 249.867H298.7L298.62 249.911L298.426 250.008L298.022 250.214L297.213 250.618C296.675 250.888 296.136 251.157 295.597 251.426C294.51 251.96 293.411 252.465 292.312 252.966C291.213 253.467 290.09 253.94 288.971 254.408C287.852 254.877 286.708 255.309 285.549 255.725C284.967 255.931 284.381 256.129 283.775 256.303C283.146 256.498 282.505 256.653 281.856 256.768C281.666 256.8 281.529 256.812 281.379 256.832L280.927 256.885C280.628 256.921 280.329 256.95 280.026 256.978C279.424 257.034 278.813 257.099 278.211 257.14C275.776 257.34 273.326 257.282 270.902 256.966C273.27 256.327 275.597 255.798 277.921 255.232L281.391 254.424C281.914 254.271 282.428 254.087 282.931 253.875C283.46 253.665 283.993 253.414 284.547 253.18C285.618 252.699 286.684 252.182 287.751 251.657C288.817 251.131 289.888 250.602 290.955 250.069L294.163 248.453L295.779 247.645L296.587 247.241L296.991 247.047L297.205 246.946L297.327 246.893L297.391 246.861H297.411C297.778 246.694 298.194 246.666 298.579 246.783C298.965 246.9 299.295 247.153 299.508 247.495L300.369 248.861L297.516 250.554L296.721 249.2Z" fill="#592D3D"/>
<path d="M109.658 229.709C109.254 218.25 116.931 208.553 127.145 204.028C128.217 203.589 129.319 203.224 130.442 202.937C136.104 201.537 142.061 201.922 147.496 204.04C148.736 204.517 149.942 205.078 151.104 205.721C163.036 212.141 168.393 227.236 163.775 239.442C163.307 240.672 162.742 241.864 162.086 243.005C160.475 246.362 158.041 249.257 155.011 251.422C154.001 252.165 152.941 252.84 151.84 253.442C140.777 258.694 125.828 257.078 116.91 248.836C116.017 247.889 115.192 246.881 114.442 245.818C113.584 244.604 112.831 243.32 112.191 241.979C110.836 239.23 110.057 236.232 109.9 233.171C109.754 232.022 109.673 230.866 109.658 229.709Z" fill="#EDD494"/>
<path d="M109 222.295C108.596 210.837 116.272 201.14 126.486 196.614C127.558 196.175 128.658 195.811 129.779 195.523C135.441 194.116 141.4 194.495 146.838 196.606C148.077 197.083 149.281 197.645 150.442 198.287C162.373 204.707 167.731 219.806 163.113 232.008C162.648 233.24 162.083 234.432 161.424 235.572C160.865 236.666 160.229 237.72 159.521 238.723C158.822 239.718 158.056 240.663 157.226 241.552C156.329 242.439 155.367 243.259 154.349 244.004C153.339 244.749 152.279 245.424 151.177 246.024C140.115 251.277 125.165 249.661 116.252 241.422C115.359 240.475 114.534 239.465 113.783 238.4C112.925 237.187 112.17 235.903 111.529 234.562C110.17 231.823 109.385 228.835 109.222 225.782C109.077 224.625 109.003 223.461 109 222.295Z" fill="white"/>
<path d="M136.774 223.85C139.505 223.85 141.719 221.636 141.719 218.904C141.719 216.173 139.505 213.959 136.774 213.959C134.042 213.959 131.828 216.173 131.828 218.904C131.828 221.636 134.042 223.85 136.774 223.85Z" fill="#592D3D"/>
<path d="M161.424 235.555C162.083 234.416 162.648 233.224 163.113 231.992C163.542 230.855 163.889 229.688 164.151 228.501C136.547 225.369 112.838 236.909 112.838 236.909L113.282 237.616C113.448 237.866 113.614 238.117 113.787 238.359C114.538 239.424 115.363 240.434 116.256 241.382C125.169 249.608 140.119 251.224 151.181 245.984C152.283 245.383 153.343 244.708 154.353 243.963C155.371 243.218 156.333 242.398 157.23 241.511C158.06 240.622 158.826 239.677 159.525 238.683C160.231 237.686 160.866 236.641 161.424 235.555Z" fill="#FBE8B3" stroke="#592D3D" stroke-width="2.52353" stroke-miterlimit="10"/>
<path d="M109 222.295C108.596 210.837 116.272 201.14 126.486 196.614C127.558 196.175 128.658 195.811 129.779 195.523C135.441 194.116 141.4 194.495 146.838 196.606C148.077 197.083 149.281 197.645 150.442 198.287C162.373 204.707 167.731 219.806 163.113 232.008C162.648 233.24 162.083 234.432 161.424 235.572C160.865 236.666 160.229 237.72 159.521 238.723C158.822 239.718 158.056 240.663 157.226 241.552C156.329 242.439 155.367 243.259 154.349 244.004C153.339 244.749 152.279 245.424 151.177 246.024C140.115 251.277 125.165 249.661 116.252 241.422C115.359 240.475 114.534 239.465 113.783 238.4C112.925 237.187 112.17 235.903 111.529 234.562C110.17 231.823 109.385 228.835 109.222 225.782C109.077 224.625 109.003 223.461 109 222.295Z" stroke="#592D3D" stroke-width="5.04706" stroke-miterlimit="10"/>
<path d="M235.916 226.452C236.089 220.339 238.611 214.295 242.017 209.753C242.886 208.533 243.848 207.381 244.893 206.307C249.54 201.463 255.763 198.437 262.442 197.775C269.121 197.112 275.818 198.855 281.326 202.691C282.244 203.331 283.125 204.023 283.964 204.763C294.873 213.43 296.134 230.275 290.154 242.432C289.573 243.398 288.928 244.324 288.223 245.204C287.288 246.376 286.264 247.474 285.16 248.489C276.97 255.693 264.227 257.43 253.883 253.507C252.41 252.951 250.984 252.275 249.621 251.487C242.388 247.131 237.35 238.925 236.114 230.384C235.946 229.08 235.88 227.766 235.916 226.452Z" fill="#FBE8B3"/>
<path d="M238.134 221.818C238.304 216.101 240.728 210.444 244.001 206.198C244.843 205.053 245.769 203.972 246.772 202.965C251.318 198.424 257.301 195.605 263.697 194.99C270.093 194.376 276.503 196.004 281.831 199.596C282.712 200.193 283.56 200.839 284.368 201.531C294.873 209.64 296.085 225.398 290.324 236.772C289.765 237.678 289.144 238.545 288.465 239.365C287.563 240.463 286.578 241.489 285.52 242.436C277.637 249.176 265.374 250.804 255.423 247.131C254.003 246.604 252.629 245.963 251.314 245.212C244.356 241.139 239.508 233.462 238.316 225.475C238.157 224.263 238.096 223.04 238.134 221.818Z" fill="white" stroke="#592D3D" stroke-width="5.04706" stroke-miterlimit="10"/>
<path d="M266.348 227.487C269.079 227.487 271.293 225.272 271.293 222.541C271.293 219.81 269.079 217.596 266.348 217.596C263.617 217.596 261.402 219.81 261.402 222.541C261.402 225.272 263.617 227.487 266.348 227.487Z" fill="#592D3D"/>
<path d="M290.449 249.741C286.315 251.761 282.239 253.6 277.786 254.868C275.612 255.503 273.387 255.95 271.135 256.202C268.758 256.392 266.371 256.432 263.988 256.323C261.23 256.259 258.479 256 255.758 255.547C254.978 255.422 254.089 255.753 253.891 256.606C253.725 257.337 254.113 258.335 254.95 258.472C257.578 258.914 260.231 259.198 262.893 259.321C264.182 259.373 265.467 259.345 266.756 259.385C267.977 259.428 269.199 259.4 270.416 259.301C275.265 258.897 279.96 257.571 284.461 255.761C287.014 254.731 289.519 253.579 291.988 252.359C292.333 252.155 292.583 251.822 292.685 251.434C292.786 251.046 292.73 250.634 292.529 250.287C292.321 249.946 291.989 249.699 291.603 249.597C291.216 249.495 290.806 249.547 290.457 249.741H290.449Z" fill="#592D3D"/>
<path d="M147.6 253.503C143.006 254.376 138.55 255.038 133.839 255.05C131.537 255.072 129.239 254.888 126.97 254.501C122.024 253.461 117.206 251.884 112.602 249.798C112.253 249.606 111.843 249.555 111.457 249.657C111.071 249.758 110.739 250.004 110.529 250.343C110.146 250.998 110.327 252.069 111.071 252.416C113.42 253.512 115.83 254.47 118.291 255.285C119.467 255.689 120.663 255.972 121.839 256.335C123.022 256.712 124.223 257.029 125.439 257.285C130.267 258.263 135.224 258.242 140.109 257.689C142.889 257.382 145.649 256.929 148.396 256.408C149.204 256.258 149.657 255.289 149.455 254.545C149.341 254.162 149.083 253.837 148.735 253.64C148.387 253.443 147.976 253.388 147.588 253.487L147.6 253.503Z" fill="#592D3D"/>
<path fill-rule="evenodd" clip-rule="evenodd" d="M98.541 195.608C100.82 202.004 106.985 205.329 112.036 206.493C117.313 198.315 134.925 194.808 148.145 199.446C159.377 201.467 143.777 189.115 118.864 195.81C117.931 196.153 112.981 197.002 106.63 192.097C105.745 191.414 108.521 197.636 111.68 200.178C107.095 200.085 106.343 200.089 98.541 195.608Z" fill="#592D3D"/>
<path fill-rule="evenodd" clip-rule="evenodd" d="M291.397 200.173C294.557 197.648 297.332 191.426 296.448 192.093C290.096 196.998 285.134 196.133 284.213 195.806C259.3 189.099 243.696 201.462 254.928 199.442C268.153 194.804 285.765 198.311 291.042 206.489C296.092 205.325 302.258 202 304.536 195.604C296.734 200.089 295.983 200.085 291.397 200.173Z" fill="#592D3D"/>
<path d="M179.047 251.256C179.047 243.62 224.994 244.767 224.994 251.256C224.994 257.349 222.574 263.192 218.266 267.501C213.957 271.809 208.114 274.23 202.021 274.23C195.928 274.23 190.084 271.809 185.776 267.501C181.467 263.192 179.047 257.349 179.047 251.256Z" fill="#592D3D"/>
<path d="M200.001 259.798C193.153 259.394 187.181 262.525 185.193 267.159C188.499 270.651 192.816 273.018 197.538 273.926C202.26 274.835 207.148 274.238 211.513 272.222C212.42 271.803 213.299 271.324 214.143 270.788C213.771 265.087 207.702 260.274 200.001 259.798Z" fill="#F28195"/>
<path d="M179.047 251.256C179.047 243.62 224.994 244.767 224.994 251.256C224.994 257.349 222.574 263.192 218.266 267.501C213.957 271.809 208.114 274.23 202.021 274.23C195.928 274.23 190.084 271.809 185.776 267.501C181.467 263.192 179.047 257.349 179.047 251.256Z" stroke="#592D3D" stroke-width="2.52353" stroke-miterlimit="10"/>
<path d="M193.182 255.539C193.363 255.495 193.436 255.475 193.553 255.455L193.856 255.398C194.054 255.362 194.26 255.341 194.446 255.325C194.834 255.286 195.224 255.272 195.614 255.285C196.404 255.302 197.189 255.412 197.953 255.612C199.554 256.018 201.005 256.873 202.135 258.077C203.198 259.22 203.911 260.645 204.188 262.182C204.44 263.599 204.248 265.06 203.638 266.364C202.802 265.18 202.159 264.117 201.489 263.228C201.187 262.802 200.856 262.397 200.499 262.016C200.172 261.682 199.806 261.388 199.408 261.143C198.654 260.692 197.812 260.404 196.939 260.299C196.481 260.24 196.019 260.208 195.557 260.202C195.319 260.202 195.081 260.202 194.846 260.222L194.503 260.246H194.345C194.305 260.246 194.224 260.246 194.252 260.246L193.182 255.539Z" fill="#592D3D"/>
<path d="M225.978 160.541C220.778 170.238 201.736 175.669 200.188 173.236C198.451 170.517 215.477 150.885 205.804 130.352" fill="#EDD494"/>
<path d="M301.78 147.765C284.2 111.285 245.105 90.3916 202.895 90.3916C149.889 90.3916 100.47 128.775 91.6543 180.792C91.6543 180.792 173.436 186.981 202.866 153.559C206.749 155.462 265.933 184.917 301.78 147.765Z" fill="white"/>
<path d="M202.895 94.2021C195.848 94.682 188.845 95.6718 181.942 97.1638L176.818 98.3961C175.121 98.8526 173.441 99.3537 171.752 99.8304L166.746 101.447C165.093 102.036 163.461 102.659 161.816 103.281C155.278 105.849 148.947 108.917 142.879 112.457C136.792 116.043 130.954 120.036 125.404 124.408C130.366 119.278 135.895 114.729 141.885 110.849C147.88 106.929 154.262 103.638 160.932 101.026C162.616 100.42 164.293 99.79 165.982 99.2042C167.695 98.6829 169.392 98.1133 171.113 97.6284C172.835 97.1436 174.58 96.7436 176.321 96.3314C178.063 95.9193 179.829 95.6203 181.574 95.3092C188.613 94.1034 195.769 93.7318 202.895 94.2021Z" fill="#592D3D"/>
<path d="M217.063 161.135C212.89 168.937 197.605 173.285 196.364 171.313C194.97 169.131 208.639 153.366 200.873 136.881" fill="white"/>
<path d="M97.0312 183.568C97.0312 183.568 172.009 186.913 202.025 154.477C200.005 162.364 195.662 168.251 196.453 169.491C197.621 171.321 211.807 167.301 215.912 160.057C234.32 167.733 269.035 176.756 299.205 153.556" stroke="#592D3D" stroke-width="5.04706" stroke-miterlimit="10"/>
<path d="M242.785 186.089C247.247 184.952 251.766 184.055 256.324 183.402L255.249 183.544C260.575 182.841 265.973 182.634 271.31 183.35L270.235 183.204C271.557 183.39 272.878 183.608 274.203 183.778L273.128 183.632C277.15 184.184 281.13 185.008 285.039 186.101C287.06 186.663 289.524 185.402 290.009 183.273C290.273 182.239 290.126 181.144 289.598 180.217C289.071 179.29 288.204 178.604 287.181 178.303C282.596 177.048 277.925 176.132 273.205 175.564L274.28 175.709C269.823 174.918 265.288 174.654 260.769 174.921C256.274 175.216 251.806 175.831 247.399 176.76C245.128 177.216 242.874 177.742 240.627 178.295C238.575 178.8 237.144 181.228 237.799 183.265C238.1 184.288 238.786 185.155 239.713 185.682C240.64 186.21 241.735 186.357 242.769 186.093L242.785 186.089Z" fill="#592D3D"/>
<path d="M115.612 186.1C119.485 184.977 123.435 184.141 127.431 183.599L126.356 183.745C133.247 182.843 140.227 182.853 147.115 183.777L146.041 183.636C150.059 184.184 154.035 185.007 157.94 186.1C159.96 186.666 162.425 185.401 162.909 183.272C163.173 182.239 163.026 181.143 162.499 180.216C161.971 179.289 161.104 178.603 160.081 178.302C154.245 176.679 148.263 175.637 142.222 175.191C132.523 174.56 122.787 175.614 113.447 178.307C112.434 178.6 111.568 179.263 111.022 180.165C110.483 181.108 110.338 182.226 110.618 183.276C111.285 185.341 113.41 186.727 115.588 186.105L115.612 186.1Z" fill="#592D3D"/>
<path opacity="0.2" d="M154.712 253.939C162.263 253.939 168.385 247.818 168.385 240.266C168.385 232.715 162.263 226.594 154.712 226.594C147.161 226.594 141.039 232.715 141.039 240.266C141.039 247.818 147.161 253.939 154.712 253.939Z" fill="white"/>
<path opacity="0.4" d="M151.868 254.949L169.367 238.084C168.437 236.296 167.416 234.557 166.309 232.872L147.775 250.735C148.543 251.272 151 254.577 151.868 254.949Z" fill="white"/>
<path d="M154.712 253.939C162.263 253.939 168.385 247.818 168.385 240.266C168.385 232.715 162.263 226.594 154.712 226.594C147.161 226.594 141.039 232.715 141.039 240.266C141.039 247.818 147.161 253.939 154.712 253.939Z" stroke="#592D3D" stroke-width="5.04706" stroke-miterlimit="10"/>
<path d="M152.728 234.533C153.221 236.081 151.314 237.273 149.9 237.511C148.469 237.511 147.516 236.557 147.039 235.366C146.801 234.174 147.039 232.982 147.993 232.267C149.185 231.79 150.853 231.313 151.912 232.537C152.175 232.798 152.382 233.11 152.522 233.452C152.662 233.795 152.732 234.163 152.728 234.533Z" fill="white"/>
<path d="M155.281 233.62C155.249 233.832 155.143 234.026 154.984 234.169C154.824 234.312 154.62 234.395 154.405 234.404C154.191 234.413 153.98 234.348 153.809 234.219C153.638 234.09 153.517 233.905 153.467 233.697C153.467 232.981 153.705 232.743 154.384 232.719C154.622 232.719 154.85 232.813 155.018 232.981C155.186 233.15 155.281 233.378 155.281 233.616V233.62Z" fill="white"/>
<path opacity="0.2" d="M248.567 253.939C256.119 253.939 262.24 247.818 262.24 240.266C262.24 232.715 256.119 226.594 248.567 226.594C241.016 226.594 234.895 232.715 234.895 240.266C234.895 247.818 241.016 253.939 248.567 253.939Z" fill="white"/>
<path opacity="0.4" d="M246.514 253.781L262.085 238.21C262.001 237.656 259.698 234.937 259.544 234.396L242.688 251.26C243.233 251.41 245.96 253.701 246.514 253.781Z" fill="white"/>
<path d="M248.567 253.939C256.119 253.939 262.24 247.818 262.24 240.266C262.24 232.715 256.119 226.594 248.567 226.594C241.016 226.594 234.895 232.715 234.895 240.266C234.895 247.818 241.016 253.939 248.567 253.939Z" stroke="#592D3D" stroke-width="5.04706" stroke-miterlimit="10"/>
<path d="M245.398 234.307C245.802 235.62 244.186 236.63 242.974 236.832C241.762 236.832 240.953 236.024 240.549 235.014C240.347 234.004 240.549 232.994 241.358 232.388C242.368 231.984 243.782 231.58 244.683 232.618C244.908 232.838 245.088 233.1 245.211 233.39C245.334 233.68 245.397 233.992 245.398 234.307Z" fill="white"/>
<path d="M247.557 233.535C247.529 233.714 247.439 233.878 247.304 233.998C247.169 234.118 246.996 234.188 246.816 234.196C246.635 234.204 246.457 234.148 246.312 234.04C246.167 233.931 246.065 233.776 246.021 233.6C246.021 232.994 246.223 232.792 246.797 232.792C246.996 232.792 247.187 232.87 247.329 233.009C247.471 233.148 247.553 233.337 247.557 233.535Z" fill="white"/>
<path d="M168.381 240.267C190.921 232.186 213.093 232.186 234.898 240.267" stroke="#592D3D" stroke-width="5.04706" stroke-miterlimit="10"/>
<path opacity="0.15" d="M248.567 256.363C244.603 256.358 240.78 254.892 237.829 252.246C234.877 249.6 233.004 245.959 232.567 242.02C212.365 234.889 191.573 234.893 170.709 242.02C170.453 244.362 169.686 246.62 168.461 248.634C167.236 250.647 165.584 252.367 163.621 253.671C161.659 254.975 159.433 255.833 157.103 256.182C154.772 256.531 152.394 256.364 150.135 255.693C152.346 256.778 154.787 257.315 157.249 257.259C159.712 257.203 162.126 256.555 164.285 255.37C166.445 254.185 168.288 252.498 169.659 250.45C171.029 248.403 171.887 246.056 172.159 243.608C192.046 236.796 211.868 236.787 231.121 243.608C231.388 246.059 232.242 248.41 233.61 250.462C234.978 252.514 236.82 254.206 238.981 255.395C241.141 256.584 243.557 257.235 246.022 257.293C248.488 257.352 250.931 256.815 253.145 255.729C251.657 256.159 250.116 256.372 248.567 256.363Z" fill="black"/>
</g>
</svg>
