<svg width="24" height="25" viewBox="0 0 24 25" fill="none" xmlns="http://www.w3.org/2000/svg">
<path d="M10.1443 7.12753C10.931 5.16653 11.3243 4.18604 12.0006 4.18604C12.6769 4.18604 13.0702 5.16653 13.8568 7.12753L13.8934 7.21885C14.3378 8.32672 14.56 8.88065 15.0129 9.21734C15.4657 9.55403 16.0602 9.60727 17.2491 9.71374L17.464 9.73299C19.4099 9.90726 20.3828 9.99439 20.5909 10.6134C20.7991 11.2324 20.0766 11.8897 18.6316 13.2044L18.1493 13.6432C17.4178 14.3087 17.052 14.6414 16.8815 15.0776C16.8497 15.1589 16.8233 15.2423 16.8024 15.3271C16.6903 15.7817 16.7975 16.2645 17.0117 17.2299L17.0783 17.5305C17.472 19.3048 17.6688 20.192 17.3252 20.5746C17.1967 20.7176 17.0298 20.8206 16.8444 20.8712C16.3482 21.0066 15.6437 20.4325 14.2348 19.2844C13.3096 18.5305 12.847 18.1536 12.3159 18.0688C12.107 18.0354 11.8941 18.0354 11.6852 18.0688C11.1541 18.1536 10.6915 18.5305 9.76638 19.2844C8.35742 20.4325 7.65295 21.0066 7.15675 20.8712C6.97133 20.8206 6.80442 20.7176 6.676 20.5746C6.33232 20.192 6.52915 19.3048 6.92283 17.5305L6.9895 17.2299C7.20371 16.2645 7.31082 15.7817 7.19876 15.3271C7.17786 15.2423 7.15142 15.1589 7.11962 15.0776C6.94915 14.6414 6.5834 14.3087 5.85189 13.6432L5.36961 13.2044C3.92456 11.8897 3.20204 11.2324 3.41022 10.6134C3.6184 9.99439 4.59131 9.90726 6.53712 9.73299L6.75206 9.71374C7.94097 9.60727 8.53543 9.55403 8.98828 9.21734C9.44113 8.88065 9.66333 8.32672 10.1077 7.21885L10.1443 7.12753Z" stroke="white" stroke-width="2"/>
</svg>
