<svg width="30" height="30" viewBox="0 0 30 30" fill="none" xmlns="http://www.w3.org/2000/svg">
<g id="Star_fill">
<path id="Star 1" d="M12.8827 9.02471C13.6852 7.02385 14.0865 6.02342 14.7385 5.88477C14.9099 5.84831 15.0871 5.84831 15.2586 5.88477C15.9105 6.02342 16.3118 7.02385 17.1144 9.02471C17.5708 10.1626 17.799 10.7315 18.2261 11.1184C18.3458 11.227 18.4759 11.3236 18.6143 11.4071C19.1078 11.7046 19.724 11.7597 20.9562 11.8701C23.0421 12.0569 24.0851 12.1503 24.4036 12.745C24.4696 12.8681 24.5144 13.0015 24.5363 13.1395C24.6419 13.8058 23.8751 14.5034 22.3417 15.8985L21.9158 16.2859C21.1989 16.9382 20.8404 17.2643 20.6331 17.6713C20.5087 17.9155 20.4253 18.1784 20.3862 18.4496C20.3211 18.9017 20.4261 19.3748 20.636 20.3211L20.711 20.6591C21.0875 22.356 21.2758 23.2045 21.0408 23.6216C20.8297 23.9962 20.4409 24.236 20.0114 24.2565C19.5332 24.2793 18.8595 23.7303 17.512 22.6324C16.6243 21.909 16.1804 21.5473 15.6876 21.406C15.2373 21.2768 14.7598 21.2768 14.3095 21.406C13.8167 21.5473 13.3728 21.909 12.4851 22.6324C11.1376 23.7303 10.4639 24.2793 9.9857 24.2565C9.5562 24.236 9.1674 23.9962 8.95631 23.6216C8.72132 23.2045 8.90957 22.3561 9.28606 20.6591L9.36107 20.3211C9.57102 19.3748 9.67599 18.9017 9.61084 18.4496C9.57177 18.1784 9.48837 17.9155 9.364 17.6713C9.15666 17.2643 8.79819 16.9382 8.08126 16.2859L7.65542 15.8985C6.12193 14.5034 5.35519 13.8058 5.46078 13.1395C5.48265 13.0015 5.5275 12.8681 5.59346 12.745C5.91196 12.1503 6.95494 12.0569 9.04089 11.8701C10.2731 11.7597 10.8892 11.7046 11.3828 11.4071C11.5212 11.3236 11.6512 11.227 11.771 11.1184C12.198 10.7315 12.4262 10.1626 12.8827 9.02471Z" fill="#222222" stroke="#222222" stroke-width="2.5"/>
</g>
</svg>
