<svg xmlns="http://www.w3.org/2000/svg" xmlns:xlink="http://www.w3.org/1999/xlink" viewBox="0 0 13.36 13.36"><defs><radialGradient id="a" cx="4.2523" cy="11.56631" r="3.01878" gradientTransform="matrix(1, 0, 0, -1, 0, 16)" gradientUnits="userSpaceOnUse"><stop offset="0" stop-color="#fff" stop-opacity="0.4"/><stop offset="0.15769" stop-color="#fff" stop-opacity="0.4"/><stop offset="0.4244" stop-color="#fff" stop-opacity="0.21446"/><stop offset="0.68171" stop-color="#fff" stop-opacity="0.05922"/><stop offset="0.81523" stop-color="#fff" stop-opacity="0"/></radialGradient></defs><title>wallet-logo</title><polygon points="0 6.738 1.915 1.998 6.622 0 11.362 1.915 13.36 6.622 11.445 11.362 6.738 13.36 1.998 11.445 0 6.738" style="fill:#0d6efd"/><polygon points="6.731 6.574 1.915 1.998 0 6.738 6.731 6.574" style="fill:#00a4ff"/><polygon points="6.794 6.602 6.622 0 1.915 1.998 6.794 6.602" style="fill:#2cafff"/><polygon points="6.68 6.68 6.738 13.36 11.445 11.362 6.68 6.68" style="fill:#2463ed"/><polygon points="10.551 6.714 9.441 3.967 6.714 2.809 3.967 3.919 2.809 6.646 3.919 9.393 6.646 10.551 9.393 9.441 10.551 6.714" style="fill:#1099ff"/><circle cx="4.2523" cy="4.43369" r="3.01878" style="opacity:0.6299999952316284;isolation:isolate;fill:url(#a)"/></svg>