<svg width="30" height="30" viewBox="0 0 30 30" fill="none" xmlns="http://www.w3.org/2000/svg">
<g id="world_2">
<path id="Vector 342" d="M24.375 7.5L22.5417 8.875C22.1089 9.19956 21.5826 9.375 21.0417 9.375H16.8437C16.0968 9.375 15.414 9.79701 15.08 10.4651V10.4651C14.6677 11.2895 14.8816 12.2895 15.595 12.8732L18.095 14.9186C20.0624 16.5283 21.0805 19.0251 20.7998 21.5515L20.742 22.0721C20.6642 22.7721 20.5127 23.4619 20.29 24.13L20 25" stroke="#33363F" stroke-width="2.5"/>
<path id="Vector 343" d="M3.125 13.125L7.17262 12.4504C8.86468 12.1684 10.3316 13.6353 10.0496 15.3274L9.88146 16.3362C9.58042 18.1425 10.4926 19.9338 12.1305 20.7527V20.7527C13.4419 21.4085 14.122 22.8871 13.7664 24.3095L13.125 26.875" stroke="#33363F" stroke-width="2.5"/>
<circle id="Ellipse 114" cx="15" cy="15" r="11.25" stroke="#33363F" stroke-width="2.5"/>
</g>
</svg>
