<svg width="30" height="30" viewBox="0 0 30 30" fill="none" xmlns="http://www.w3.org/2000/svg">
<g id="world_alt">
<circle id="Ellipse 114" cx="15" cy="15" r="10" stroke="#33363F" stroke-width="2.5"/>
<path id="Ellipse 115" d="M23.215 9.00796C22.3103 10.0669 21.1086 10.9358 19.709 11.5428C18.3094 12.1498 16.7521 12.4775 15.1658 12.4989C13.5795 12.5203 12.0097 12.2347 10.5861 11.6657C9.16252 11.0967 7.92596 10.2607 6.9786 9.22673" stroke="#33363F" stroke-width="2.5"/>
<path id="Ellipse 116" d="M23.215 20.992C22.3103 19.9331 21.1086 19.0642 19.709 18.4572C18.3094 17.8502 16.7521 17.5225 15.1658 17.5011C13.5795 17.4797 12.0097 17.7653 10.5861 18.3343C9.16252 18.9033 7.92596 19.7393 6.9786 20.7733" stroke="#33363F" stroke-width="2.5"/>
<path id="Vector 190" d="M15 5V25" stroke="#33363F" stroke-width="2.5"/>
</g>
</svg>
